<svg width="30" height="30" viewBox="0 0 30 30" fill="none" xmlns="http://www.w3.org/2000/svg">
<g clip-path="url(#clip0_60_97)">
<path d="M23.63 11.0832C23.2212 11.0832 22.8899 11.4146 22.8899 11.8233V25.3383C22.8899 26.7665 21.7277 27.9286 20.2995 27.9286H4.07065C2.64246 27.9286 1.48025 26.7664 1.48025 25.3383V9.10934C1.48025 7.68116 2.64246 6.51901 4.07065 6.51901H20.2995C20.7082 6.51901 21.0396 6.18763 21.0396 5.77891C21.0396 5.37019 20.7082 5.03882 20.2995 5.03882H4.07065C1.82605 5.03882 0 6.86481 0 9.10934V25.3383C0 27.5828 1.82605 29.4088 4.07065 29.4088H20.2995C22.544 29.4088 24.3701 27.5828 24.3701 25.3383V11.8234C24.3701 11.4147 24.0387 11.0832 23.63 11.0832Z" fill="#F4A4A4"/>
<path d="M29.3295 1.26023C28.4373 0.367991 26.9856 0.368355 26.0941 1.26023L13.4169 13.9378C13.3999 13.9548 13.2087 14.1535 13.1592 14.2649L11.4037 18.209C11.279 18.4889 11.3397 18.8167 11.5565 19.0333C11.6981 19.1749 11.8875 19.2501 12.0801 19.2501C12.1816 19.2501 12.2839 19.2291 12.3808 19.186L16.3249 17.4304C16.4358 17.381 16.6349 17.1898 16.652 17.1728L29.3295 4.49568C29.7617 4.06344 29.9999 3.48888 29.9999 2.87777C29.9999 2.26672 29.7617 1.69204 29.3295 1.26023ZM28.2829 3.44875L15.6054 16.1263C15.6032 16.1285 15.602 16.1311 15.6 16.1328L13.5398 17.05L14.4569 14.9898C14.4587 14.9876 14.4612 14.9865 14.4634 14.9844L27.1407 2.30685C27.446 2.00141 27.9783 2.00178 28.283 2.30715C28.4356 2.45929 28.5197 2.66205 28.5197 2.87777C28.5197 3.09349 28.4355 3.29619 28.2829 3.44875Z" fill="#F4A4A4"/>
</g>
<defs>
<clipPath id="clip0_60_97">
<rect width="30" height="30" fill="white"/>
</clipPath>
</defs>
</svg>
