<svg width="36" height="36" viewBox="0 0 36 36" fill="none" xmlns="http://www.w3.org/2000/svg">
<path d="M4.5 12.5C4.5 8.72876 4.5 6.84315 5.67157 5.67157C6.84315 4.5 8.72876 4.5 12.5 4.5H23.5C27.2712 4.5 29.1569 4.5 30.3284 5.67157C31.5 6.84315 31.5 8.72876 31.5 12.5V23.5C31.5 27.2712 31.5 29.1569 30.3284 30.3284C29.1569 31.5 27.2712 31.5 23.5 31.5H12.5C8.72876 31.5 6.84315 31.5 5.67157 30.3284C4.5 29.1569 4.5 27.2712 4.5 23.5V12.5Z" stroke="white"/>
<path fill-rule="evenodd" clip-rule="evenodd" d="M29.5 22.7927L27.182 20.4747L27.1561 20.4489L27.1561 20.4488C26.5114 19.8041 25.9918 19.2845 25.5282 18.9307C25.0468 18.5635 24.5675 18.3283 24 18.3283C23.4325 18.3283 22.9532 18.5635 22.4718 18.9307C22.0082 19.2845 21.4886 19.8041 20.8439 20.4489L20.818 20.4747L19.7353 21.5574C19.2505 22.0423 18.926 22.3649 18.6609 22.5617C18.4041 22.7524 18.3004 22.7504 18.2428 22.7393C18.1852 22.7282 18.0881 22.6916 17.9205 22.4191C17.7475 22.1379 17.566 21.7179 17.2959 21.0876L16.2869 18.7333L16.2697 18.6933L16.2697 18.6933C15.7571 17.497 15.3499 16.5468 14.9367 15.8752C14.5135 15.1874 14.0221 14.6874 13.2981 14.548C12.5742 14.4086 11.9323 14.6903 11.2839 15.1718C10.6508 15.6419 9.91984 16.3729 8.99957 17.2931L8.96877 17.324L6.5 19.7927V21.2069L9.67588 18.0311C10.6339 17.073 11.3133 16.3955 11.8801 15.9746C12.4386 15.5599 12.7909 15.4687 13.109 15.5299C13.4272 15.5912 13.7204 15.8067 14.0849 16.3992C14.4549 17.0005 14.8341 17.8819 15.3678 19.1272L16.3768 21.4816L16.3925 21.5182L16.3925 21.5183C16.6427 22.1021 16.8524 22.5915 17.0687 22.9431C17.295 23.3109 17.5902 23.632 18.0537 23.7212C18.5171 23.8105 18.9104 23.622 19.2571 23.3646C19.5886 23.1184 19.9651 22.7419 20.4141 22.2928L20.4142 22.2928L20.4424 22.2645L21.5251 21.1818C22.2018 20.5051 22.6745 20.034 23.0784 19.7258C23.4708 19.4264 23.7391 19.3283 24 19.3283C24.2609 19.3283 24.5292 19.4264 24.9216 19.7258C25.3255 20.034 25.7982 20.5051 26.4749 21.1818L29.4996 24.2065C29.4999 23.9815 29.5 23.7462 29.5 23.4998V22.7927Z" fill="white"/>
<circle cx="24.75" cy="11.25" r="2.25" fill="white"/>
</svg>
