<svg xmlns="http://www.w3.org/2000/svg" xmlns:xlink="http://www.w3.org/1999/xlink" width="500" zoomAndPan="magnify" viewBox="0 0 375 374.999991" height="500" preserveAspectRatio="xMidYMid meet" version="1.0"><defs><clipPath id="id1"><path d="M 0 61.683594 L 375 61.683594 L 375 357.882812 L 0 357.882812 Z M 0 61.683594 " clip-rule="nonzero"/></clipPath><clipPath id="id2"><path d="M 2.25 65.433594 L 375 65.433594 L 375 357.882812 L 2.25 357.882812 Z M 2.25 65.433594 " clip-rule="nonzero"/></clipPath><clipPath id="id3"><path d="M 25 17.386719 L 350 17.386719 L 350 345 L 25 345 Z M 25 17.386719 " clip-rule="nonzero"/></clipPath></defs><g clip-path="url(#id1)"><path fill="rgb(75.289917%, 71.369934%, 100%)" d="M 349.394531 187.613281 L 248.890625 187.613281 L 248.890625 128.960938 L 349.394531 128.960938 Z M 359.324219 238.242188 C 359.160156 237.933594 358.984375 237.628906 358.8125 237.320312 C 353.953125 228.675781 347.726562 221.214844 339.765625 215.746094 C 304.773438 191.710938 282.046875 202.777344 264.570312 197.703125 C 264.308594 197.625 264.046875 197.542969 263.785156 197.460938 C 257.136719 195.320312 251.25 190.699219 245.722656 180.691406 C 231.238281 154.457031 223.195312 121.449219 200.929688 106.75 C 200.496094 106.460938 200.054688 106.1875 199.609375 105.914062 C 191.125 100.71875 180.621094 98.113281 167.03125 99.398438 C 116.171875 104.199219 100.371094 194.957031 62.4375 200.378906 C 24.136719 205.855469 8.261719 258.652344 2.648438 306.269531 C 2.574219 306.902344 2.5 307.535156 2.429688 308.167969 C 0.347656 326.667969 -0.203125 344.277344 0.0625 357.882812 L 372.390625 357.882812 C 372.390625 357.882812 374.085938 346.585938 374.742188 330.164062 C 374.753906 329.886719 374.765625 329.617188 374.777344 329.335938 C 375.746094 303.425781 374.066406 265.257812 359.324219 238.242188 Z M 319.460938 73.425781 L 296.40625 61.90625 L 285.65625 89.226562 L 304.105469 98.445312 Z M 273.214844 89.773438 L 276.039062 78.582031 L 231.179688 85.695312 L 237.324219 95.464844 Z M 171.191406 67.09375 C 172.710938 67.492188 180.144531 65.78125 180.144531 65.78125 C 180.144531 65.78125 175.152344 62.75 172.976562 64.707031 C 172.976562 64.707031 169.671875 66.691406 171.191406 67.09375 " fill-opacity="1" fill-rule="nonzero"/></g><path fill="rgb(29.798889%, 29.40979%, 63.529968%)" d="M 208.875 59.910156 C 205.847656 51.992188 195.84375 49.46875 191.421875 49.796875 C 187 50.128906 176.066406 51.527344 172.808594 62.003906 C 172.808594 62.003906 172.273438 63.074219 172.976562 64.707031 C 173.007812 64.683594 173.039062 64.671875 173.066406 64.648438 C 173.179688 64.554688 173.292969 64.464844 173.417969 64.398438 C 173.457031 64.375 173.5 64.363281 173.535156 64.347656 C 173.664062 64.289062 173.789062 64.230469 173.921875 64.191406 C 173.945312 64.183594 173.972656 64.179688 173.996094 64.175781 C 174.148438 64.132812 174.304688 64.097656 174.464844 64.082031 C 174.476562 64.078125 174.484375 64.078125 174.496094 64.078125 C 174.671875 64.058594 174.859375 64.046875 175.042969 64.050781 C 177.359375 64.09375 180.144531 65.78125 180.144531 65.78125 C 180.144531 65.78125 178.207031 66.226562 176.105469 66.609375 C 176.429688 67.667969 176.652344 68.960938 176.523438 70.539062 C 176.269531 73.605469 174.234375 76.355469 174.078125 78.714844 C 173.921875 81.074219 175.757812 84.652344 178.023438 85.699219 C 179.582031 86.421875 184.273438 86.601562 187.0625 86.648438 C 187.070312 86.652344 187.078125 86.65625 187.085938 86.660156 C 189.214844 87.738281 202.019531 86.105469 206.507812 85.492188 C 207.398438 85.371094 208.058594 84.613281 208.058594 83.710938 L 208.058594 80.984375 C 208.058594 80.984375 211.898438 67.828125 208.875 59.910156 Z M 187.105469 111.714844 C 187.105469 111.714844 187.316406 109.03125 190.167969 107.914062 C 193.023438 106.789062 196.140625 106.949219 196.140625 106.949219 C 196.140625 106.949219 196.859375 108.542969 193.664062 109.308594 C 190.464844 110.070312 190.167969 110.230469 190.167969 110.230469 L 195.144531 109.914062 C 195.144531 109.914062 194.863281 111.671875 193.503906 111.914062 C 192.144531 112.152344 190.34375 111.914062 190.34375 111.914062 L 193.421875 112.675781 C 193.421875 112.675781 192.183594 113.792969 190.742188 113.710938 C 189.304688 113.632812 186.90625 113.71875 186.90625 113.71875 Z M 296.601562 35.851562 L 277.796875 27.066406 L 264.917969 59.769531 L 279.820312 66.734375 Z M 308.488281 66.550781 C 310.492188 67.550781 312.929688 66.738281 313.929688 64.730469 C 314.933594 62.726562 314.117188 60.289062 312.113281 59.285156 C 310.109375 58.285156 307.671875 59.097656 306.671875 61.105469 C 305.675781 63.109375 306.484375 65.550781 308.488281 66.550781 Z M 302.847656 97.816406 L 317.523438 72.460938 L 314.421875 70.914062 L 299.746094 96.269531 Z M 294.636719 93.710938 L 297.734375 95.261719 L 312.40625 69.902344 L 309.308594 68.355469 Z M 253.488281 81.378906 C 255.960938 80.984375 257.644531 78.664062 257.253906 76.1875 C 256.863281 73.714844 254.542969 72.03125 252.074219 72.421875 C 249.601562 72.8125 247.914062 75.136719 248.308594 77.609375 C 248.699219 80.082031 251.019531 81.765625 253.488281 81.378906 Z M 268.421875 90.535156 L 270.015625 79.542969 L 266.59375 80.085938 L 265.003906 91.078125 Z M 264.371094 80.4375 L 260.949219 80.980469 L 259.359375 91.972656 L 262.78125 91.429688 Z M 288.667969 159.695312 C 287.914062 159.695312 287.3125 160.289062 287.308594 161.035156 C 287.304688 161.789062 287.910156 162.398438 288.648438 162.398438 C 289.402344 162.394531 290 161.804688 290.007812 161.054688 C 290.015625 160.308594 289.410156 159.695312 288.667969 159.695312 Z M 349.902344 131.523438 L 344.308594 131.523438 L 344.308594 137.121094 L 349.902344 137.121094 Z M 310.601562 162.875 C 311.289062 162.882812 311.910156 162.339844 311.933594 161.683594 C 311.054688 161.683594 310.175781 161.683594 309.300781 161.683594 C 309.3125 162.316406 309.917969 162.871094 310.601562 162.875 Z M 316.855469 159.320312 C 316.855469 159.070312 316.804688 158.824219 316.726562 158.589844 C 316.199219 156.933594 315.335938 155.523438 313.816406 154.59375 C 313.792969 154.582031 313.773438 154.558594 313.738281 154.53125 C 313.8125 154.433594 313.878906 154.355469 313.9375 154.269531 C 314.523438 153.40625 314.152344 152.277344 313.140625 151.820312 C 312.824219 151.679688 312.496094 151.617188 312.15625 151.617188 C 309.730469 151.617188 307.300781 151.617188 304.875 151.617188 C 304.261719 151.617188 303.722656 151.804688 303.289062 152.253906 C 302.652344 152.90625 302.664062 153.886719 303.316406 154.527344 C 303.40625 154.617188 303.507812 154.699219 303.605469 154.78125 C 303.613281 154.855469 303.558594 154.882812 303.523438 154.921875 C 303.070312 155.433594 302.839844 156.027344 302.84375 156.710938 C 302.84375 157.269531 302.851562 157.828125 302.839844 158.386719 C 302.832031 159.011719 302.851562 159.625 303.199219 160.167969 C 303.148438 160.242188 303.085938 160.222656 303.039062 160.222656 C 302.816406 160.226562 302.59375 160.210938 302.378906 160.226562 C 302.128906 160.246094 301.957031 160.210938 301.820312 159.945312 C 301.644531 159.601562 301.304688 159.421875 300.917969 159.414062 C 299.777344 159.402344 298.632812 159.410156 297.492188 159.414062 C 297.25 159.414062 297.042969 159.53125 296.816406 159.664062 C 296.589844 159.25 296.367188 158.84375 296.148438 158.449219 C 296.183594 158.371094 296.242188 158.359375 296.289062 158.332031 C 296.675781 158.078125 296.875 157.632812 296.746094 157.1875 C 296.394531 155.976562 296.03125 154.769531 295.667969 153.566406 C 295.609375 153.371094 295.492188 153.203125 295.320312 153.089844 C 295.183594 153.003906 295.164062 152.925781 295.234375 152.777344 C 295.75 151.636719 296.257812 150.488281 296.769531 149.347656 C 296.867188 149.128906 296.972656 148.914062 296.996094 148.632812 C 297.292969 148.792969 297.554688 148.929688 297.824219 149.070312 C 297.964844 149.148438 298.109375 149.230469 298.257812 149.300781 C 298.546875 149.429688 298.867188 149.324219 299.007812 149.054688 C 299.148438 148.785156 299.066406 148.457031 298.796875 148.300781 C 298.425781 148.085938 298.046875 147.890625 297.671875 147.695312 C 297.558594 147.640625 297.511719 147.578125 297.515625 147.441406 C 297.535156 146.976562 297.273438 146.582031 296.859375 146.421875 C 296.429688 146.253906 295.980469 146.371094 295.664062 146.730469 C 295.632812 146.761719 295.617188 146.820312 295.542969 146.8125 C 295.503906 146.5625 295.449219 146.304688 295.328125 146.074219 C 294.976562 145.375 294.214844 144.953125 293.441406 145.027344 C 293.25 145.046875 293.175781 145.136719 293.175781 145.375 C 293.171875 146.046875 293.175781 146.722656 293.175781 147.398438 C 293.175781 147.773438 293.171875 148.152344 293.175781 148.53125 C 293.179688 148.796875 293.261719 148.867188 293.523438 148.878906 C 293.78125 148.882812 294.03125 148.847656 294.273438 148.761719 C 294.332031 148.851562 294.265625 148.914062 294.238281 148.972656 C 293.585938 150.445312 292.925781 151.914062 292.277344 153.386719 C 292.195312 153.578125 292.09375 153.652344 291.894531 153.625 C 291.75 153.605469 291.601562 153.621094 291.460938 153.613281 C 290.515625 153.546875 290.03125 154.347656 290.023438 155.003906 C 290.023438 155.128906 290.023438 155.25 290.023438 155.402344 C 289.714844 155.324219 289.410156 155.277344 289.105469 155.253906 C 287.554688 155.136719 286.191406 155.550781 285.082031 156.675781 C 284.941406 156.820312 284.816406 156.976562 284.730469 157.15625 C 284.5625 157.507812 284.640625 157.800781 284.957031 158.023438 C 285.140625 158.15625 285.355469 158.226562 285.570312 158.300781 C 284.3125 159.988281 284.148438 161.726562 285.359375 163.472656 C 286.320312 164.855469 288.027344 165.472656 289.667969 165.015625 C 291.648438 164.464844 292.628906 163.066406 292.792969 161.019531 C 293.144531 161.183594 293.511719 161.21875 293.933594 161.152344 C 293.492188 159.535156 293.023438 157.945312 292.066406 156.550781 C 292.414062 156.449219 292.515625 156.492188 292.683594 156.800781 C 293.632812 158.53125 294.582031 160.261719 295.535156 161.992188 C 295.773438 162.421875 296.152344 162.625 296.640625 162.625 C 298.539062 162.628906 300.4375 162.628906 302.335938 162.628906 C 303.085938 162.628906 303.832031 162.628906 304.582031 162.625 C 305.175781 162.625 305.578125 162.351562 305.792969 161.804688 C 305.832031 161.695312 305.882812 161.660156 305.996094 161.660156 C 306.484375 161.65625 306.484375 161.652344 306.554688 162.136719 C 306.839844 164.136719 308.617188 165.65625 310.640625 165.632812 C 312.707031 165.609375 314.453125 164.070312 314.671875 162.042969 C 314.707031 161.714844 314.820312 161.597656 315.128906 161.511719 C 316.144531 161.234375 316.867188 160.285156 316.855469 159.320312 Z M 344.308594 137.121094 L 344.308594 142.71875 L 349.902344 142.71875 L 349.902344 176.179688 L 344.308594 176.179688 L 344.308594 170.582031 L 338.714844 170.582031 L 338.714844 176.179688 L 333.121094 176.179688 L 333.121094 170.582031 L 327.53125 170.582031 L 327.53125 176.179688 L 321.9375 176.179688 L 321.9375 170.582031 L 316.34375 170.582031 L 316.34375 176.179688 L 310.75 176.179688 L 310.75 170.582031 L 305.160156 170.582031 L 305.160156 176.179688 L 299.566406 176.179688 L 299.566406 170.582031 L 293.972656 170.582031 L 293.972656 176.179688 L 288.378906 176.179688 L 288.378906 170.582031 L 282.789062 170.582031 L 282.789062 176.179688 L 277.195312 176.179688 L 277.195312 170.582031 L 271.601562 170.582031 L 271.601562 176.179688 L 266.007812 176.179688 L 266.007812 170.582031 L 260.417969 170.582031 L 260.417969 176.179688 L 254.824219 176.179688 L 254.824219 170.582031 L 249.230469 170.582031 L 249.230469 137.121094 L 254.824219 137.121094 L 254.824219 142.71875 L 260.417969 142.71875 L 260.417969 137.121094 L 266.007812 137.121094 L 266.007812 142.71875 L 271.601562 142.71875 L 271.601562 137.121094 L 277.195312 137.121094 L 277.195312 142.71875 L 282.789062 142.71875 L 282.789062 137.121094 L 288.378906 137.121094 L 288.378906 142.71875 L 293.972656 142.71875 L 293.972656 137.121094 L 299.566406 137.121094 L 299.566406 142.71875 L 305.160156 142.71875 L 305.160156 137.121094 L 310.75 137.121094 L 310.75 142.71875 L 316.34375 142.71875 L 316.34375 137.121094 L 321.9375 137.121094 L 321.9375 142.71875 L 327.53125 142.71875 L 327.53125 137.121094 L 333.121094 137.121094 L 333.121094 142.71875 L 338.714844 142.71875 L 338.714844 137.121094 Z M 260.417969 131.523438 L 254.824219 131.523438 L 254.824219 137.121094 L 260.417969 137.121094 Z M 293.972656 181.777344 L 299.566406 181.777344 L 299.566406 176.179688 L 293.972656 176.179688 Z M 282.789062 181.777344 L 288.378906 181.777344 L 288.378906 176.179688 L 282.789062 176.179688 Z M 271.601562 181.777344 L 277.195312 181.777344 L 277.195312 176.179688 L 271.601562 176.179688 Z M 305.160156 181.777344 L 310.75 181.777344 L 310.75 176.179688 L 305.160156 176.179688 Z M 260.417969 181.777344 L 266.007812 181.777344 L 266.007812 176.179688 L 260.417969 176.179688 Z M 338.714844 181.777344 L 344.308594 181.777344 L 344.308594 176.179688 L 338.714844 176.179688 Z M 316.34375 181.777344 L 321.9375 181.777344 L 321.9375 176.179688 L 316.34375 176.179688 Z M 327.53125 181.777344 L 333.121094 181.777344 L 333.121094 176.179688 L 327.53125 176.179688 Z M 282.789062 131.523438 L 277.195312 131.523438 L 277.195312 137.121094 L 282.789062 137.121094 Z M 305.160156 131.523438 L 299.566406 131.523438 L 299.566406 137.121094 L 305.160156 137.121094 Z M 316.34375 131.523438 L 310.75 131.523438 L 310.75 137.121094 L 316.34375 137.121094 Z M 293.972656 131.523438 L 288.378906 131.523438 L 288.378906 137.121094 L 293.972656 137.121094 Z M 327.53125 131.523438 L 321.9375 131.523438 L 321.9375 137.121094 L 327.53125 137.121094 Z M 249.230469 181.777344 L 254.824219 181.777344 L 254.824219 176.179688 L 249.230469 176.179688 Z M 338.714844 131.523438 L 333.121094 131.523438 L 333.121094 137.121094 L 338.714844 137.121094 Z M 271.601562 131.523438 L 266.007812 131.523438 L 266.007812 137.121094 L 271.601562 137.121094 Z M 132.957031 166.363281 C 134.699219 166.363281 164.933594 162.875 185.144531 158.394531 C 186.964844 157.992188 189.238281 155.890625 191.699219 152.746094 C 193.679688 165.40625 195.351562 179.824219 195.351562 179.824219 C 195.351562 179.824219 226.199219 180.953125 241.703125 176.699219 C 241.703125 176.699219 223.621094 89.851562 203.148438 89.851562 C 188.957031 89.851562 186.320312 95.203125 185.941406 100.925781 C 185.027344 102.082031 184.242188 103.375 183.636719 104.820312 C 182.628906 107.199219 181.785156 110.042969 181.1875 113.433594 C 177.347656 135.203125 172.035156 138.261719 172.035156 138.261719 L 130.433594 151.851562 C 130.433594 151.851562 131.214844 166.363281 132.957031 166.363281 Z M 285.707031 303.449219 C 276.085938 303.449219 268.292969 311.253906 268.292969 320.882812 C 268.292969 330.511719 276.085938 338.316406 285.707031 338.316406 C 295.328125 338.316406 303.125 330.511719 303.125 320.882812 C 303.125 311.253906 295.328125 303.449219 285.707031 303.449219 Z M 322.210938 213.957031 C 324.433594 211.011719 322.730469 206.757812 319.089844 206.160156 C 304.574219 203.78125 274.75 199.339844 268.382812 201.851562 C 259.886719 205.199219 253.195312 220.140625 253.195312 220.140625 C 253.195312 220.140625 221.273438 218.082031 206.085938 237.660156 C 206.085938 237.660156 189.355469 241.785156 179.828125 239.210938 C 179.828125 239.210938 177.511719 246.769531 179.828125 250.460938 C 182.144531 254.152344 186.261719 257.242188 185.746094 262.140625 C 185.234375 267.03125 177.855469 267.546875 176.910156 275.789062 C 175.96875 284.035156 176.910156 301.46875 176.910156 301.46875 C 176.910156 301.46875 140.699219 303.875 126.800781 295.113281 C 112.898438 286.355469 100.886719 284.808594 100.714844 264.195312 C 100.550781 244.679688 117.167969 205.289062 118.925781 201.175781 L 120.097656 202.34375 L 121.425781 195.96875 C 123.507812 188.679688 124.5625 181.136719 124.5625 173.554688 L 124.5625 147.957031 C 124.5625 147.453125 124.480469 146.949219 124.316406 146.476562 L 122.527344 141.3125 C 121.898438 139.484375 120.179688 138.261719 118.25 138.261719 L 112.445312 138.261719 C 111.296875 138.261719 110.195312 138.699219 109.359375 139.484375 C 108.542969 140.246094 107.46875 140.679688 106.351562 140.699219 L 101.933594 140.777344 C 100.011719 140.8125 98.476562 142.378906 98.476562 144.296875 L 98.476562 168.0625 C 98.476562 170.007812 100.050781 171.582031 101.992188 171.582031 L 107.402344 171.582031 L 107.402344 186.90625 L 102.601562 186.90625 C 102.601562 186.90625 82.265625 199.789062 72.742188 226.066406 C 70.742188 231.59375 69.980469 237.808594 70.167969 244.292969 C 51.921875 238.875 34.050781 240.914062 25.875 264.101562 C 24.839844 267.039062 25.910156 270.316406 28.464844 272.101562 C 33.394531 275.554688 42.308594 281.523438 52.828125 287.347656 C 63.234375 293.109375 79.191406 295.863281 89.21875 297.097656 C 92.308594 301.1875 95.542969 304.574219 98.742188 306.964844 C 115.988281 319.847656 128.039062 324.476562 158.671875 321.382812 C 189.304688 318.292969 230.023438 303.875 238.519531 298.207031 C 247.015625 292.539062 245.984375 284.808594 245.984375 284.808594 C 245.984375 284.808594 268.894531 272.699219 293.351562 278.109375 C 317.804688 283.519531 323.210938 286.871094 328.617188 283.265625 C 334.023438 279.65625 311.113281 228.644531 311.113281 228.644531 Z M 66.382812 320.882812 C 66.382812 330.410156 58.664062 338.132812 49.144531 338.132812 C 39.628906 338.132812 31.910156 330.410156 31.910156 320.882812 C 31.910156 311.355469 39.628906 303.632812 49.144531 303.632812 C 58.664062 303.632812 66.382812 311.355469 66.382812 320.882812 " fill-opacity="1" fill-rule="nonzero"/><g clip-path="url(#id2)"><path fill="rgb(100%, 39.99939%, 76.858521%)" d="M 80.929688 209.636719 C 81.171875 209.257812 81.414062 208.886719 81.660156 208.519531 C 81.492188 208.578125 81.328125 208.640625 81.15625 208.703125 C 58.070312 216.65625 49.15625 230.332031 45.078125 243.207031 C 45.394531 243.105469 45.710938 243.003906 46.027344 242.914062 C 50.113281 230.472656 58.890625 217.378906 80.929688 209.636719 Z M 21.664062 287.984375 C 26.304688 283.9375 30.820312 279.996094 34.410156 276.144531 C 34.179688 275.992188 33.957031 275.847656 33.734375 275.695312 C 30.191406 279.480469 25.730469 283.378906 21.140625 287.382812 C 14.035156 293.578125 6.757812 299.929688 2.648438 306.269531 C 2.574219 306.902344 2.5 307.535156 2.429688 308.167969 C 6.226562 301.457031 14.046875 294.628906 21.664062 287.984375 Z M 158.429688 131.710938 C 164.957031 119.425781 173.648438 112.988281 181.984375 109.742188 C 182.074219 109.417969 182.160156 109.09375 182.25 108.777344 C 173.59375 112.007812 164.507812 118.570312 157.726562 131.335938 C 155.121094 136.238281 152.5 140.964844 149.839844 145.511719 L 150.988281 145.136719 C 153.496094 140.820312 155.96875 136.34375 158.429688 131.710938 Z M 134.839844 168.214844 C 131.464844 172.664062 127.941406 176.835938 124.234375 180.726562 C 124.199219 181.152344 124.167969 181.582031 124.121094 182.007812 C 128.035156 177.964844 131.738281 173.605469 135.289062 168.953125 C 135.136719 168.804688 134.988281 168.550781 134.839844 168.214844 Z M 172.660156 262.789062 C 170.273438 262.496094 167.957031 262.238281 165.695312 262.003906 C 165.613281 262.265625 165.53125 262.523438 165.449219 262.78125 C 167.757812 263.019531 170.125 263.285156 172.5625 263.585938 C 176.808594 264.101562 181.050781 264.148438 185.277344 263.75 C 185.40625 263.488281 185.511719 263.210938 185.59375 262.914062 C 181.398438 263.34375 177.085938 263.328125 172.660156 262.789062 Z M 135.894531 260.441406 C 127.515625 260.546875 120.371094 261.21875 114.167969 262.339844 C 114.191406 262.609375 114.214844 262.890625 114.234375 263.152344 C 120.414062 262.027344 127.53125 261.351562 135.894531 261.246094 C 135.894531 260.976562 135.894531 260.710938 135.894531 260.441406 Z M 7.855469 350.25 C 9.230469 345.710938 12.878906 341.667969 18.710938 338.1875 C 18.582031 337.960938 18.441406 337.730469 18.316406 337.492188 C 12.292969 341.089844 8.515625 345.289062 7.085938 350.03125 C 6.132812 353.195312 6.417969 355.949219 6.917969 357.882812 L 7.757812 357.882812 C 7.257812 356.042969 6.921875 353.332031 7.855469 350.25 Z M 313.773438 299.9375 C 313.933594 300.152344 314.082031 300.371094 314.238281 300.589844 C 329.042969 291.085938 339.761719 276.824219 346.820312 264.78125 C 352.699219 254.753906 356.792969 245.066406 359.324219 238.242188 C 359.160156 237.933594 358.984375 237.628906 358.8125 237.320312 C 356.3125 244.140625 352.164062 254.085938 346.121094 264.390625 C 339.109375 276.351562 328.464844 290.523438 313.773438 299.9375 Z M 108.339844 346.300781 C 115.761719 336.121094 126.371094 337.695312 139.808594 339.683594 C 156.082031 342.09375 176.332031 345.089844 201.3125 330.308594 C 201.925781 329.945312 202.515625 329.605469 203.113281 329.257812 L 201.53125 329.257812 C 201.320312 329.382812 201.121094 329.496094 200.910156 329.621094 C 176.171875 344.257812 156.074219 341.28125 139.925781 338.894531 C 126.222656 336.863281 115.398438 335.261719 107.695312 345.828125 C 103.824219 351.136719 99.742188 355.035156 95.671875 357.882812 L 97.046875 357.882812 C 100.902344 355.042969 104.71875 351.269531 108.339844 346.300781 Z M 251.382812 313.980469 C 251.4375 313.710938 251.5 313.445312 251.558594 313.179688 C 248.910156 313.164062 246.414062 313.167969 243.917969 313.289062 L 243.917969 314.09375 C 246.363281 313.96875 248.800781 313.96875 251.382812 313.980469 Z M 357.878906 325.085938 C 349.691406 321.324219 340.410156 317.058594 327.203125 320.496094 C 324.941406 321.082031 322.773438 321.796875 320.675781 322.605469 C 320.660156 322.902344 320.632812 323.195312 320.609375 323.488281 C 322.792969 322.636719 325.046875 321.882812 327.402344 321.269531 C 340.332031 317.90625 349.480469 322.105469 357.542969 325.8125 C 363.527344 328.5625 368.851562 331.003906 374.742188 330.164062 C 374.753906 329.886719 374.765625 329.617188 374.777344 329.335938 C 369.027344 330.203125 363.785156 327.796875 357.878906 325.085938 Z M 259.300781 344.335938 C 259.453125 344.359375 259.601562 344.375 259.753906 344.394531 C 259.484375 344.101562 259.222656 343.792969 258.964844 343.488281 C 240.957031 340.996094 218.320312 350.203125 203.21875 357.882812 L 204.992188 357.882812 C 220.09375 350.34375 241.960938 341.738281 259.300781 344.335938 Z M 182.617188 78.730469 C 184.164062 76.003906 186.875 68.714844 184.304688 66.855469 C 183.398438 66.199219 181.8125 65.894531 180.144531 65.78125 C 180.144531 65.78125 179.957031 65.671875 179.644531 65.503906 C 178.695312 67.21875 178.171875 69.203125 178.242188 71.3125 C 178.242188 71.363281 178.246094 71.417969 178.246094 71.46875 C 178.261719 71.914062 178.261719 72.363281 178.257812 72.808594 C 177.304688 73.765625 175.410156 75.898438 176.347656 77.015625 C 177 77.800781 177.640625 78.121094 178.101562 78.261719 C 178.105469 80.507812 178.367188 82.503906 179.535156 83.964844 C 180.84375 85.601562 183.90625 86.398438 186.578125 86.375 C 184.074219 84.855469 181.167969 81.273438 182.617188 78.730469 Z M 187.085938 86.660156 C 187.078125 86.65625 187.070312 86.652344 187.0625 86.648438 C 186.640625 86.644531 186.171875 86.632812 185.675781 86.617188 C 186.769531 88.886719 187.171875 92.378906 187.476562 95.40625 C 187.476562 95.40625 187.46875 95.421875 187.457031 95.445312 C 189.421875 92.199219 193.75 89.851562 203.148438 89.851562 C 203.394531 89.851562 203.636719 89.875 203.878906 89.898438 C 203.078125 88.710938 202.445312 87.421875 201.976562 86.074219 C 196.375 86.746094 188.695312 87.472656 187.085938 86.660156 Z M 277.011719 242.222656 C 258.027344 235.390625 221.410156 243.28125 213.792969 257.882812 C 208.097656 268.808594 212.164062 279.859375 215.34375 285.800781 C 216.566406 288.089844 219.613281 288.613281 221.527344 286.863281 C 227.140625 281.71875 239.535156 272.199219 257.238281 268.804688 C 268.457031 266.65625 292.523438 269.699219 303.636719 271.320312 C 305.933594 271.652344 307.503906 269.070312 306.15625 267.175781 C 301.035156 259.964844 290.382812 247.035156 277.011719 242.222656 Z M 109.726562 128.914062 C 109.726562 135.515625 115.074219 140.871094 121.671875 140.871094 L 121.671875 116.957031 C 115.074219 116.957031 109.726562 122.308594 109.726562 128.914062 Z M 310.335938 213.527344 C 308.097656 214.273438 304.46875 224.625 304.46875 224.625 L 311.113281 228.644531 L 322.210938 213.957031 C 322.210938 213.957031 312.574219 212.78125 310.335938 213.527344 Z M 98.476562 168.0625 C 98.476562 168.429688 98.546875 168.78125 98.652344 169.113281 L 97.117188 169.113281 C 96.015625 169.113281 95.257812 168.019531 95.640625 166.992188 L 97.621094 161.667969 L 93.769531 148.539062 C 93.707031 148.328125 93.675781 148.109375 93.675781 147.890625 L 93.675781 146.46875 C 93.675781 145.199219 94.703125 144.164062 95.976562 144.164062 L 98.488281 144.164062 C 98.488281 144.210938 98.476562 144.253906 98.476562 144.296875 L 98.476562 168.0625 " fill-opacity="1" fill-rule="nonzero"/></g><g clip-path="url(#id3)"><path fill="rgb(86.268616%, 26.669312%, 64.709473%)" d="M 277.796875 27.066406 L 275.964844 26.210938 L 276.972656 24.046875 L 287.171875 28.816406 L 292.503906 17.394531 L 294.570312 18.359375 L 289.242188 29.78125 L 299.441406 34.546875 L 298.433594 36.710938 L 287.199219 31.457031 Z M 307.261719 61.398438 C 308.101562 59.71875 310.140625 59.035156 311.820312 59.875 C 313.5 60.714844 314.183594 62.757812 313.34375 64.4375 C 312.507812 66.117188 310.464844 66.800781 308.78125 65.964844 C 307.105469 65.125 306.421875 63.082031 307.261719 61.398438 Z M 296.671875 61.589844 L 319.554688 73.023438 L 321.894531 62.78125 L 303.449219 53.5625 L 302.09375 55.167969 L 300.875 56.609375 L 300.015625 57.628906 L 298.828125 59.039062 Z M 253.3125 80.261719 C 251.457031 80.554688 249.71875 79.285156 249.421875 77.429688 C 249.128906 75.574219 250.394531 73.832031 252.25 73.539062 C 254.101562 73.242188 255.84375 74.511719 256.140625 76.367188 C 256.433594 78.222656 255.167969 79.964844 253.3125 80.261719 Z M 269.898438 68.8125 L 234.003906 74.503906 L 231.285156 85.273438 L 275.808594 78.214844 Z M 344.308594 181.777344 L 349.902344 181.777344 L 349.902344 195.152344 C 349.902344 199.867188 346.082031 203.6875 341.371094 203.6875 L 257.761719 203.6875 C 255.613281 203.6875 253.65625 202.886719 252.15625 201.578125 C 250.367188 200.011719 249.230469 197.71875 249.230469 195.152344 L 249.230469 181.777344 Z M 303.605469 154.78125 C 303.558594 154.742188 303.507812 154.699219 303.460938 154.65625 C 303.507812 154.699219 303.558594 154.742188 303.605469 154.78125 Z M 303.066406 152.535156 C 302.898438 152.804688 302.816406 153.105469 302.820312 153.402344 C 302.816406 153.105469 302.898438 152.804688 303.066406 152.535156 Z M 302.203125 160.226562 C 302.042969 160.214844 301.921875 160.140625 301.820312 159.945312 C 301.921875 160.140625 302.042969 160.214844 302.203125 160.226562 Z M 314.207031 153.234375 C 314.152344 152.652344 313.773438 152.105469 313.140625 151.820312 C 313.773438 152.105469 314.152344 152.652344 314.207031 153.234375 Z M 308.535156 165.0625 C 309.15625 165.433594 309.882812 165.640625 310.640625 165.632812 C 309.882812 165.640625 309.15625 165.433594 308.535156 165.0625 Z M 312.765625 165.023438 C 312.300781 165.304688 311.773438 165.503906 311.210938 165.585938 C 311.773438 165.503906 312.300781 165.304688 312.765625 165.023438 Z M 308.535156 165.0625 C 307.703125 164.570312 307.046875 163.792969 306.730469 162.863281 C 307.046875 163.792969 307.703125 164.570312 308.535156 165.0625 Z M 294.296875 148.859375 C 294.300781 148.832031 294.296875 148.796875 294.273438 148.761719 C 294.296875 148.796875 294.300781 148.832031 294.296875 148.859375 Z M 294.296875 148.859375 C 294.289062 148.890625 294.273438 148.914062 294.257812 148.9375 C 294.273438 148.914062 294.289062 148.890625 294.296875 148.859375 Z M 289.785156 160.296875 C 289.925781 160.511719 290.011719 160.773438 290.007812 161.054688 C 290.011719 160.773438 289.925781 160.511719 289.785156 160.296875 Z M 289.609375 162.007812 C 289.855469 161.765625 290.003906 161.429688 290.007812 161.054688 C 290.003906 161.429688 289.855469 161.765625 289.609375 162.007812 Z M 296.996094 148.632812 C 296.980469 148.84375 296.910156 149.015625 296.839844 149.183594 C 296.910156 149.015625 296.980469 148.84375 296.996094 148.632812 Z M 296.859375 146.421875 C 297.0625 146.5 297.234375 146.640625 297.347656 146.816406 C 297.234375 146.640625 297.0625 146.5 296.859375 146.421875 Z M 302.949219 155.984375 C 302.886719 156.214844 302.839844 156.457031 302.84375 156.710938 C 302.839844 156.457031 302.886719 156.214844 302.949219 155.984375 Z M 293.933594 161.152344 C 293.824219 160.746094 293.710938 160.34375 293.589844 159.945312 C 293.710938 160.34375 293.824219 160.746094 293.933594 161.152344 Z M 292.066406 156.550781 C 292.175781 156.519531 292.257812 156.503906 292.328125 156.507812 C 292.257812 156.503906 292.175781 156.519531 292.066406 156.550781 Z M 292.363281 162.777344 C 292.59375 162.257812 292.738281 161.679688 292.792969 161.019531 C 292.738281 161.679688 292.59375 162.257812 292.363281 162.777344 Z M 284.863281 162.554688 C 284.992188 162.859375 285.144531 163.164062 285.359375 163.472656 C 285.144531 163.164062 284.992188 162.859375 284.863281 162.554688 Z M 349.902344 116.96875 L 349.902344 130.761719 L 249.632812 130.761719 L 249.632812 127.691406 C 249.632812 127.328125 249.453125 127.03125 249.230469 127.03125 L 249.230469 116.96875 C 249.230469 109.214844 253.046875 102.933594 257.761719 102.933594 L 341.371094 102.933594 C 346.082031 102.933594 349.902344 109.214844 349.902344 116.96875 Z M 49.144531 335.730469 C 40.953125 335.730469 34.308594 329.082031 34.308594 320.882812 C 34.308594 312.683594 40.953125 306.035156 49.144531 306.035156 C 49.296875 306.035156 49.445312 306.054688 49.597656 306.058594 C 52.542969 306.148438 55.277344 307.085938 57.550781 308.652344 C 61.433594 311.332031 63.980469 315.808594 63.980469 320.882812 C 63.980469 329.082031 57.339844 335.730469 49.144531 335.730469 Z M 64.082031 302.515625 L 63.113281 291.664062 C 60.371094 290.769531 57.730469 289.757812 55.308594 288.609375 L 49.003906 299.089844 C 48.207031 298.996094 47.421875 298.917969 46.601562 298.917969 C 35.015625 298.917969 25.011719 309.097656 25.011719 320.695312 C 25.011719 332.292969 36.042969 344.195312 47.632812 344.195312 C 59.21875 344.195312 72.476562 335.210938 72.476562 323.613281 C 72.476562 315.792969 70.414062 306.132812 64.082031 302.515625 Z M 129.332031 290.476562 C 126.839844 289.523438 124.765625 288.460938 123.175781 287.382812 C 126.449219 287.734375 129.105469 288.425781 129.988281 287.417969 C 131.839844 285.320312 133.691406 277.539062 133.691406 277.539062 L 136.207031 277.539062 L 143.507812 275.335938 C 142.210938 256.097656 143.066406 196.804688 158.15625 190.691406 C 165.738281 187.621094 180.429688 183.328125 195.351562 179.824219 C 195.351562 179.824219 199.105469 179.964844 204.640625 179.960938 C 204.695312 180.796875 204.929688 181.605469 205.289062 182.363281 C 205.726562 183.304688 206.390625 184.128906 207.164062 184.816406 C 207.957031 185.480469 208.855469 186.007812 209.804688 186.375 C 210.273438 186.566406 210.773438 186.683594 211.253906 186.839844 C 211.75 186.925781 212.242188 187.019531 212.742188 187.085938 C 212.824219 187.097656 212.90625 187.050781 212.933594 186.96875 C 212.96875 186.875 212.921875 186.769531 212.828125 186.738281 L 212.808594 186.730469 C 212.347656 186.5625 211.878906 186.433594 211.417969 186.277344 C 210.972656 186.089844 210.511719 185.941406 210.085938 185.726562 C 209.21875 185.308594 208.40625 184.820312 207.683594 184.210938 C 206.972656 183.59375 206.363281 182.871094 205.890625 182.050781 C 205.515625 181.410156 205.226562 180.695312 205.050781 179.960938 C 215.425781 179.945312 231.722656 179.4375 241.695312 176.703125 C 245.640625 182.96875 244.257812 197.234375 242.785156 201.878906 C 242.519531 202.714844 242.253906 203.253906 242.011719 203.355469 C 241.683594 203.503906 238.839844 203.914062 234.472656 204.480469 C 216.160156 206.867188 170.949219 212.035156 170.949219 212.035156 C 170.949219 212.035156 170.992188 212.167969 171.0625 212.417969 C 171.804688 214.9375 175.851562 229.664062 172.703125 239.777344 C 171.191406 244.621094 168.382812 253.515625 165.695312 262.003906 C 165.613281 262.265625 165.53125 262.523438 165.449219 262.78125 C 163.1875 269.929688 161.042969 276.6875 159.871094 280.375 L 146.488281 280.375 C 146.488281 280.375 144.636719 288.15625 142.785156 290.253906 C 141.34375 291.894531 135.191406 289.015625 129.332031 290.476562 Z M 285.707031 306.035156 C 293.898438 306.035156 300.542969 312.683594 300.542969 320.882812 C 300.542969 329.082031 293.898438 335.730469 285.707031 335.730469 C 277.515625 335.730469 270.871094 329.082031 270.871094 320.882812 C 270.871094 312.683594 277.515625 306.035156 285.707031 306.035156 Z M 299.617188 280.574219 C 293.136719 280.570312 284.632812 280.5625 277.425781 280.5625 L 276.210938 276.847656 C 273.25 277.019531 270.40625 277.367188 267.730469 277.835938 L 268.625 280.570312 C 265.992188 280.574219 264.050781 280.578125 263.214844 280.585938 C 259.765625 280.625 252.917969 285.113281 249.25 287.703125 C 248.109375 288.511719 246.8125 289.050781 245.457031 289.3125 C 244.730469 291.75 243.097656 294.800781 239.507812 297.503906 L 240.695312 297.503906 C 244.433594 297.503906 247.851562 299.609375 249.53125 302.949219 C 250.410156 304.695312 251.992188 305.933594 253.828125 306.40625 C 257.347656 298.65625 263.601562 292.417969 271.359375 288.921875 L 272.453125 301.660156 C 265.878906 305.207031 262 312.699219 262 320.695312 L 250.699219 320.882812 L 243.917969 320.882812 L 243.917969 309.15625 C 243.917969 307.167969 242.308594 305.554688 240.320312 305.554688 L 219.769531 305.554688 C 202.335938 310.925781 176.867188 316.777344 156.660156 318.816406 C 130.183594 321.488281 119.089844 320.304688 105.425781 311.617188 L 105.425781 325.652344 C 105.425781 327.640625 107.039062 329.257812 109.023438 329.257812 L 251.710938 329.257812 L 262.855469 329.097656 C 266.089844 336.53125 277.207031 344.363281 285.820312 344.363281 C 297.40625 344.363281 309.808594 332.980469 309.808594 321.382812 C 309.808594 309.785156 298.949219 298.574219 287.359375 298.574219 C 286.710938 298.574219 279.347656 286.433594 279.347656 286.433594 C 281.410156 286.054688 283.535156 285.84375 285.707031 285.84375 C 294.210938 285.84375 302.003906 288.878906 308.066406 293.921875 L 308.484375 290.671875 C 309.167969 285.320312 305.007812 280.582031 299.617188 280.574219 " fill-opacity="1" fill-rule="nonzero"/></g><path fill="rgb(19.60907%, 14.898682%, 30.198669%)" d="M 296.046875 61.726562 C 296.148438 61.53125 296.386719 61.449219 296.582031 61.546875 L 296.671875 61.589844 L 319.554688 73.023438 L 319.640625 73.066406 C 319.839844 73.167969 319.917969 73.40625 319.820312 73.605469 C 319.75 73.746094 319.609375 73.828125 319.460938 73.828125 C 319.402344 73.828125 319.339844 73.8125 319.285156 73.78125 L 319.253906 73.769531 L 312.207031 70.246094 L 309.109375 68.703125 L 296.257812 62.28125 L 296.226562 62.261719 C 296.03125 62.167969 295.949219 61.925781 296.046875 61.726562 Z M 300.875 56.609375 L 304.085938 42.621094 C 304.148438 42.363281 304.40625 42.203125 304.664062 42.261719 C 304.921875 42.320312 305.085938 42.578125 305.023438 42.835938 L 305.023438 42.839844 L 302.09375 55.167969 Z M 300.015625 57.628906 L 298.828125 59.039062 L 302.75 41.957031 C 302.808594 41.695312 303.070312 41.53125 303.328125 41.589844 C 303.585938 41.652344 303.746094 41.910156 303.6875 42.167969 L 303.6875 42.171875 Z M 230.78125 85.757812 C 230.746094 85.539062 230.898438 85.335938 231.117188 85.300781 L 231.285156 85.273438 L 275.808594 78.214844 L 275.980469 78.1875 C 276.195312 78.152344 276.402344 78.300781 276.4375 78.519531 C 276.472656 78.738281 276.320312 78.945312 276.105469 78.976562 L 275.933594 79.003906 L 269.957031 79.953125 L 266.535156 80.496094 L 264.3125 80.847656 L 260.890625 81.390625 L 231.410156 86.066406 L 231.238281 86.09375 C 231.21875 86.09375 231.199219 86.09375 231.179688 86.09375 C 230.984375 86.09375 230.816406 85.957031 230.78125 85.757812 Z M 350.300781 120.261719 C 350.300781 120.484375 350.125 120.660156 349.902344 120.660156 L 249.632812 120.660156 L 249.632812 122.53125 C 249.632812 122.753906 249.453125 122.929688 249.230469 122.929688 C 249.011719 122.929688 248.828125 122.753906 248.828125 122.53125 L 248.828125 117.996094 C 248.828125 117.773438 249.011719 117.59375 249.230469 117.59375 C 249.453125 117.59375 249.632812 117.773438 249.632812 117.996094 L 249.632812 119.863281 L 349.902344 119.863281 C 350.125 119.863281 350.300781 120.042969 350.300781 120.261719 Z M 287.085938 203.6875 L 284.3125 208.679688 L 292.628906 208.679688 C 292.632812 208.679688 292.632812 208.679688 292.632812 208.679688 L 295.410156 203.6875 L 296.324219 203.6875 L 282.003906 229.457031 C 281.929688 229.589844 281.792969 229.664062 281.652344 229.664062 C 281.585938 229.664062 281.519531 229.644531 281.457031 229.613281 C 281.265625 229.503906 281.195312 229.261719 281.300781 229.066406 L 292.191406 209.476562 L 283.867188 209.476562 L 274.433594 226.453125 C 274.359375 226.585938 274.222656 226.65625 274.082031 226.65625 C 274.015625 226.65625 273.953125 226.640625 273.890625 226.609375 C 273.695312 226.5 273.625 226.253906 273.734375 226.0625 L 286.167969 203.6875 Z M 55.835938 316.410156 C 56.257812 317.082031 56.570312 317.808594 56.792969 318.5625 C 57 319.320312 57.082031 320.105469 57.078125 320.882812 C 57.078125 320.984375 57 321.066406 56.902344 321.066406 C 56.800781 321.066406 56.722656 320.980469 56.71875 320.882812 C 56.667969 317.886719 54.699219 315.097656 51.980469 314.039062 C 51.300781 313.777344 50.589844 313.617188 49.871094 313.53125 C 49.144531 313.480469 48.417969 313.511719 47.707031 313.648438 C 47 313.804688 46.316406 314.042969 45.675781 314.386719 C 45.042969 314.738281 44.464844 315.175781 43.945312 315.679688 C 43.4375 316.195312 43.003906 316.777344 42.648438 317.410156 C 42.308594 318.046875 42.066406 318.734375 41.910156 319.441406 C 41.773438 320.152344 41.738281 320.882812 41.792969 321.609375 C 41.875 322.328125 42.03125 323.042969 42.296875 323.726562 C 43.347656 326.453125 46.144531 328.4375 49.144531 328.488281 C 49.230469 328.488281 49.296875 328.558594 49.296875 328.644531 C 49.296875 328.726562 49.226562 328.792969 49.144531 328.796875 C 48.371094 328.796875 47.589844 328.714844 46.835938 328.511719 C 46.085938 328.289062 45.359375 327.976562 44.691406 327.558594 C 44.035156 327.125 43.4375 326.59375 42.917969 326 C 42.414062 325.390625 41.996094 324.707031 41.671875 323.984375 C 41.359375 323.25 41.164062 322.46875 41.070312 321.679688 C 41 320.882812 41.03125 320.082031 41.175781 319.296875 C 41.339844 318.515625 41.597656 317.753906 41.96875 317.042969 C 42.347656 316.339844 42.828125 315.691406 43.378906 315.113281 C 43.953125 314.554688 44.605469 314.078125 45.304688 313.695312 C 46.015625 313.320312 46.777344 313.0625 47.558594 312.898438 C 48.347656 312.753906 49.148438 312.722656 49.941406 312.789062 C 50.734375 312.882812 51.515625 313.074219 52.25 313.386719 C 52.976562 313.710938 53.65625 314.128906 54.269531 314.636719 C 54.871094 315.15625 55.398438 315.753906 55.835938 316.410156 Z M 288.542969 314.039062 C 287.863281 313.777344 287.148438 313.617188 286.433594 313.53125 C 285.707031 313.480469 284.980469 313.511719 284.269531 313.648438 C 283.5625 313.804688 282.878906 314.042969 282.238281 314.386719 C 281.605469 314.738281 281.027344 315.175781 280.507812 315.679688 C 280 316.195312 279.566406 316.777344 279.210938 317.410156 C 278.871094 318.046875 278.628906 318.734375 278.472656 319.441406 C 278.335938 320.152344 278.300781 320.882812 278.355469 321.609375 C 278.4375 322.328125 278.59375 323.042969 278.855469 323.726562 C 279.910156 326.453125 282.703125 328.4375 285.707031 328.488281 C 285.792969 328.488281 285.859375 328.558594 285.859375 328.644531 C 285.859375 328.726562 285.789062 328.792969 285.707031 328.796875 C 284.933594 328.796875 284.152344 328.714844 283.398438 328.511719 C 282.648438 328.289062 281.921875 327.976562 281.253906 327.558594 C 280.59375 327.125 280 326.59375 279.480469 326 C 278.976562 325.390625 278.558594 324.707031 278.234375 323.984375 C 277.921875 323.25 277.726562 322.46875 277.632812 321.679688 C 277.5625 320.882812 277.59375 320.082031 277.738281 319.296875 C 277.902344 318.515625 278.160156 317.753906 278.53125 317.042969 C 278.910156 316.339844 279.390625 315.691406 279.941406 315.113281 C 280.515625 314.554688 281.167969 314.078125 281.867188 313.695312 C 282.578125 313.320312 283.339844 313.0625 284.121094 312.898438 C 284.910156 312.753906 285.707031 312.722656 286.503906 312.789062 C 287.296875 312.882812 288.078125 313.074219 288.8125 313.386719 C 289.539062 313.710938 290.21875 314.128906 290.832031 314.636719 C 291.429688 315.15625 291.960938 315.753906 292.398438 316.410156 C 292.816406 317.082031 293.132812 317.808594 293.355469 318.5625 C 293.558594 319.320312 293.644531 320.105469 293.640625 320.882812 C 293.640625 320.984375 293.5625 321.066406 293.460938 321.066406 C 293.363281 321.066406 293.28125 320.980469 293.28125 320.882812 C 293.230469 317.886719 291.261719 315.097656 288.542969 314.039062 Z M 243.222656 233.992188 C 238.816406 234.710938 234.449219 235.695312 230.164062 236.945312 C 225.875 238.1875 221.625 239.625 217.550781 241.441406 L 217.539062 241.441406 C 217.464844 241.476562 217.375 241.441406 217.339844 241.363281 C 217.304688 241.289062 217.339844 241.199219 217.417969 241.164062 C 225.585938 237.425781 234.265625 234.875 243.121094 233.375 C 251.96875 231.875 261.078125 231.582031 269.980469 233.003906 C 271.085938 233.214844 272.203125 233.367188 273.296875 233.632812 L 276.578125 234.4375 C 278.734375 235.101562 280.894531 235.742188 282.972656 236.625 C 287.136719 238.328125 291.167969 240.421875 294.792969 243.105469 C 302.191406 248.289062 308.058594 255.390625 312.625 263.09375 C 312.671875 263.179688 312.648438 263.292969 312.558594 263.339844 C 312.476562 263.394531 312.367188 263.367188 312.316406 263.285156 L 312.3125 263.28125 C 309.898438 259.519531 307.390625 255.800781 304.335938 252.546875 L 303.222656 251.300781 C 303.035156 251.09375 302.855469 250.878906 302.664062 250.675781 L 302.054688 250.101562 L 299.640625 247.792969 C 298.835938 247.019531 297.929688 246.367188 297.078125 245.652344 L 295.78125 244.597656 C 295.339844 244.257812 294.867188 243.960938 294.414062 243.640625 C 290.816406 241.011719 286.820312 238.964844 282.699219 237.308594 C 280.648438 236.4375 278.507812 235.824219 276.378906 235.179688 L 273.132812 234.402344 C 272.050781 234.144531 270.941406 234.003906 269.851562 233.792969 C 261.0625 232.332031 252.027344 232.558594 243.222656 233.992188 Z M 242.324219 285.421875 C 242.359375 285.515625 242.304688 285.621094 242.210938 285.648438 L 242.207031 285.652344 C 238.800781 286.785156 235.59375 288.472656 232.457031 290.230469 C 230.886719 291.109375 229.332031 292.023438 227.796875 292.964844 L 225.507812 294.398438 C 224.738281 294.878906 224.023438 295.390625 223.183594 295.847656 C 221.507812 296.695312 219.617188 297.023438 217.773438 296.960938 C 215.921875 296.886719 214.082031 296.503906 212.394531 295.664062 C 211.984375 295.476562 211.550781 295.144531 211.210938 294.804688 C 210.894531 294.453125 210.574219 294.101562 210.320312 293.71875 C 210.039062 293.347656 209.78125 292.96875 209.546875 292.578125 C 209.300781 292.191406 209.054688 291.800781 208.84375 291.398438 C 207.929688 289.816406 207.160156 288.164062 206.441406 286.496094 C 205.050781 283.136719 203.929688 279.667969 203.136719 276.117188 C 202.363281 272.570312 201.925781 268.921875 202.128906 265.269531 C 202.199219 263.441406 202.550781 261.640625 202.957031 259.863281 C 203.441406 258.105469 204.007812 256.367188 204.777344 254.714844 C 206.3125 251.417969 208.3125 248.332031 210.835938 245.699219 C 210.890625 245.640625 210.988281 245.636719 211.046875 245.695312 C 211.109375 245.753906 211.113281 245.847656 211.054688 245.910156 L 211.046875 245.917969 C 208.628906 248.558594 206.707031 251.664062 205.269531 254.9375 C 204.53125 256.570312 203.988281 258.28125 203.523438 260.007812 C 203.140625 261.75 202.808594 263.515625 202.757812 265.300781 C 202.582031 268.875 203.039062 272.464844 203.832031 275.960938 C 204.640625 279.457031 205.777344 282.878906 207.175781 286.183594 C 207.882812 287.828125 208.625 289.46875 209.507812 291.019531 C 209.714844 291.417969 209.953125 291.792969 210.1875 292.171875 C 210.414062 292.554688 210.660156 292.921875 210.921875 293.273438 C 211.167969 293.648438 211.457031 293.964844 211.738281 294.285156 C 212.039062 294.578125 212.324219 294.816406 212.730469 295.015625 C 214.277344 295.800781 216.046875 296.1875 217.796875 296.265625 C 219.546875 296.335938 221.328125 296.035156 222.886719 295.261719 C 228.957031 291.5 235.175781 287.558594 242.097656 285.304688 C 242.195312 285.277344 242.296875 285.324219 242.324219 285.421875 Z M 191.984375 257.8125 C 192.457031 259.601562 192.519531 261.476562 192.289062 263.304688 C 192.027344 265.125 191.492188 266.890625 190.769531 268.558594 C 190.042969 270.230469 189.160156 271.816406 188.179688 273.332031 C 188.125 273.414062 188.011719 273.4375 187.929688 273.382812 C 187.851562 273.332031 187.824219 273.230469 187.867188 273.148438 C 188.675781 271.546875 189.472656 269.945312 190.117188 268.289062 C 190.757812 266.636719 191.273438 264.9375 191.5 263.195312 C 191.757812 261.460938 191.699219 259.683594 191.328125 257.96875 C 190.960938 256.261719 190.234375 254.617188 189.121094 253.238281 C 189.070312 253.171875 189.082031 253.074219 189.144531 253.023438 C 189.207031 252.972656 189.296875 252.980469 189.351562 253.03125 C 190.652344 254.328125 191.523438 256.03125 191.984375 257.8125 Z M 188.921875 266.546875 C 187.75 269.296875 185.816406 271.570312 183.820312 273.667969 C 183.753906 273.742188 183.636719 273.746094 183.566406 273.675781 C 183.496094 273.609375 183.488281 273.496094 183.550781 273.425781 C 184.492188 272.324219 185.402344 271.203125 186.207031 270.015625 C 187.027344 268.839844 187.746094 267.59375 188.265625 266.277344 C 189.308594 263.679688 189.5625 260.636719 188.359375 258.121094 C 187.796875 256.867188 186.796875 255.832031 185.84375 254.722656 C 184.886719 253.640625 183.960938 252.335938 183.628906 250.84375 C 183.257812 249.371094 183.296875 247.851562 183.535156 246.398438 C 183.785156 244.941406 184.230469 243.542969 184.722656 242.175781 C 184.75 242.09375 184.835938 242.054688 184.917969 242.082031 C 184.996094 242.109375 185.035156 242.195312 185.011719 242.269531 C 184.597656 243.65625 184.234375 245.054688 184.070312 246.476562 C 183.882812 247.890625 183.894531 249.332031 184.28125 250.667969 C 184.644531 252.023438 185.445312 253.167969 186.410156 254.230469 C 187.351562 255.308594 188.425781 256.378906 189.082031 257.777344 C 190.378906 260.578125 190.082031 263.832031 188.921875 266.546875 Z M 89.523438 297.199219 C 89.574219 297.273438 89.554688 297.378906 89.484375 297.4375 C 89.480469 297.4375 89.480469 297.445312 89.476562 297.449219 C 89.394531 297.507812 89.285156 297.484375 89.226562 297.40625 C 89.144531 297.292969 89.066406 297.179688 88.984375 297.070312 C 86.207031 293.296875 83.675781 289.335938 81.4375 285.214844 C 79.128906 280.96875 77.140625 276.550781 75.457031 272.019531 C 73.808594 267.476562 72.453125 262.820312 71.492188 258.082031 C 70.554688 253.496094 69.972656 248.839844 69.734375 244.164062 C 69.726562 244.019531 69.710938 243.871094 69.707031 243.726562 C 69.703125 243.640625 69.769531 243.570312 69.851562 243.5625 C 69.933594 243.5625 70.003906 243.621094 70.011719 243.703125 C 70.027344 243.890625 70.050781 244.074219 70.066406 244.257812 C 70.117188 244.832031 70.179688 245.402344 70.238281 245.972656 C 70.65625 249.996094 71.289062 254 72.15625 257.945312 C 73.191406 262.632812 74.527344 267.25 76.207031 271.746094 C 77.851562 276.25 79.828125 280.632812 82.058594 284.878906 C 84.296875 289.125 86.792969 293.238281 89.523438 297.199219 Z M 85.066406 252.699219 C 84.964844 247.84375 85.527344 242.957031 86.773438 238.246094 C 88.027344 233.535156 89.890625 228.984375 92.363281 224.773438 C 93.609375 222.679688 94.984375 220.660156 96.488281 218.746094 L 101.019531 213.074219 C 102.496094 211.171875 103.878906 209.195312 104.980469 207.066406 C 106.105469 204.949219 106.9375 202.667969 107.257812 200.285156 C 107.265625 200.199219 107.34375 200.140625 107.429688 200.152344 C 107.511719 200.164062 107.570312 200.238281 107.558594 200.320312 C 107.3125 202.757812 106.535156 205.117188 105.460938 207.3125 C 104.382812 209.503906 103.007812 211.535156 101.554688 213.484375 C 100.105469 215.4375 98.546875 217.292969 97.082031 219.207031 C 95.605469 221.113281 94.265625 223.105469 93.050781 225.179688 C 90.589844 229.3125 88.757812 233.800781 87.457031 238.429688 C 86.796875 240.742188 86.328125 243.109375 85.992188 245.492188 C 85.644531 247.878906 85.457031 250.285156 85.425781 252.699219 C 85.425781 252.796875 85.34375 252.878906 85.246094 252.875 C 85.148438 252.875 85.070312 252.796875 85.066406 252.699219 Z M 106.757812 164.574219 L 106.714844 156.707031 L 106.773438 148.835938 C 106.808594 146.210938 106.871094 143.585938 106.960938 140.964844 C 106.960938 140.882812 107.03125 140.8125 107.117188 140.816406 C 107.195312 140.820312 107.261719 140.882812 107.265625 140.964844 C 107.351562 143.585938 107.417969 146.210938 107.449219 148.835938 L 107.511719 156.707031 L 107.464844 164.574219 C 107.441406 166.914062 107.382812 169.246094 107.3125 171.582031 C 107.300781 171.871094 107.300781 172.160156 107.292969 172.445312 C 107.289062 172.546875 107.207031 172.625 107.105469 172.621094 C 107.007812 172.617188 106.933594 172.539062 106.929688 172.445312 C 106.921875 172.160156 106.921875 171.871094 106.914062 171.582031 C 106.84375 169.246094 106.785156 166.914062 106.757812 164.574219 Z M 133.019531 155.03125 C 132.871094 153.804688 132.769531 152.574219 132.753906 151.339844 C 132.753906 151.257812 132.820312 151.1875 132.90625 151.183594 C 132.980469 151.183594 133.046875 151.242188 133.058594 151.3125 L 133.683594 154.929688 C 133.910156 156.132812 134.125 157.332031 134.402344 158.519531 C 134.640625 159.71875 134.929688 160.902344 135.21875 162.089844 L 136.125 165.644531 C 136.148438 165.742188 136.089844 165.84375 135.992188 165.867188 C 135.90625 165.890625 135.8125 165.84375 135.777344 165.761719 C 135.296875 164.625 134.898438 163.457031 134.535156 162.277344 C 134.179688 161.09375 133.890625 159.894531 133.621094 158.6875 C 133.386719 157.472656 133.164062 156.257812 133.019531 155.03125 Z M 201.320312 92.929688 C 201.320312 93.019531 201.257812 93.097656 201.171875 93.113281 C 199.984375 93.34375 198.804688 93.585938 197.652344 93.910156 C 196.496094 94.230469 195.351562 94.585938 194.242188 95.039062 C 193.117188 95.453125 192.039062 95.96875 190.96875 96.511719 C 190.433594 96.78125 189.929688 97.074219 189.496094 97.449219 C 189.320312 97.597656 189.160156 97.769531 189.019531 97.949219 C 188.820312 98.210938 188.667969 98.503906 188.597656 98.832031 C 188.582031 98.914062 188.5 98.96875 188.417969 98.953125 C 188.34375 98.9375 188.292969 98.871094 188.296875 98.796875 C 188.300781 98.6875 188.324219 98.582031 188.347656 98.480469 C 188.453125 97.9375 188.757812 97.445312 189.128906 97.058594 C 189.578125 96.597656 190.109375 96.238281 190.640625 95.921875 C 191.699219 95.289062 192.8125 94.761719 193.949219 94.292969 C 196.246094 93.410156 198.679688 92.832031 201.132812 92.753906 C 201.234375 92.75 201.316406 92.832031 201.320312 92.929688 Z M 172.914062 141.304688 C 172.363281 140.449219 171.964844 139.488281 171.769531 138.480469 C 171.761719 138.4375 171.765625 138.390625 171.769531 138.347656 C 171.792969 138.1875 171.914062 138.050781 172.082031 138.015625 C 172.164062 138 172.246094 138.015625 172.316406 138.046875 C 172.375 138.074219 172.429688 138.109375 172.46875 138.15625 C 172.871094 138.65625 173.535156 138.984375 174.226562 139.230469 C 174.921875 139.464844 175.667969 139.613281 176.421875 139.71875 C 176.523438 139.730469 176.59375 139.820312 176.578125 139.917969 C 176.570312 140.007812 176.496094 140.074219 176.410156 140.078125 C 175.621094 140.132812 174.824219 140.078125 174.035156 139.882812 C 173.644531 139.785156 173.242188 139.65625 172.867188 139.457031 C 173.042969 139.964844 173.257812 140.464844 173.519531 140.941406 C 173.964844 141.769531 174.546875 142.523438 175.214844 143.214844 C 175.273438 143.277344 175.273438 143.375 175.210938 143.433594 C 175.160156 143.484375 175.082031 143.492188 175.023438 143.453125 C 174.179688 142.902344 173.476562 142.152344 172.914062 141.304688 Z M 212.828125 186.738281 C 212.921875 186.769531 212.96875 186.875 212.933594 186.96875 C 212.90625 187.050781 212.824219 187.097656 212.742188 187.085938 C 212.242188 187.019531 211.75 186.925781 211.253906 186.839844 C 210.773438 186.683594 210.273438 186.566406 209.804688 186.375 C 208.855469 186.007812 207.957031 185.480469 207.164062 184.816406 C 206.390625 184.128906 205.726562 183.304688 205.289062 182.363281 C 204.929688 181.605469 204.695312 180.796875 204.640625 179.960938 C 204.628906 179.769531 204.617188 179.578125 204.625 179.378906 C 204.628906 179.296875 204.699219 179.230469 204.785156 179.238281 C 204.859375 179.238281 204.917969 179.292969 204.929688 179.363281 L 204.929688 179.378906 C 204.960938 179.578125 205.003906 179.769531 205.050781 179.960938 C 205.226562 180.695312 205.515625 181.410156 205.890625 182.050781 C 206.363281 182.871094 206.972656 183.59375 207.683594 184.210938 C 208.40625 184.820312 209.21875 185.308594 210.085938 185.726562 C 210.511719 185.941406 210.972656 186.089844 211.417969 186.277344 C 211.878906 186.433594 212.347656 186.5625 212.808594 186.730469 Z M 206.710938 176.671875 C 210.539062 176.558594 214.363281 176.375 218.179688 176.074219 C 222 175.792969 225.8125 175.414062 229.621094 174.992188 C 231.523438 174.785156 233.425781 174.558594 235.328125 174.308594 C 237.226562 174.082031 239.125 173.828125 241.015625 173.546875 C 241.019531 173.546875 241.019531 173.546875 241.023438 173.542969 C 241.105469 173.53125 241.183594 173.585938 241.199219 173.671875 C 241.210938 173.746094 241.15625 173.820312 241.082031 173.839844 C 241.078125 173.839844 241.078125 173.84375 241.074219 173.84375 C 237.300781 174.570312 233.507812 175.164062 229.703125 175.664062 C 225.894531 176.167969 222.070312 176.546875 218.242188 176.871094 C 214.410156 177.144531 210.566406 177.332031 206.722656 177.382812 C 202.878906 177.402344 199.03125 177.261719 195.203125 176.894531 C 195.105469 176.886719 195.03125 176.796875 195.039062 176.695312 C 195.050781 176.601562 195.132812 176.53125 195.226562 176.53125 L 195.234375 176.53125 C 197.148438 176.605469 199.058594 176.71875 200.972656 176.703125 C 202.886719 176.757812 204.800781 176.695312 206.710938 176.671875 Z M 202.613281 114.511719 C 203.007812 111.953125 203.113281 109.363281 202.550781 106.875 C 202.011719 104.378906 200.675781 102.105469 198.886719 100.28125 C 197.101562 98.453125 194.859375 97.027344 192.445312 96.167969 L 192.433594 96.164062 C 192.375 96.144531 192.347656 96.089844 192.34375 96.03125 C 192.339844 96.011719 192.332031 95.992188 192.339844 95.96875 C 192.367188 95.890625 192.453125 95.851562 192.53125 95.875 C 192.566406 95.886719 192.597656 95.898438 192.632812 95.910156 C 195.105469 96.726562 197.378906 98.089844 199.265625 99.898438 C 201.15625 101.75 202.597656 104.113281 203.203125 106.714844 C 203.855469 109.3125 203.734375 112.03125 203.355469 114.609375 C 203.203125 115.914062 202.945312 117.199219 202.726562 118.488281 C 202.449219 119.765625 202.214844 121.054688 201.90625 122.324219 C 200.703125 127.410156 199.269531 132.425781 197.710938 137.402344 C 196.933594 139.894531 196.113281 142.367188 195.285156 144.839844 C 194.59375 146.824219 193.890625 148.800781 193.175781 150.777344 C 193 151.253906 192.835938 151.730469 192.660156 152.207031 C 192.625 152.300781 192.519531 152.347656 192.425781 152.3125 C 192.332031 152.277344 192.285156 152.175781 192.316406 152.085938 C 192.34375 152.003906 192.367188 151.921875 192.394531 151.839844 C 194.015625 146.984375 195.5625 142.097656 197.035156 137.195312 C 198.523438 132.210938 199.960938 127.203125 201.132812 122.140625 C 201.445312 120.882812 201.683594 119.605469 201.964844 118.339844 C 202.1875 117.0625 202.457031 115.792969 202.613281 114.511719 Z M 189.449219 72.015625 C 189.417969 71.710938 189.425781 71.417969 189.425781 71.128906 C 189.421875 70.839844 189.441406 70.554688 189.449219 70.269531 C 189.46875 69.984375 189.472656 69.699219 189.503906 69.410156 C 189.527344 69.117188 189.546875 68.828125 189.601562 68.523438 C 189.617188 68.4375 189.699219 68.378906 189.789062 68.394531 C 189.839844 68.402344 189.882812 68.4375 189.90625 68.480469 C 190.046875 68.765625 190.121094 69.066406 190.175781 69.375 C 190.238281 69.679688 190.25 69.988281 190.246094 70.300781 C 190.234375 70.609375 190.207031 70.914062 190.128906 71.21875 C 190.054688 71.519531 189.960938 71.816406 189.804688 72.089844 C 189.753906 72.183594 189.636719 72.214844 189.546875 72.164062 C 189.492188 72.132812 189.457031 72.074219 189.449219 72.015625 Z M 187.78125 72.640625 C 187.726562 72.605469 187.691406 72.542969 187.691406 72.480469 C 187.691406 72.148438 187.722656 71.832031 187.746094 71.515625 L 187.820312 70.582031 L 187.910156 69.644531 C 187.9375 69.328125 187.960938 69.011719 188.019531 68.679688 C 188.03125 68.59375 188.113281 68.535156 188.203125 68.550781 C 188.253906 68.558594 188.300781 68.597656 188.324219 68.640625 C 188.460938 68.957031 188.535156 69.292969 188.582031 69.628906 C 188.636719 69.960938 188.636719 70.304688 188.617188 70.644531 C 188.589844 70.984375 188.542969 71.320312 188.441406 71.644531 C 188.347656 71.972656 188.226562 72.289062 188.039062 72.582031 C 187.984375 72.671875 187.867188 72.699219 187.78125 72.640625 Z M 186.246094 72.859375 C 186.191406 72.820312 186.164062 72.757812 186.167969 72.691406 C 186.179688 72.359375 186.21875 72.042969 186.25 71.726562 L 186.351562 70.785156 L 186.449219 69.84375 C 186.480469 69.527344 186.503906 69.210938 186.554688 68.875 C 186.566406 68.789062 186.648438 68.726562 186.738281 68.742188 C 186.789062 68.75 186.835938 68.785156 186.859375 68.832031 C 187 69.152344 187.074219 69.492188 187.121094 69.832031 C 187.175781 70.171875 187.167969 70.519531 187.144531 70.863281 C 187.109375 71.207031 187.054688 71.546875 186.941406 71.875 C 186.835938 72.203125 186.707031 72.519531 186.507812 72.808594 C 186.449219 72.894531 186.332031 72.917969 186.246094 72.859375 Z M 180.609375 80.03125 C 180.613281 80.046875 180.613281 80.058594 180.617188 80.074219 C 180.636719 80.34375 180.519531 80.53125 180.378906 80.695312 C 180.238281 80.859375 180.054688 80.964844 179.875 81.035156 C 179.691406 81.101562 179.507812 81.140625 179.320312 81.132812 C 179.136719 81.132812 178.953125 81.105469 178.777344 81.019531 C 178.675781 80.972656 178.632812 80.847656 178.679688 80.746094 C 178.695312 80.710938 178.722656 80.683594 178.753906 80.660156 L 178.761719 80.660156 C 179.066406 80.460938 179.347656 80.382812 179.597656 80.285156 C 179.730469 80.25 179.839844 80.195312 179.964844 80.160156 C 180.082031 80.121094 180.203125 80.054688 180.320312 80.003906 L 180.433594 79.957031 C 180.5 79.933594 180.578125 79.964844 180.609375 80.03125 Z M 188.695312 82.679688 C 188.703125 82.589844 188.785156 82.519531 188.878906 82.519531 C 190.515625 82.53125 192.144531 82.566406 193.773438 82.554688 C 195.398438 82.519531 197.023438 82.496094 198.640625 82.347656 C 200.265625 82.253906 201.871094 82.039062 203.464844 81.757812 C 205.046875 81.460938 206.652344 81.09375 208.09375 80.425781 L 208.117188 80.417969 C 208.148438 80.402344 208.183594 80.40625 208.214844 80.414062 C 208.257812 80.425781 208.296875 80.449219 208.316406 80.492188 C 208.351562 80.5625 208.324219 80.648438 208.257812 80.683594 C 208.214844 80.710938 208.167969 80.730469 208.121094 80.757812 C 206.710938 81.597656 205.160156 82.046875 203.601562 82.421875 C 201.988281 82.789062 200.347656 83.003906 198.703125 83.140625 C 197.054688 83.265625 195.410156 83.292969 193.765625 83.257812 L 191.300781 83.132812 C 190.484375 83.046875 189.667969 82.980469 188.851562 82.882812 C 188.753906 82.871094 188.679688 82.777344 188.695312 82.679688 Z M 180.46875 72.832031 C 180.46875 72.300781 180.730469 71.867188 181.054688 71.867188 C 181.378906 71.867188 181.640625 72.300781 181.640625 72.832031 C 181.640625 73.359375 181.378906 73.789062 181.054688 73.789062 C 180.730469 73.789062 180.46875 73.359375 180.46875 72.832031 Z M 119.117188 155.851562 C 119.117188 157.257812 117.980469 158.394531 116.578125 158.394531 C 115.175781 158.394531 114.039062 157.257812 114.039062 155.851562 C 114.039062 154.449219 115.175781 153.3125 116.578125 153.3125 C 117.980469 153.3125 119.117188 154.449219 119.117188 155.851562 Z M 110.207031 160.984375 C 109.769531 160.382812 107.964844 155.949219 108.019531 155.074219 C 108.074219 154.199219 110.917969 150.476562 112.996094 149.710938 C 115.070312 148.945312 118.679688 147.960938 121.855469 149.710938 C 122.644531 150.148438 123.589844 150.503906 124.5625 150.792969 C 127.054688 151.527344 129.714844 151.816406 130.433594 151.882812 C 130.457031 152.269531 130.71875 156.878906 131.253906 160.800781 C 131.382812 161.75 131.527344 162.652344 131.6875 163.445312 L 128.574219 163.160156 C 128.574219 163.160156 128.316406 163.554688 127.214844 164.65625 C 126.710938 165.164062 125.660156 165.347656 124.5625 165.363281 L 124.5625 161.683594 C 123.246094 162.542969 119.832031 162 118.84375 161.546875 C 118.375 161.332031 117.636719 160.523438 116.96875 159.707031 C 118.929688 159.507812 120.46875 157.867188 120.46875 155.851562 C 120.46875 153.703125 118.726562 151.960938 116.578125 151.960938 C 114.429688 151.960938 112.691406 153.703125 112.691406 155.851562 C 112.691406 157.628906 113.890625 159.117188 115.519531 159.578125 C 115.386719 159.996094 115.152344 160.269531 114.855469 160.21875 C 114.199219 160.109375 113.050781 159.34375 113.050781 159.34375 C 113.050781 159.34375 112.667969 160.765625 112.011719 161.257812 C 111.355469 161.75 110.640625 161.585938 110.207031 160.984375 Z M 147.273438 277.539062 L 136.207031 277.539062 C 136.207031 277.539062 135.894531 270.867188 135.894531 261.246094 C 135.894531 260.976562 135.894531 260.710938 135.894531 260.441406 C 135.941406 236.960938 137.894531 197.054688 150.4375 191.972656 C 159.320312 188.371094 177.960938 183.101562 195.300781 179.382812 C 195.332031 179.664062 195.351562 179.824219 195.351562 179.824219 C 180.429688 183.328125 165.738281 187.621094 158.15625 190.691406 C 143.066406 196.804688 145.980469 258.296875 147.273438 277.539062 Z M 285.707031 315.742188 C 288.542969 315.742188 290.839844 318.046875 290.839844 320.882812 C 290.839844 323.722656 288.542969 326.019531 285.707031 326.019531 C 282.871094 326.019531 280.574219 323.722656 280.574219 320.882812 C 280.574219 318.046875 282.871094 315.742188 285.707031 315.742188 Z M 49.144531 315.742188 C 51.980469 315.742188 54.28125 318.046875 54.28125 320.882812 C 54.28125 323.722656 51.980469 326.019531 49.144531 326.019531 C 46.308594 326.019531 44.011719 323.722656 44.011719 320.882812 C 44.011719 318.046875 46.308594 315.742188 49.144531 315.742188 Z M 119.210938 140.871094 L 119.210938 117.136719 C 119.210938 116.917969 119.390625 116.738281 119.609375 116.738281 C 119.816406 116.738281 119.976562 116.890625 120.003906 117.085938 C 120.003906 117.105469 120.011719 117.121094 120.011719 117.136719 L 120.011719 140.871094 C 120.011719 141.089844 119.832031 141.269531 119.609375 141.269531 C 119.390625 141.269531 119.210938 141.089844 119.210938 140.871094 Z M 110.65625 145.367188 C 110.65625 145.367188 112.09375 142.566406 113.375 142.566406 C 113.582031 142.566406 113.816406 142.589844 114.046875 142.625 L 115.070312 138.875 C 115.304688 139.027344 115.539062 139.167969 115.785156 139.308594 L 114.832031 142.78125 C 115.757812 143.011719 116.578125 143.335938 116.578125 143.335938 L 116.578125 146.726562 C 116.578125 146.726562 114.65625 148.410156 110.65625 145.367188 Z M 176.59375 289.628906 L 177.484375 301.671875 C 177.484375 301.671875 127.855469 319.859375 100.398438 282.070312 C 72.9375 244.285156 108.378906 213.285156 110.695312 204.265625 C 113.007812 195.25 113.007812 195.25 113.007812 195.25 L 120.074219 202.316406 L 120.34375 202.589844 C 121.351562 203.597656 121.679688 205.089844 121.1875 206.421875 C 118.71875 213.0625 111.734375 233.957031 113.441406 253.558594 C 113.726562 256.863281 113.957031 259.765625 114.167969 262.339844 C 114.191406 262.609375 114.214844 262.890625 114.234375 263.152344 C 115.472656 278.375 115.921875 281.597656 122.019531 286.535156 C 122.367188 286.820312 122.761719 287.101562 123.175781 287.382812 C 124.765625 288.460938 126.839844 289.523438 129.332031 290.476562 C 135.191406 289.015625 141.34375 291.894531 142.785156 290.253906 C 144.636719 288.15625 146.488281 280.375 146.488281 280.375 L 161.300781 280.375 C 161.300781 280.375 159.203125 286.675781 160.433594 290.253906 C 160.75 291.167969 161.003906 292.261719 161.199219 293.386719 C 166.089844 292.699219 171.226562 291.511719 176.519531 289.652344 C 176.542969 289.644531 176.570312 289.636719 176.59375 289.628906 Z M 264.730469 320.882812 L 250.699219 320.882812 C 250.699219 318.519531 250.9375 316.210938 251.382812 313.980469 C 251.4375 313.710938 251.5 313.445312 251.558594 313.179688 C 252.085938 310.824219 252.851562 308.558594 253.828125 306.40625 C 257.347656 298.65625 263.601562 292.417969 271.359375 288.921875 L 275.769531 302.390625 C 269.195312 305.9375 264.730469 312.886719 264.730469 320.882812 Z M 314.238281 300.589844 C 318.3125 306.316406 320.71875 313.316406 320.71875 320.882812 C 320.71875 321.460938 320.699219 322.035156 320.675781 322.605469 C 320.660156 322.902344 320.632812 323.195312 320.609375 323.488281 C 319.277344 341.621094 304.167969 355.921875 285.707031 355.921875 C 275.414062 355.921875 266.160156 351.472656 259.753906 344.394531 C 259.484375 344.101562 259.222656 343.792969 258.964844 343.488281 C 255.539062 339.429688 253.019531 334.582031 251.710938 329.257812 L 266.464844 329.257812 C 269.699219 336.683594 277.09375 341.878906 285.707031 341.878906 C 297.296875 341.878906 306.6875 332.480469 306.6875 320.882812 C 306.6875 309.289062 297.296875 299.886719 285.707031 299.886719 C 285.058594 299.886719 284.417969 299.917969 283.785156 299.976562 L 279.347656 286.433594 C 281.410156 286.054688 283.535156 285.84375 285.707031 285.84375 C 294.210938 285.84375 302.003906 288.878906 308.066406 293.921875 C 310.199219 295.695312 312.117188 297.714844 313.773438 299.9375 C 313.933594 300.152344 314.082031 300.371094 314.238281 300.589844 Z M 84.15625 320.882812 C 84.15625 340.234375 68.480469 355.921875 49.144531 355.921875 C 36.101562 355.921875 24.734375 348.777344 18.710938 338.1875 C 18.582031 337.960938 18.441406 337.730469 18.316406 337.492188 C 15.652344 332.550781 14.136719 326.894531 14.136719 320.882812 C 14.136719 301.53125 29.808594 285.84375 49.144531 285.84375 C 49.5 285.84375 49.851562 285.863281 50.207031 285.871094 C 51.070312 286.363281 51.941406 286.855469 52.828125 287.347656 C 53.621094 287.785156 54.457031 288.207031 55.308594 288.609375 L 51.570312 300.03125 C 50.773438 299.9375 49.964844 299.886719 49.144531 299.886719 C 37.558594 299.886719 28.167969 309.289062 28.167969 320.882812 C 28.167969 332.480469 37.558594 341.878906 49.144531 341.878906 C 60.734375 341.878906 70.125 332.480469 70.125 320.882812 C 70.125 313.066406 65.855469 306.25 59.523438 302.636719 L 63.113281 291.664062 C 65.886719 292.566406 68.757812 293.351562 71.621094 294.027344 C 79.28125 300.453125 84.15625 310.097656 84.15625 320.882812 Z M 180.765625 239.4375 C 180.5625 239.273438 180.472656 239.179688 180.472656 239.179688 C 180.472656 239.179688 172.152344 225.085938 174.390625 213.238281 C 174.472656 212.792969 174.707031 212.371094 175.042969 211.957031 C 173.613281 212.121094 172.28125 212.277344 171.0625 212.417969 C 170.992188 212.167969 170.949219 212.035156 170.949219 212.035156 C 170.949219 212.035156 216.160156 206.867188 234.472656 204.480469 C 238.839844 203.914062 241.683594 203.503906 242.011719 203.355469 C 242.253906 203.253906 242.519531 202.714844 242.785156 201.878906 C 246.082031 201.753906 249.230469 201.65625 252.15625 201.578125 C 253.65625 202.886719 255.613281 203.6875 257.761719 203.6875 L 265.175781 203.6875 C 258.261719 208.832031 253.195312 220.140625 253.195312 220.140625 C 253.195312 220.140625 221.273438 218.082031 206.085938 237.660156 C 206.085938 237.660156 190.40625 241.527344 180.765625 239.4375 Z M 185.144531 158.394531 C 186.964844 157.992188 189.238281 155.890625 191.699219 152.746094 C 192.015625 154.75 192.320312 156.792969 192.613281 158.816406 C 191.089844 160.746094 189.65625 162.011719 188.386719 162.351562 C 168.390625 167.699219 137.359375 169.039062 135.621094 169.113281 C 135.507812 169.121094 135.398438 169.0625 135.289062 168.953125 C 135.136719 168.804688 134.988281 168.550781 134.839844 168.214844 C 134.628906 167.722656 134.421875 167.046875 134.230469 166.265625 C 140.453125 165.679688 166.886719 162.441406 185.144531 158.394531 Z M 183.921875 68.320312 C 184.164062 68.3125 184.40625 68.273438 184.644531 68.226562 C 184.65625 68.5 184.664062 68.808594 184.660156 69.144531 C 184.363281 69.03125 184.082031 68.90625 183.824219 68.757812 C 183.582031 68.613281 183.355469 68.453125 183.144531 68.28125 C 183.367188 68.3125 183.625 68.328125 183.921875 68.320312 Z M 181.582031 85.429688 C 181.585938 85.433594 181.585938 85.433594 181.59375 85.433594 C 180.742188 85.058594 180.015625 84.566406 179.535156 83.964844 C 178.367188 82.503906 178.105469 80.507812 178.101562 78.261719 C 177.640625 78.121094 177 77.800781 176.347656 77.015625 C 175.410156 75.898438 177.304688 73.765625 178.257812 72.808594 C 178.261719 72.363281 178.261719 71.914062 178.246094 71.46875 C 178.246094 71.417969 178.242188 71.363281 178.242188 71.3125 C 178.195312 69.910156 178.414062 68.566406 178.84375 67.316406 C 178.859375 67.335938 178.871094 67.363281 178.890625 67.382812 C 179.070312 67.605469 179.308594 67.777344 179.5625 67.914062 C 179.820312 68.042969 180.101562 68.132812 180.390625 68.144531 C 180.679688 68.164062 180.972656 68.132812 181.234375 68.007812 C 181.28125 67.984375 181.320312 67.941406 181.335938 67.886719 C 181.363281 67.785156 181.304688 67.679688 181.203125 67.648438 L 181.191406 67.644531 C 180.953125 67.578125 180.730469 67.527344 180.519531 67.449219 C 180.453125 67.421875 180.386719 67.390625 180.316406 67.363281 C 180.734375 67.265625 181.132812 67.070312 181.472656 66.761719 C 181.5 67.085938 181.570312 67.40625 181.703125 67.703125 C 181.871094 68.09375 182.132812 68.445312 182.441406 68.738281 C 182.761719 69.027344 183.128906 69.261719 183.53125 69.398438 C 183.890625 69.53125 184.273438 69.597656 184.652344 69.574219 C 184.609375 71.015625 184.386719 72.832031 183.667969 74.335938 C 182.230469 77.339844 181.375 78.28125 181.054688 79.78125 C 180.636719 81.738281 182.003906 83.941406 183.476562 85.246094 C 183.121094 85.433594 182.746094 85.605469 182.371094 85.726562 C 181.902344 85.875 181.445312 85.945312 181.054688 85.863281 C 181.054688 85.863281 181.253906 86.105469 181.476562 86.375 C 181.730469 86.671875 182.019531 87 182.109375 87.019531 C 182.265625 87.0625 183.460938 87.019531 183.460938 87.019531 C 183.460938 87.019531 183.949219 87.269531 184.867188 87.039062 C 185.09375 86.980469 185.40625 86.886719 185.746094 86.777344 C 185.894531 86.730469 186.046875 86.679688 186.203125 86.632812 C 186.375 86.574219 186.546875 86.515625 186.71875 86.457031 C 185.96875 86.023438 185.175781 85.398438 184.46875 84.660156 C 182.78125 82.910156 181.578125 80.554688 182.617188 78.730469 C 184.105469 76.109375 186.660156 69.28125 184.5625 67.105469 C 184.480469 67.019531 184.402344 66.925781 184.304688 66.855469 C 183.398438 66.199219 181.8125 65.894531 180.144531 65.78125 C 180.132812 65.785156 178.957031 66.054688 177.449219 66.351562 C 177.367188 66.371094 177.285156 66.386719 177.199219 66.402344 C 177.789062 67.421875 178.851562 70.101562 176.578125 73.789062 C 174.828125 76.621094 174.882812 78.363281 175.136719 79.875 C 176.09375 85.503906 179.78125 84.910156 181.582031 85.429688 " fill-opacity="1" fill-rule="nonzero"/></svg>