<svg xmlns="http://www.w3.org/2000/svg" xmlns:xlink="http://www.w3.org/1999/xlink" width="1920" zoomAndPan="magnify" viewBox="0 0 1440 525.000007" height="700" preserveAspectRatio="xMidYMid meet" version="1.0"><defs><g/><clipPath id="id1"><path d="M 1.367188 15 L 1438.628906 15 L 1438.628906 293 L 1.367188 293 Z M 1.367188 15 " clip-rule="nonzero"/></clipPath><clipPath id="id2"><path d="M 832 265 L 1421 265 L 1421 524 L 832 524 Z M 832 265 " clip-rule="nonzero"/></clipPath></defs><g fill="rgb(94.119263%, 94.119263%, 96.859741%)" fill-opacity="1"><g transform="translate(-6.070588, 273.7421)"><g><path d="M 105.09375 -224.519531 L 29.503906 -224.519531 C 17.703125 -224.519531 9.273438 -214.683594 9.273438 -204.285156 L 9.273438 -21.355469 C 9.273438 -11.238281 17.703125 -0.84375 29.503906 -0.84375 L 105.09375 -0.84375 C 149.210938 -0.84375 182.929688 -36.53125 182.929688 -78.960938 L 182.929688 -146.683594 C 182.929688 -189.113281 149.210938 -224.519531 105.09375 -224.519531 Z M 114.367188 -105.9375 C 114.367188 -94.136719 105.65625 -85.984375 94.136719 -85.984375 L 80.648438 -85.984375 C 78.679688 -85.984375 76.714844 -87.390625 76.714844 -90.761719 L 76.714844 -134.597656 C 76.714844 -138.25 78.679688 -139.9375 80.648438 -139.9375 L 94.136719 -139.9375 C 105.65625 -139.9375 114.367188 -131.507812 114.367188 -119.425781 Z M 114.367188 -105.9375 "/></g></g></g><g fill="rgb(94.119263%, 94.119263%, 96.859741%)" fill-opacity="1"><g transform="translate(183.884947, 273.7421)"><g><path d="M 87.671875 -163.824219 L 144.714844 -163.824219 C 152.863281 -163.824219 159.609375 -170.566406 159.609375 -178.433594 L 159.609375 -209.90625 C 159.609375 -218.054688 152.863281 -224.519531 144.714844 -224.519531 L 29.785156 -224.519531 C 18.265625 -224.519531 9.273438 -215.527344 9.273438 -209.0625 L 9.273438 -26.132812 C 9.273438 -9.554688 18.265625 -0.5625 29.785156 -0.5625 L 144.714844 -0.5625 C 152.863281 -0.5625 159.609375 -7.023438 159.609375 -15.175781 L 159.609375 -46.644531 C 159.609375 -54.796875 152.863281 -61.820312 144.714844 -61.820312 L 87.671875 -61.820312 C 86.546875 -61.820312 85.703125 -62.664062 85.703125 -63.785156 L 85.703125 -81.769531 C 85.703125 -82.894531 86.546875 -83.738281 87.671875 -83.738281 L 128.980469 -83.738281 C 136.285156 -83.738281 142.46875 -89.640625 142.46875 -97.226562 L 142.46875 -127.855469 C 142.46875 -135.160156 136.285156 -141.34375 128.980469 -141.34375 L 87.671875 -141.34375 C 86.546875 -141.34375 85.703125 -142.1875 85.703125 -143.027344 L 85.703125 -161.574219 C 85.703125 -162.417969 86.546875 -163.824219 87.671875 -163.824219 Z M 87.671875 -163.824219 "/></g></g></g><g fill="rgb(94.119263%, 94.119263%, 96.859741%)" fill-opacity="1"><g transform="translate(352.765477, 273.7421)"><g><path d="M 139.375 -75.871094 L 84.582031 -75.871094 L 84.582031 -202.039062 C 84.582031 -214.121094 73.902344 -224.800781 62.382812 -224.800781 L 29.785156 -224.800781 C 17.703125 -224.800781 9.273438 -214.121094 9.273438 -202.039062 L 9.273438 -18.546875 C 9.273438 -8.429688 15.734375 0 27.820312 0 L 139.375 0 C 149.773438 0 158.203125 -8.429688 158.203125 -18.546875 L 158.203125 -56.199219 C 158.203125 -66.597656 149.773438 -75.871094 139.375 -75.871094 Z M 139.375 -75.871094 "/></g></g></g><g fill="rgb(94.119263%, 94.119263%, 96.859741%)" fill-opacity="1"><g transform="translate(520.241076, 273.7421)"><g><path d="M 29.222656 0.28125 L 64.066406 0.28125 C 75.871094 0.28125 84.300781 -9.273438 84.300781 -19.949219 L 84.300781 -204.566406 C 84.300781 -216.371094 75.871094 -224.800781 64.066406 -224.800781 L 29.222656 -224.800781 C 18.265625 -224.800781 9.273438 -216.371094 9.273438 -204.566406 L 9.273438 -19.949219 C 9.273438 -9.273438 18.265625 0.28125 29.222656 0.28125 Z M 29.222656 0.28125 "/></g></g></g><g fill="rgb(94.119263%, 94.119263%, 96.859741%)" fill-opacity="1"><g transform="translate(613.813847, 273.7421)"><g><path d="M 69.40625 -12.363281 C 73.058594 -5.339844 80.085938 0 86.828125 0 L 130.101562 0 C 138.8125 0 145.558594 -5.339844 149.210938 -12.363281 L 213.277344 -200.914062 C 213.277344 -200.914062 215.808594 -209.0625 211.59375 -216.652344 C 208.222656 -223.675781 202.882812 -225.082031 195.855469 -225.082031 L 157.921875 -225.082031 C 147.523438 -225.082031 143.871094 -218.335938 138.8125 -206.253906 L 112.679688 -135.160156 C 112.679688 -135.160156 112.117188 -132.914062 109.308594 -132.914062 C 106.5 -132.914062 105.9375 -135.160156 105.9375 -135.160156 L 80.085938 -206.253906 C 74.746094 -218.335938 71.375 -225.082031 60.695312 -225.082031 L 21.074219 -225.082031 C 15.734375 -225.082031 10.398438 -223.675781 7.023438 -216.652344 C 3.089844 -209.0625 5.339844 -200.914062 5.339844 -200.914062 Z M 69.40625 -12.363281 "/></g></g></g><g fill="rgb(94.119263%, 94.119263%, 96.859741%)" fill-opacity="1"><g transform="translate(832.712289, 273.7421)"><g><path d="M 87.671875 -163.824219 L 144.714844 -163.824219 C 152.863281 -163.824219 159.609375 -170.566406 159.609375 -178.433594 L 159.609375 -209.90625 C 159.609375 -218.054688 152.863281 -224.519531 144.714844 -224.519531 L 29.785156 -224.519531 C 18.265625 -224.519531 9.273438 -215.527344 9.273438 -209.0625 L 9.273438 -26.132812 C 9.273438 -9.554688 18.265625 -0.5625 29.785156 -0.5625 L 144.714844 -0.5625 C 152.863281 -0.5625 159.609375 -7.023438 159.609375 -15.175781 L 159.609375 -46.644531 C 159.609375 -54.796875 152.863281 -61.820312 144.714844 -61.820312 L 87.671875 -61.820312 C 86.546875 -61.820312 85.703125 -62.664062 85.703125 -63.785156 L 85.703125 -81.769531 C 85.703125 -82.894531 86.546875 -83.738281 87.671875 -83.738281 L 128.980469 -83.738281 C 136.285156 -83.738281 142.46875 -89.640625 142.46875 -97.226562 L 142.46875 -127.855469 C 142.46875 -135.160156 136.285156 -141.34375 128.980469 -141.34375 L 87.671875 -141.34375 C 86.546875 -141.34375 85.703125 -142.1875 85.703125 -143.027344 L 85.703125 -161.574219 C 85.703125 -162.417969 86.546875 -163.824219 87.671875 -163.824219 Z M 87.671875 -163.824219 "/></g></g></g><g fill="rgb(94.119263%, 94.119263%, 96.859741%)" fill-opacity="1"><g transform="translate(1001.59279, 273.7421)"><g><path d="M 184.054688 -23.886719 L 166.632812 -92.167969 C 166.070312 -94.414062 165.507812 -96.101562 164.664062 -97.507812 C 177.03125 -112.117188 184.898438 -130.101562 184.898438 -154.550781 C 184.898438 -197.542969 160.167969 -224.519531 129.539062 -224.519531 L 28.101562 -224.238281 C 17.140625 -224.238281 8.429688 -215.246094 8.429688 -199.230469 L 8.429688 -20.230469 C 8.429688 -9.835938 17.140625 -0.84375 28.101562 -0.84375 L 64.066406 -0.84375 C 69.6875 -0.84375 75.308594 -3.089844 78.960938 -7.585938 C 84.019531 -13.207031 83.738281 -16.296875 83.738281 -20.792969 L 83.738281 -67.722656 C 83.738281 -68.28125 84.019531 -69.40625 85.144531 -69.40625 C 86.265625 -69.40625 86.828125 -68.5625 86.828125 -68 L 89.078125 -56.480469 L 96.382812 -22.199219 C 99.191406 -9.554688 111.558594 -0.84375 121.109375 -0.84375 L 166.632812 -0.84375 C 177.59375 -0.84375 186.863281 -10.679688 184.054688 -23.886719 Z M 109.308594 -147.242188 L 109.308594 -143.308594 C 109.308594 -134.316406 101.722656 -126.730469 92.730469 -126.730469 L 87.390625 -126.730469 C 85.144531 -126.730469 83.738281 -128.417969 83.738281 -130.382812 L 83.738281 -160.449219 C 83.738281 -162.417969 85.144531 -164.105469 87.390625 -164.105469 L 92.730469 -164.105469 C 101.722656 -164.105469 109.308594 -156.515625 109.308594 -147.242188 Z M 109.308594 -147.242188 "/></g></g></g><g fill="rgb(94.119263%, 94.119263%, 96.859741%)" fill-opacity="1"><g transform="translate(1195.763246, 273.7421)"><g><path d="M 222.832031 -202.320312 C 224.519531 -203.726562 226.203125 -207.378906 226.203125 -211.03125 C 226.203125 -219.742188 219.460938 -225.082031 212.15625 -225.082031 L 161.292969 -225.082031 C 157.921875 -225.082031 155.113281 -223.394531 152.582031 -219.742188 L 115.492188 -168.601562 L 80.367188 -219.742188 C 77.554688 -224.238281 73.058594 -225.082031 69.96875 -225.082031 L 18.828125 -225.082031 C 11.519531 -225.082031 4.777344 -219.742188 4.777344 -211.03125 C 4.777344 -207.378906 6.464844 -203.726562 8.429688 -202.320312 L 75.027344 -107.0625 L 75.027344 -16.015625 C 75.027344 -6.742188 84.019531 0 92.730469 0 L 138.25 0 C 146.960938 0 156.234375 -6.742188 156.234375 -16.015625 L 156.234375 -107.0625 Z M 222.832031 -202.320312 "/></g></g></g><g clip-path="url(#id1)"><path stroke-linecap="butt" transform="matrix(0.748574, 0, 0, 0.748574, 1.368812, 42.150207)" fill="none" stroke-linejoin="miter" d="M 143.369362 0.0446003 L 42.375272 0.0446003 C 26.610926 0.0446003 15.339497 13.241565 15.339497 27.080375 L 15.339497 271.498179 C 15.339497 284.971712 26.610926 298.899232 42.375272 298.899232 L 143.369362 298.899232 C 202.299106 298.899232 247.296111 251.246135 247.296111 194.518495 L 247.296111 104.06006 C 247.296111 47.332419 202.299106 0.0446003 143.369362 0.0446003 Z M 155.741843 158.496887 C 155.741843 174.261232 144.105136 185.167383 128.706068 185.167383 L 110.744837 185.167383 C 108.088746 185.167383 105.427436 183.241848 105.427436 178.754149 L 105.427436 120.189683 C 105.427436 115.336707 108.088746 113.040675 110.744837 113.040675 L 128.706068 113.040675 C 144.105136 113.040675 155.741843 124.317322 155.741843 140.446946 Z M 373.84921 81.151924 L 450.00441 81.151924 C 460.910562 81.151924 469.985105 72.171309 469.985105 61.630435 L 469.985105 19.566089 C 469.985105 8.748648 460.910562 0.0446003 450.00441 0.0446003 L 296.499029 0.0446003 C 281.105179 0.0446003 269.097977 12.051803 269.097977 20.755851 L 269.097977 265.084945 C 269.097977 287.262525 281.105179 299.26451 296.499029 299.26451 L 450.00441 299.26451 C 460.910562 299.26451 469.985105 290.65439 469.985105 279.748239 L 469.985105 237.678675 C 469.985105 226.777742 460.910562 217.42663 450.00441 217.42663 L 373.84921 217.42663 C 372.38288 217.42663 371.1879 216.325579 371.1879 214.770539 L 371.1879 190.756134 C 371.1879 189.289804 372.38288 188.100042 373.84921 188.100042 L 429.016592 188.100042 C 438.82691 188.100042 447.071752 180.220478 447.071752 170.138812 L 447.071752 129.170298 C 447.071752 119.459128 438.82691 111.209068 429.016592 111.209068 L 373.84921 111.209068 C 372.38288 111.209068 371.1879 110.019306 371.1879 108.918254 L 371.1879 84.173293 C 371.1879 83.07746 372.38288 81.151924 373.84921 81.151924 Z M 668.550111 198.640915 L 595.327569 198.640915 L 595.327569 30.101744 C 595.327569 13.972121 581.029553 -0.320677 565.635703 -0.320677 L 522.099809 -0.320677 C 505.970186 -0.320677 494.698757 13.972121 494.698757 30.101744 L 494.698757 275.255322 C 494.698757 288.728855 503.314095 300.000283 519.537647 300.000283 L 668.550111 300.000283 C 682.388921 300.000283 693.66035 288.728855 693.66035 275.255322 L 693.66035 224.940916 C 693.66035 211.013396 682.388921 198.640915 668.550111 198.640915 Z M 745.096681 300.365561 L 791.648726 300.365561 C 807.413071 300.365561 818.6845 287.627803 818.6845 273.329787 L 818.6845 26.715097 C 818.6845 10.950751 807.413071 -0.320677 791.648726 -0.320677 L 745.096681 -0.320677 C 730.433387 -0.320677 718.426184 10.950751 718.426184 26.715097 L 718.426184 273.329787 C 718.426184 287.627803 730.433387 300.365561 745.096681 300.365561 Z M 923.801011 283.505382 C 928.659206 292.851275 938.005099 300.000283 947.079643 300.000283 L 1004.814406 300.000283 C 1016.456331 300.000283 1025.525657 292.851275 1030.383852 283.505382 L 1115.984092 31.568073 C 1115.984092 31.568073 1119.370739 20.755851 1113.68806 10.585474 C 1109.200362 1.234362 1102.051354 -0.691173 1092.70546 -0.691173 L 1042.025776 -0.691173 C 1028.093038 -0.691173 1023.234843 8.29466 1016.456331 24.512994 L 981.535775 119.459128 C 981.535775 119.459128 980.805219 122.480497 977.048076 122.480497 C 973.290933 122.480497 972.555159 119.459128 972.555159 119.459128 L 938.005099 24.512994 C 930.950019 8.29466 926.368392 -0.691173 912.164305 -0.691173 L 859.188589 -0.691173 C 852.044799 -0.691173 844.984501 1.234362 840.402874 10.585474 C 835.179402 20.755851 838.205989 31.568073 838.205989 31.568073 Z M 1240.601219 81.151924 L 1316.756419 81.151924 C 1327.66257 81.151924 1336.737114 72.171309 1336.737114 61.630435 L 1336.737114 19.566089 C 1336.737114 8.748648 1327.66257 0.0446003 1316.756419 0.0446003 L 1163.251038 0.0446003 C 1147.85197 0.0446003 1135.849985 12.051803 1135.849985 20.755851 L 1135.849985 265.084945 C 1135.849985 287.262525 1147.85197 299.26451 1163.251038 299.26451 L 1316.756419 299.26451 C 1327.66257 299.26451 1336.737114 290.65439 1336.737114 279.748239 L 1336.737114 237.678675 C 1336.737114 226.777742 1327.66257 217.42663 1316.756419 217.42663 L 1240.601219 217.42663 C 1239.134889 217.42663 1237.939909 216.325579 1237.939909 214.770539 L 1237.939909 190.756134 C 1237.939909 189.289804 1239.134889 188.100042 1240.601219 188.100042 L 1295.768601 188.100042 C 1305.573701 188.100042 1313.82376 180.220478 1313.82376 170.138812 L 1313.82376 129.170298 C 1313.82376 119.459128 1305.573701 111.209068 1295.768601 111.209068 L 1240.601219 111.209068 C 1239.134889 111.209068 1237.939909 110.019306 1237.939909 108.918254 L 1237.939909 84.173293 C 1237.939909 83.07746 1239.134889 81.151924 1240.601219 81.151924 Z M 1594.962419 268.106314 L 1571.683787 176.922542 C 1570.953232 173.895954 1570.217458 171.605141 1569.027696 169.773534 C 1585.522597 150.252045 1596.063471 126.23764 1596.063471 93.524405 C 1596.063471 36.154919 1563.073668 0.0446003 1522.105155 0.0446003 L 1386.654933 0.409878 C 1371.991639 0.409878 1360.349714 12.417081 1360.349714 33.858887 L 1360.349714 272.964509 C 1360.349714 286.897247 1371.991639 298.899232 1386.654933 298.899232 L 1434.678526 298.899232 C 1442.192812 298.899232 1449.707098 295.877863 1454.565292 289.829906 C 1461.343804 282.310402 1460.978526 278.187981 1460.978526 272.233953 L 1460.978526 209.547067 C 1460.978526 208.811293 1461.343804 207.256253 1462.810134 207.256253 C 1464.276463 207.256253 1465.100947 208.446015 1465.100947 209.181789 L 1468.033606 224.575638 L 1477.838705 270.308418 C 1481.601067 287.262525 1498.095968 298.899232 1510.833726 298.899232 L 1571.683787 298.899232 C 1586.347082 298.899232 1598.719562 285.702267 1594.962419 268.106314 Z M 1495.069381 103.329504 L 1495.069381 108.552976 C 1495.069381 120.560179 1484.987714 130.730556 1472.985729 130.730556 L 1465.836721 130.730556 C 1462.810134 130.730556 1460.978526 128.439743 1460.978526 125.783652 L 1460.978526 85.639623 C 1460.978526 83.07746 1462.810134 80.781428 1465.836721 80.781428 L 1472.985729 80.781428 C 1484.987714 80.781428 1495.069381 90.957024 1495.069381 103.329504 Z M 1906.13213 29.736466 C 1908.422944 27.81093 1910.619829 22.957954 1910.619829 18.09976 C 1910.619829 6.457835 1901.639214 -0.691173 1891.834114 -0.691173 L 1823.923755 -0.691173 C 1819.436056 -0.691173 1815.678913 1.59964 1812.287048 6.457835 L 1762.703198 74.733471 L 1715.780657 6.457835 C 1712.023514 0.409878 1706.069486 -0.691173 1701.947065 -0.691173 L 1633.5775 -0.691173 C 1623.86111 -0.691173 1614.880495 6.457835 1614.880495 18.09976 C 1614.880495 22.957954 1617.082598 27.81093 1619.73869 29.736466 L 1708.725577 156.941847 L 1708.725577 278.647188 C 1708.725577 291.019668 1720.73278 300.000283 1732.369486 300.000283 L 1793.130837 300.000283 C 1804.772762 300.000283 1817.145243 291.019668 1817.145243 278.647188 L 1817.145243 156.941847 Z M 1906.13213 29.736466 " stroke="rgb(75.289917%, 71.369934%, 100%)" stroke-width="6.099957" stroke-opacity="1" stroke-miterlimit="4"/></g><g fill="rgb(100%, 65.489197%, 89.408875%)" fill-opacity="1"><g transform="translate(843.324634, 512.067441)"><g><path d="M 205.617188 -22.636719 L 159.804688 -196.996094 C 158.996094 -200.230469 158.1875 -205.078125 154.414062 -209.390625 C 150.375 -213.433594 145.253906 -214.511719 141.480469 -214.511719 L 70.875 -214.511719 C 66.832031 -214.511719 63.058594 -213.164062 60.363281 -211.007812 C 57.671875 -209.121094 54.707031 -205.886719 53.628906 -201.035156 L 5.121094 -22.90625 C 2.964844 -14.28125 7.007812 -5.121094 15.089844 -1.617188 C 17.246094 -0.539062 19.402344 -0.269531 22.097656 -0.269531 L 58.75 -0.269531 C 68.71875 -0.269531 72.761719 -6.46875 76.804688 -16.707031 L 84.617188 -37.726562 L 125.851562 -37.726562 L 133.933594 -16.707031 C 137.976562 -6.46875 142.019531 0 151.992188 0 L 188.640625 0 C 191.605469 0 194.570312 -0.808594 196.726562 -2.15625 C 204 -5.929688 207.503906 -14.550781 205.617188 -22.636719 Z M 118.035156 -99.980469 L 92.972656 -99.980469 C 90.277344 -99.980469 88.121094 -102.40625 89.46875 -105.101562 L 96.476562 -123.425781 L 101.867188 -137.4375 C 102.945312 -140.941406 107.792969 -140.941406 108.871094 -137.4375 L 114.53125 -123.425781 L 121.539062 -105.101562 C 122.347656 -102.40625 120.460938 -99.980469 118.035156 -99.980469 Z M 118.035156 -99.980469 "/></g></g></g><g fill="rgb(100%, 65.489197%, 89.408875%)" fill-opacity="1"><g transform="translate(1054.062847, 512.067441)"><g><path d="M 159.265625 -182.441406 C 153.339844 -201.84375 135.550781 -215.050781 115.339844 -215.050781 L 29.914062 -215.050781 C 18.324219 -215.050781 8.894531 -205.347656 8.894531 -193.761719 L 8.894531 -21.828125 C 8.894531 -9.972656 18.324219 -0.539062 29.914062 -0.539062 L 57.941406 -0.539062 C 69.527344 -0.539062 78.960938 -9.972656 78.960938 -21.828125 L 78.960938 -71.144531 L 116.417969 -71.144531 C 127.738281 -71.144531 138.515625 -75.996094 145.792969 -84.617188 C 154.683594 -95.398438 163.847656 -113.992188 163.847656 -144.984375 C 163.847656 -160.613281 161.960938 -173.28125 159.265625 -182.441406 Z M 103.484375 -145.523438 L 103.484375 -141.75 C 103.484375 -132.585938 96.476562 -125.582031 87.582031 -125.582031 L 82.464844 -125.582031 C 80.308594 -125.582031 78.960938 -126.929688 78.960938 -128.816406 L 78.960938 -157.917969 C 78.960938 -159.804688 80.308594 -161.691406 82.464844 -161.691406 L 87.582031 -161.691406 C 96.476562 -161.691406 103.484375 -154.144531 103.484375 -145.523438 Z M 103.484375 -145.523438 "/></g></g></g><g fill="rgb(100%, 65.489197%, 89.408875%)" fill-opacity="1"><g transform="translate(1222.49177, 512.067441)"><g><path d="M 159.265625 -182.441406 C 153.339844 -201.84375 135.550781 -215.050781 115.339844 -215.050781 L 29.914062 -215.050781 C 18.324219 -215.050781 8.894531 -205.347656 8.894531 -193.761719 L 8.894531 -21.828125 C 8.894531 -9.972656 18.324219 -0.539062 29.914062 -0.539062 L 57.941406 -0.539062 C 69.527344 -0.539062 78.960938 -9.972656 78.960938 -21.828125 L 78.960938 -71.144531 L 116.417969 -71.144531 C 127.738281 -71.144531 138.515625 -75.996094 145.792969 -84.617188 C 154.683594 -95.398438 163.847656 -113.992188 163.847656 -144.984375 C 163.847656 -160.613281 161.960938 -173.28125 159.265625 -182.441406 Z M 103.484375 -145.523438 L 103.484375 -141.75 C 103.484375 -132.585938 96.476562 -125.582031 87.582031 -125.582031 L 82.464844 -125.582031 C 80.308594 -125.582031 78.960938 -126.929688 78.960938 -128.816406 L 78.960938 -157.917969 C 78.960938 -159.804688 80.308594 -161.691406 82.464844 -161.691406 L 87.582031 -161.691406 C 96.476562 -161.691406 103.484375 -154.144531 103.484375 -145.523438 Z M 103.484375 -145.523438 "/></g></g></g><g clip-path="url(#id2)"><path stroke-linecap="butt" transform="matrix(0.748574, 0, 0, 0.748574, 814.144149, 289.746074)" fill="none" stroke-linejoin="miter" d="M 326.016155 257.766125 L 264.84778 24.854571 C 263.788474 20.549512 262.650895 14.042349 257.636153 8.244868 C 252.277006 2.880503 245.42022 1.476793 240.321986 1.476793 L 146.017697 1.476793 C 140.65855 1.476793 135.560316 3.235344 132.043213 6.136694 C 128.437399 8.683202 124.39847 12.988261 122.989542 19.406714 L 58.215353 257.416502 C 55.314004 268.927971 60.678369 281.143904 71.485374 285.803805 C 74.386723 287.296225 77.288072 287.645848 80.888668 287.645848 L 129.846328 287.645848 C 143.116348 287.645848 148.564205 279.385352 153.92857 265.676999 L 164.385952 237.639319 L 219.495933 237.639319 L 230.302938 265.676999 C 235.667303 279.385352 241.11516 288.00069 254.38518 288.00069 L 303.34284 288.00069 C 307.298277 288.00069 311.253714 286.946602 314.149845 285.09934 C 323.90798 280.089816 328.567881 268.578348 326.016155 257.766125 Z M 209.033334 154.408166 L 175.547797 154.408166 C 171.947202 154.408166 169.045853 151.240686 170.893115 147.640091 L 180.207698 123.119514 L 187.414107 104.396419 C 188.906528 99.736518 195.32498 99.736518 196.817401 104.396419 L 204.378651 123.119514 L 213.693235 147.640091 C 214.836032 151.240686 212.289524 154.408166 209.033334 154.408166 Z M 545.662907 44.276913 C 537.752034 18.352627 513.935922 0.683618 486.95233 0.683618 L 372.870858 0.683618 C 357.398735 0.683618 344.744469 13.692726 344.744469 29.159631 L 344.744469 258.820213 C 344.744469 274.641959 357.398735 287.296225 372.870858 287.296225 L 410.311832 287.296225 C 425.778737 287.296225 438.349511 274.641959 438.349511 258.820213 L 438.349511 192.991937 L 488.35604 192.991937 C 503.562033 192.991937 517.88614 186.484774 527.644275 174.973306 C 539.510585 160.560488 551.726518 135.68507 551.726518 94.28866 C 551.726518 73.45739 549.263502 56.498064 545.662907 44.276913 Z M 471.130583 93.584196 L 471.130583 98.68243 C 471.130583 110.898363 461.727289 120.218165 449.86098 120.218165 L 443.004194 120.218165 C 440.191555 120.218165 438.349511 118.459613 438.349511 115.907887 L 438.349511 77.063204 C 438.349511 74.511477 440.191555 71.964969 443.004194 71.964969 L 449.86098 71.964969 C 461.727289 71.964969 471.130583 82.072728 471.130583 93.584196 Z M 770.663588 44.276913 C 762.752715 18.352627 738.931385 0.683618 711.953011 0.683618 L 597.866321 0.683618 C 582.399416 0.683618 569.74515 13.692726 569.74515 29.159631 L 569.74515 258.820213 C 569.74515 274.641959 582.399416 287.296225 597.866321 287.296225 L 635.312513 287.296225 C 650.779418 287.296225 663.344974 274.641959 663.344974 258.820213 L 663.344974 192.991937 L 713.356721 192.991937 C 728.562714 192.991937 742.886821 186.484774 752.644956 174.973306 C 764.511266 160.560488 776.727199 135.68507 776.727199 94.28866 C 776.727199 73.45739 774.264183 56.498064 770.663588 44.276913 Z M 696.131264 93.584196 L 696.131264 98.68243 C 696.131264 110.898363 686.72797 120.218165 674.861661 120.218165 L 668.004875 120.218165 C 665.192236 120.218165 663.344974 118.459613 663.344974 115.907887 L 663.344974 77.063204 C 663.344974 74.511477 665.192236 71.964969 668.004875 71.964969 L 674.861661 71.964969 C 686.72797 71.964969 696.131264 82.072728 696.131264 93.584196 Z M 696.131264 93.584196 " stroke="rgb(100%, 39.99939%, 76.858521%)" stroke-width="5.850016" stroke-opacity="1" stroke-miterlimit="4"/></g></svg>