<svg width="170" height="178" viewBox="0 0 170 178" fill="none" xmlns="http://www.w3.org/2000/svg">
<circle cx="85" cy="92.7917" r="85" fill="#F2C94C"/>
<path d="M27.2065 170.349L86.1019 136.34C86.2317 136.295 86.3441 136.21 86.4236 136.098C86.5031 135.985 86.5458 135.851 86.5458 135.714C86.5458 135.576 86.5031 135.442 86.4236 135.33C86.3441 135.218 86.2317 135.133 86.1019 135.087L80.6572 131.954C80.32 131.785 79.9477 131.696 79.5702 131.696C79.1926 131.696 78.8204 131.785 78.4831 131.954L19.5689 165.932C19.4391 165.978 19.3267 166.062 19.2472 166.175C19.1677 166.287 19.125 166.421 19.125 166.559C19.125 166.696 19.1677 166.83 19.2472 166.942C19.3267 167.055 19.4391 167.139 19.5689 167.185L25.0324 170.318C25.3672 170.492 25.7382 170.586 26.1157 170.592C26.4932 170.597 26.8668 170.514 27.2065 170.349Z" fill="#E0E0E0"/>
<path d="M84.4856 5.03467L31.3794 35.6979C30.59 36.2131 29.933 36.907 29.4617 37.7234C28.9903 38.5398 28.7179 39.4557 28.6665 40.397V166.377C28.6665 168.106 29.882 168.808 31.3794 167.943L84.4856 137.28C85.2761 136.766 85.9339 136.072 86.4053 135.256C86.8768 134.439 87.1486 133.523 87.1985 132.581V6.60104C87.1985 4.87177 85.9893 4.17004 84.4856 5.03467Z" fill="#455A64"/>
<path d="M31.3791 35.6979L84.4852 5.03468C85.826 4.25776 86.935 4.74021 87.1606 6.08728C87.0353 5.24034 86.7321 4.42953 86.271 3.70816C85.8099 2.98679 85.2013 2.37122 84.4852 1.90195L82.2798 0.648852C81.439 0.222299 80.5096 0 79.5668 0C78.6241 0 77.6946 0.222299 76.8539 0.648852L23.7415 31.287C22.9415 31.7886 22.2819 32.4849 21.8242 33.3108L29.4618 37.6966C29.9193 36.8773 30.5795 36.1891 31.3791 35.6979Z" fill="#37474F"/>
<path d="M21.0161 161.966C21.0675 162.907 21.34 163.823 21.8113 164.64C22.2826 165.456 22.9396 166.15 23.7291 166.665L25.9408 167.918C26.7063 168.301 27.544 168.518 28.3991 168.555C29.2543 168.591 30.1075 168.447 30.903 168.131C29.6499 168.62 28.6537 167.899 28.6537 166.352V40.397C28.6851 39.4517 28.9591 38.5304 29.4494 37.7216L21.8118 33.3358C21.3284 34.1385 21.0547 35.0499 21.0161 35.9861V161.966Z" fill="#263238"/>
<path d="M32.8392 52.4831L83.0445 23.5053C83.9467 22.9915 84.6735 23.4113 84.6735 24.4451V117.688C84.6434 118.253 84.4801 118.803 84.197 119.293C83.9139 119.783 83.519 120.199 83.0445 120.507L32.858 149.485C31.9558 150.005 31.229 149.585 31.229 148.545V55.3026C31.2575 54.7393 31.4181 54.1906 31.6978 53.7008C31.9775 53.211 32.3685 52.7939 32.8392 52.4831Z" fill="white"/>
<path d="M57.9323 25.1406C57.6552 25.3225 57.4247 25.567 57.2593 25.8542C57.0938 26.1415 56.9982 26.4636 56.98 26.7947C56.98 27.4212 57.406 27.653 57.9323 27.346C58.2105 27.1652 58.4419 26.921 58.6074 26.6335C58.7729 26.346 58.868 26.0233 58.8847 25.6919C58.8847 25.0842 58.4586 24.8398 57.9323 25.1406Z" fill="#37474F"/>
<path d="M57.9324 139.454C56.8371 140.171 55.926 141.135 55.2728 142.269C54.6197 143.404 54.243 144.676 54.1731 145.983C54.1731 148.382 55.8585 149.36 57.9324 148.157C59.0273 147.44 59.9382 146.475 60.5912 145.341C61.2443 144.207 61.6213 142.935 61.6917 141.628C61.7042 139.229 60.0125 138.251 57.9324 139.454Z" fill="#37474F"/>
<path d="M48.9163 34.8395C48.3656 35.2051 47.9086 35.6949 47.5821 36.2695C47.2556 36.8442 47.0687 37.4876 47.0366 38.1477C47.0366 39.3632 47.8887 39.8582 48.9163 39.2504C49.4727 38.8884 49.9358 38.4 50.2679 37.8252C50.6 37.2503 50.7916 36.6052 50.8272 35.9422C50.8272 34.7267 49.9751 34.2318 48.9163 34.8395Z" fill="#37474F"/>
<path d="M53.5967 34.426C53.5967 35.2405 54.2232 35.5475 54.9563 35.1152L67.4872 27.8661C67.8754 27.6236 68.2008 27.293 68.4371 26.9011C68.6734 26.5091 68.8137 26.0669 68.8468 25.6105C68.8468 24.8022 68.2203 24.4952 67.4872 24.9275L54.9563 32.1767C54.5689 32.4185 54.244 32.7482 54.0078 33.1389C53.7716 33.5297 53.6307 33.9707 53.5967 34.426Z" fill="#37474F"/>
<path d="M25.2518 56.5181C25.6964 56.8077 26.0665 57.198 26.3321 57.6574C26.5977 58.1168 26.7514 58.6323 26.7805 59.1621C26.7805 60.1395 26.0976 60.5342 25.2518 60.0455C24.8086 59.7548 24.44 59.3641 24.1755 58.9049C23.9111 58.4456 23.7582 57.9307 23.7292 57.4015C23.7292 56.4304 24.4122 56.0356 25.2518 56.5181Z" fill="#37474F"/>
<path d="M25.2518 68.2846C25.6964 68.5742 26.0665 68.9645 26.3321 69.4239C26.5977 69.8833 26.7514 70.3988 26.7805 70.9286C26.7805 71.8998 26.0976 72.2945 25.2518 71.8121C24.8086 71.5214 24.44 71.1307 24.1755 70.6714C23.9111 70.2122 23.7582 69.6972 23.7292 69.168C23.7292 68.1906 24.4122 67.7959 25.2518 68.2846Z" fill="#37474F"/>
<path d="M24.7754 56.7561C25.22 57.0457 25.5901 57.4361 25.8557 57.8954C26.1213 58.3548 26.275 58.8703 26.3041 59.4002C26.3041 60.3713 25.6212 60.766 24.7754 60.2836C24.3307 59.994 23.9606 59.6036 23.695 59.1443C23.4294 58.6849 23.2758 58.1694 23.2466 57.6396C23.2528 56.6621 23.9358 56.2862 24.7754 56.7561Z" fill="#455A64"/>
<path d="M24.7754 68.5165C25.2208 68.8067 25.5914 69.198 25.8571 69.6586C26.1228 70.1191 26.2759 70.6359 26.3041 71.1668C26.3041 72.1379 25.6212 72.5326 24.7754 72.0439C24.3297 71.7554 23.9588 71.3654 23.693 70.9058C23.4273 70.4462 23.2743 69.9301 23.2466 69.3999C23.2528 68.4288 23.9358 68.034 24.7754 68.5165Z" fill="#455A64"/>
<path d="M94.8361 27.3962C94.8361 26.3561 94.1093 25.9363 93.2071 26.4564L87.1985 29.9212L43.0206 55.4342C42.5461 55.7425 42.1512 56.1586 41.8681 56.6486C41.585 57.1386 41.4217 57.6885 41.3916 58.2536V151.471C41.3916 152.511 42.1184 152.931 43.0206 152.411L87.2173 126.892L93.2071 123.433C93.6816 123.125 94.0765 122.709 94.3596 122.219C94.6427 121.729 94.806 121.179 94.8361 120.614V27.3962Z" fill="white"/>
<path d="M95.4627 27.3962C95.5021 27.082 95.448 26.7631 95.3072 26.4795C95.1663 26.1958 94.945 25.9601 94.6708 25.8016C94.3967 25.6431 94.0819 25.569 93.7658 25.5885C93.4497 25.608 93.1464 25.7203 92.8938 25.9112L87.1609 29.2257L42.7074 54.9141C42.1351 55.2754 41.6592 55.7704 41.3208 56.3566C40.9824 56.9427 40.7917 57.6024 40.7651 58.2787V151.471C40.74 151.784 40.8001 152.098 40.9391 152.379C41.0781 152.661 41.2908 152.899 41.5546 153.069C41.7789 153.199 42.0344 153.267 42.2939 153.263C42.6612 153.252 43.0193 153.146 43.3339 152.956L87.8188 127.268L93.5392 123.966C94.1082 123.601 94.5816 123.105 94.9195 122.52C95.2575 121.934 95.4502 121.277 95.4815 120.601L95.4627 27.3962ZM87.1735 126.196L86.6597 126.497L42.7325 151.86C42.6586 151.916 42.5731 151.956 42.482 151.976C42.391 151.995 42.2968 151.994 42.2062 151.973C42.1247 151.922 42.0433 151.747 42.0433 151.459V58.2536C42.0757 57.7987 42.211 57.3571 42.4389 56.962C42.6668 56.567 42.9814 56.2288 43.359 55.973L87.2424 30.5978L93.5079 26.9701C93.5817 26.9134 93.6672 26.8738 93.7583 26.8543C93.8493 26.8348 93.9436 26.8358 94.0342 26.8573C94.1156 26.9075 94.197 27.0829 94.197 27.3711V120.614C94.1646 121.069 94.0293 121.51 93.8014 121.905C93.5735 122.301 93.2589 122.639 92.8813 122.894L87.1609 126.196H87.1735Z" fill="#F2C94C"/>
<path d="M68.1138 49.0559C73.7527 45.8104 78.2952 48.4293 78.2952 54.9391C78.2952 61.449 73.7339 69.3497 68.1138 72.5702C62.4936 75.7906 57.9324 73.1967 57.9324 66.6932C57.9324 60.1896 62.4936 52.3076 68.1138 49.0559Z" fill="#F2C94C"/>
<path d="M68.1137 54.1685C69.9369 53.1159 71.4156 53.968 71.4156 56.0481C71.3536 57.1941 71.0224 58.3092 70.4487 59.3032C69.875 60.2971 69.075 61.1417 68.1137 61.7685C66.2904 62.8211 64.8118 61.969 64.8118 59.8889C64.8737 58.7429 65.205 57.6278 65.7787 56.6338C66.3524 55.6399 67.1524 54.7953 68.1137 54.1685Z" fill="#F2C94C"/>
<path d="M74.5483 65.3963C74.5483 61.9377 72.1236 60.5343 69.1224 62.2635L67.2428 63.3475C64.2479 65.0767 61.8169 69.2871 61.8169 72.7457V73.6792C63.5524 74.2494 65.7328 73.9424 68.0824 72.5702C70.6851 70.9648 72.8862 68.7852 74.517 66.1982L74.5483 65.3963Z" fill="#F2C94C"/>
<path opacity="0.7" d="M68.1137 54.1685C69.9369 53.1159 71.4156 53.968 71.4156 56.0481C71.3536 57.1941 71.0224 58.3092 70.4487 59.3032C69.875 60.2971 69.075 61.1417 68.1137 61.7685C66.2904 62.8211 64.8118 61.969 64.8118 59.8889C64.8737 58.7429 65.205 57.6278 65.7787 56.6338C66.3524 55.6399 67.1524 54.7953 68.1137 54.1685Z" fill="white"/>
<path opacity="0.7" d="M74.5483 65.3963C74.5483 61.9377 72.1236 60.5343 69.1224 62.2635L67.2428 63.3475C64.2479 65.0767 61.8169 69.2871 61.8169 72.7457V73.6792C63.5524 74.2494 65.7328 73.9424 68.0824 72.5702C70.6851 70.9648 72.8862 68.7852 74.517 66.1982L74.5483 65.3963Z" fill="white"/>
<path d="M48.4152 86.8868L61.5163 79.3244C62.1429 78.9798 62.6003 79.2555 62.6003 79.951V80.3833C62.5804 80.7598 62.4719 81.1263 62.2835 81.453C62.0952 81.7796 61.8323 82.0571 61.5163 82.2629L48.4152 89.8253C47.82 90.1699 47.3313 89.888 47.3313 89.1988V88.7665C47.3516 88.39 47.4604 88.0237 47.6487 87.6971C47.837 87.3706 48.0996 87.093 48.4152 86.8868Z" fill="#F2C94C"/>
<path opacity="0.1" d="M48.4152 86.8868L61.5163 79.3244C62.1429 78.9798 62.6003 79.2555 62.6003 79.951V80.3833C62.5804 80.7598 62.4719 81.1263 62.2835 81.453C62.0952 81.7796 61.8323 82.0571 61.5163 82.2629L48.4152 89.8253C47.82 90.1699 47.3313 89.888 47.3313 89.1988V88.7665C47.3516 88.39 47.4604 88.0237 47.6487 87.6971C47.837 87.3706 48.0996 87.093 48.4152 86.8868Z" fill="black"/>
<path d="M47.8764 96.0156L87.5118 73.1341C87.8063 72.9587 88.0506 73.0965 88.0506 73.4474V78.0713C88.0396 78.259 87.9852 78.4415 87.8917 78.6046C87.7982 78.7676 87.6681 78.9068 87.5118 79.0111L47.8764 101.893C47.5756 102.068 47.3313 101.924 47.3313 101.579V96.9554C47.3421 96.767 47.397 96.5838 47.4917 96.4205C47.5864 96.2572 47.7182 96.1185 47.8764 96.0156Z" fill="#F2C94C"/>
<path opacity="0.2" d="M47.8764 96.0156L87.5118 73.1341C87.8063 72.9587 88.0506 73.0965 88.0506 73.4474V78.0713C88.0396 78.259 87.9852 78.4415 87.8917 78.6046C87.7982 78.7676 87.6681 78.9068 87.5118 79.0111L47.8764 101.893C47.5756 102.068 47.3313 101.924 47.3313 101.579V96.9554C47.3421 96.767 47.397 96.5838 47.4917 96.4205C47.5864 96.2572 47.7182 96.1185 47.8764 96.0156Z" fill="white"/>
<path d="M48.4152 107.456L61.5163 99.8939C62.1429 99.5493 62.6003 99.8313 62.6003 100.52V100.953C62.5809 101.329 62.4726 101.696 62.2842 102.023C62.0958 102.35 61.8326 102.627 61.5163 102.832L48.4152 110.395C47.82 110.746 47.3313 110.464 47.3313 109.768V109.336C47.3526 108.96 47.4618 108.594 47.65 108.267C47.8382 107.941 48.1003 107.663 48.4152 107.456Z" fill="#F2C94C"/>
<path opacity="0.1" d="M48.4152 107.456L61.5163 99.8939C62.1429 99.5493 62.6003 99.8313 62.6003 100.52V100.953C62.5809 101.329 62.4726 101.696 62.2842 102.023C62.0958 102.35 61.8326 102.627 61.5163 102.832L48.4152 110.395C47.82 110.746 47.3313 110.464 47.3313 109.768V109.336C47.3526 108.96 47.4618 108.594 47.65 108.267C47.8382 107.941 48.1003 107.663 48.4152 107.456Z" fill="black"/>
<path d="M47.8764 116.585L87.5118 93.7037C87.8063 93.5282 88.0506 93.6723 88.0506 94.0169V98.6409C88.0396 98.8285 87.9852 99.011 87.8917 99.1741C87.7982 99.3372 87.6681 99.4764 87.5118 99.5807L47.8764 122.462C47.5756 122.638 47.3313 122.5 47.3313 122.149V117.525C47.3421 117.337 47.397 117.153 47.4917 116.99C47.5864 116.827 47.7182 116.688 47.8764 116.585Z" fill="#F2C94C"/>
<path opacity="0.2" d="M47.8764 116.585L87.5118 93.7037C87.8063 93.5282 88.0506 93.6723 88.0506 94.0169V98.6409C88.0396 98.8285 87.9852 99.011 87.8917 99.1741C87.7982 99.3372 87.6681 99.4764 87.5118 99.5807L47.8764 122.462C47.5756 122.638 47.3313 122.5 47.3313 122.149V117.525C47.3421 117.337 47.397 117.153 47.4917 116.99C47.5864 116.827 47.7182 116.688 47.8764 116.585Z" fill="white"/>
<path d="M63.684 119.21L79.3477 110.182C79.9743 109.831 80.4379 110.113 80.4379 110.808V115.645C80.4174 116.022 80.3079 116.389 80.1184 116.716C79.9289 117.043 79.6648 117.32 79.3477 117.525L63.684 126.56C63.0575 126.904 62.6001 126.622 62.6001 125.933V121.09C62.6219 120.714 62.7312 120.348 62.9194 120.022C63.1076 119.695 63.3695 119.418 63.684 119.21Z" fill="#F2C94C"/>
<path opacity="0.1" d="M63.684 119.21L79.3477 110.182C79.9743 109.831 80.4379 110.113 80.4379 110.808V115.645C80.4174 116.022 80.3079 116.389 80.1184 116.716C79.9289 117.043 79.6648 117.32 79.3477 117.525L63.684 126.56C63.0575 126.904 62.6001 126.622 62.6001 125.933V121.09C62.6219 120.714 62.7312 120.348 62.9194 120.022C63.1076 119.695 63.3695 119.418 63.684 119.21Z" fill="black"/>
<path d="M145.152 56.2133L144.387 51.8004L140.448 54.3929C140.089 53.6846 139.578 53.0634 138.954 52.5725L140.838 47.4725L137.296 46.6862L134.704 51.6446C133.766 51.8028 132.856 52.0988 132.005 52.5229L130.879 48.7829L126.671 52.0908L126.948 56.4825C126.091 57.4423 125.314 58.4704 124.624 59.5567L121.153 59.3796L118.717 64.8408L121.699 66.1158C121.387 67.2454 121.191 68.4035 121.111 69.5725L117.321 73.0575L118.079 77.4775L122.025 74.885C122.382 75.5927 122.893 76.212 123.519 76.6983L121.67 81.8054L125.212 82.5846L128.924 78.9721C129.781 78.8375 129.568 77.2225 130.503 76.7621L131.63 80.4879L135.83 77.1871L135.724 75.4588C136.574 74.5096 139.79 72.42 140.484 71.3292L141.355 69.9125L143.792 64.4512L142.658 62.3971L141.398 59.7196L145.152 56.2133ZM132.295 70.7412C129.065 73.2771 128.045 73.8367 127.5 70.4438C126.955 67.0508 128.803 61.8942 132.033 59.3512C135.263 56.8083 136.496 56.6312 137.077 60.0171C137.658 63.4029 135.533 68.2337 132.295 70.7412Z" fill="#E0E0E0"/>
<path d="M137.324 46.6862L141.922 49.3354L139.329 54.2796L134.732 51.6304L137.324 46.6862Z" fill="#F5F5F5"/>
<path d="M148.984 54.4496L145.045 57.0421L140.448 54.3929L144.387 51.8004L148.984 54.4496Z" fill="#F5F5F5"/>
<path d="M148.353 67.0792L145.371 65.8113L140.774 63.1621L143.756 64.43L148.353 67.0792Z" fill="#E0E0E0"/>
<path d="M121.663 81.8054L126.26 84.4475L128.145 79.3475L123.547 76.6983L121.663 81.8054Z" fill="#E0E0E0"/>
<path d="M136.184 83.1371L131.594 80.4879L130.468 76.7621L135.065 79.4113L136.184 83.1371Z" fill="#E0E0E0"/>
<path d="M149.742 58.8625L148.984 54.4496L145.045 57.0421C144.683 56.3335 144.17 55.7123 143.544 55.2217L145.428 50.1217L141.922 49.3354L139.322 54.2938C138.384 54.452 137.475 54.748 136.623 55.1721L135.504 51.4462L131.297 54.7542L131.573 59.1458C130.715 60.1124 129.938 61.1477 129.249 62.2413L125.772 62.0642L123.335 67.5254L126.317 68.8004C126.008 69.9331 125.812 71.0932 125.729 72.2642L121.947 75.6996L122.704 80.1196L126.643 77.5271C127.005 78.2337 127.518 78.8525 128.144 79.3404L126.26 84.4404L129.802 85.2267L132.394 80.2683C133.336 80.1119 134.248 79.8133 135.1 79.3829L136.219 83.1088L140.427 79.8079L140.151 75.4163C141.008 74.4565 141.785 73.4283 142.474 72.3421L145.952 72.5121L148.389 67.0508L145.364 65.7829C145.678 64.6511 145.877 63.4907 145.959 62.3192L149.742 58.8625ZM136.899 73.4188C133.677 75.9546 130.588 75.2675 130 71.8817C129.412 68.4958 131.559 63.6863 134.789 61.1504C138.019 58.6146 141.1 59.3088 141.688 62.6946C142.276 66.0804 140.129 70.8829 136.899 73.4188Z" fill="#EBEBEB"/>
<path d="M135.504 51.4321L130.907 48.7829L126.7 52.0908L131.297 54.74L135.504 51.4321Z" fill="#F5F5F5"/>
<path d="M126.7 52.0909L126.976 56.4825L131.573 59.1317L131.297 54.74L126.7 52.0909Z" fill="#E0E0E0"/>
<path d="M129.25 62.2058L124.652 59.5567L121.182 59.3867L125.772 62.0358L129.25 62.2058Z" fill="#F5F5F5"/>
<path d="M121.182 59.3867L118.745 64.8408L123.335 67.49L125.772 62.0358L121.182 59.3867Z" fill="#E0E0E0"/>
<path d="M125.729 72.2217L121.139 69.5725L117.35 73.0575L121.94 75.7067L125.729 72.2217Z" fill="#F5F5F5"/>
<path d="M122.705 80.1267L118.108 77.4775L117.35 73.0575L121.94 75.7067L122.705 80.1267Z" fill="#E0E0E0"/>
<path d="M141.922 49.3354L137.325 46.6862L140.838 47.4725L145.428 50.1217L141.922 49.3354Z" fill="#F5F5F5"/>
<path d="M124.567 36.1817V29.5871L119.319 31.9529C119.041 30.8341 118.561 29.7754 117.902 28.8292L121.21 22.1638L117.172 19.8333L113.05 26.0313C111.901 25.9309 110.744 26.0438 109.636 26.3642L109.055 20.6338L103.346 23.9346L102.772 30.3096C101.529 31.4106 100.387 32.6195 99.3578 33.9221L95.2353 32.5054L91.1978 39.5038L94.4987 42.3371C93.8887 43.8795 93.4147 45.4722 93.082 47.0971L87.8333 50.7875V57.3892L93.082 55.0233C93.36 56.1422 93.8401 57.2008 94.4987 58.1471L91.212 64.8196L95.2495 67.15L99.372 60.9521C100.521 61.0521 101.678 60.9393 102.786 60.6192L103.36 66.3496L109.069 63.0488L109.65 56.6738C111.432 56.0236 113.01 54.9142 114.226 53.4579L117.187 54.4992L121.224 47.5079L118.745 45.3829C119.283 43.6109 119.483 41.7534 119.333 39.9075L124.567 36.1817ZM106.2 52.6575C101.823 55.1863 99.117 53.3658 99.117 48.3296C99.117 43.2933 102.737 37.0671 107.121 34.5383C111.506 32.0096 114.155 33.83 114.155 38.9088C114.155 43.9875 110.585 50.1217 106.2 52.6575Z" fill="#E0E0E0"/>
<path d="M121.763 22.4754L117.173 19.8333L113.05 26.0313L117.64 28.6804L121.763 22.4754Z" fill="#F5F5F5"/>
<path d="M129.164 32.2363L124.567 29.5871L119.319 31.9529L123.916 34.6021L129.164 32.2363Z" fill="#F5F5F5"/>
<path d="M107.936 68.9987L103.346 66.3496L102.772 60.6192L107.362 63.2683L107.936 68.9987Z" fill="#E0E0E0"/>
<path d="M91.1909 64.8196L95.788 67.4688L99.0959 60.8033L94.4988 58.1542L91.1909 64.8196Z" fill="#E0E0E0"/>
<path d="M129.165 38.8663V32.2717L123.916 34.6163C123.641 33.4964 123.16 32.4373 122.499 31.4925L125.807 24.8271L121.77 22.4896L117.647 28.6946C116.498 28.5907 115.34 28.7037 114.233 29.0275L113.652 23.2829L107.943 26.5838L107.362 32.9588C106.121 34.0616 104.979 35.2703 103.948 36.5713L99.8254 35.1546L95.7879 42.1529L99.0958 44.9863C98.4827 46.5275 98.0086 48.1206 97.6792 49.7463L92.4304 53.4367V60.0383L97.6792 57.6725C97.9541 58.7924 98.4345 59.8516 99.0958 60.7963L95.7879 67.4617L99.8254 69.7921L103.948 63.5942C105.097 63.6945 106.254 63.5817 107.362 63.2613L107.943 68.9917L113.652 65.6908L114.226 59.3158C115.468 58.2149 116.611 57.006 117.64 55.7034L121.763 57.12L125.8 50.1288L122.492 47.2954C123.105 45.7541 123.579 44.1611 123.909 42.5354L129.165 38.8663ZM110.797 55.3421C106.413 57.8708 102.857 55.8167 102.857 50.7592C102.857 45.7017 106.399 39.5463 110.797 37.0104C115.196 34.4746 118.731 36.5358 118.731 41.5933C118.731 46.6508 115.175 52.7709 110.797 55.3067V55.3421Z" fill="#EBEBEB"/>
<path d="M99.3579 33.9362L103.948 36.5854L99.8254 35.1475L95.2354 32.4912L99.3579 33.9362Z" fill="#F0F0F0"/>
<path d="M95.2349 32.4985L91.1963 39.4992L95.7918 42.1503L99.8304 35.1496L95.2349 32.4985Z" fill="#F5F5F5"/>
<path d="M91.1909 39.4896L95.788 42.1388L99.0959 44.9863L94.4988 42.3442L91.1909 39.4896Z" fill="#E0E0E0"/>
<path d="M93.082 47.1042L97.6791 49.7533L92.4303 53.4437L87.8333 50.7946L93.082 47.1042Z" fill="#F5F5F5"/>
<path d="M87.8333 50.7946L92.4303 53.4438V60.0454L87.8333 57.3963V50.7946Z" fill="#E0E0E0"/>
<path d="M113.652 23.2829L109.055 20.6338L103.346 23.9346L107.936 26.5838L113.652 23.2829Z" fill="#F5F5F5"/>
<mask id="mask0_53_1386" style="mask-type:alpha" maskUnits="userSpaceOnUse" x="2" y="12" width="166" height="166">
<circle cx="84.6458" cy="95.2708" r="82.5208" fill="#D9D9D9"/>
</mask>
<g mask="url(#mask0_53_1386)">
<path d="M81.0466 119.242C81.0466 119.242 72.3482 107.243 71.8382 105.784C71.4345 104.707 71.8383 103.106 71.9658 102.362C72.0933 101.619 72.2066 99.9611 72.3341 99.5291C72.5466 98.7216 71.5053 98.8845 70.9174 99.6211C70.3295 100.358 70.1312 101.831 69.8266 102.072C69.522 102.313 67.2057 98.934 65.9945 97.3757C64.7832 95.8174 64.0253 94.8682 63.2816 95.449C62.7503 95.867 63.147 96.7736 64.0253 98.1053C64.5383 98.8224 65.0113 99.5673 65.442 100.337C65.5766 100.627 64.8541 100.648 64.4645 101.25C64.1599 101.718 64.4645 102.476 64.0395 102.837C63.7779 103.036 63.5987 103.324 63.536 103.647C63.4733 103.97 63.5315 104.304 63.6995 104.587C64.488 105.825 65.5048 106.902 66.6958 107.76C67.9991 108.659 68.5232 108.978 69.2953 110.204C70.0674 111.429 76.9949 123.945 77.4624 124.696C77.9299 125.447 78.8295 126.977 80.1966 127.019C81.5637 127.062 92.7553 117.429 93.3291 116.947C95.1708 115.41 95.7587 115.19 96.0703 116.572C96.178 117.063 96.2584 117.559 96.3112 118.059C96.5308 119.816 97.7278 126.092 97.7278 126.092C97.7278 126.092 103.395 128.833 108.048 127.508C112.702 126.184 114.274 124.207 114.274 124.207L111.944 120.411C112.575 118.845 115.486 112.499 116.428 108.057L101.836 105.699C101.539 105.635 101.057 105.514 100.419 105.352C99.6191 105.139 97.5862 104.438 96.0491 105.784C91.0341 110.154 81.0608 119.242 81.0608 119.242" fill="#FFA8A7"/>
<path d="M116.385 108.015L118.192 107.512C118.192 107.512 121.967 119.462 122.385 120.616C122.803 121.771 123.277 122.989 122.463 124.413C121.492 126.106 116.385 132.913 116.385 132.913L113.141 129.739L116.824 122.996L113.566 116.409L116.385 108.015Z" fill="#F28F8F"/>
<path d="M97.8341 92.4953C97.4107 91.7004 97.1957 90.8111 97.2094 89.9105C97.223 89.0099 97.4647 88.1275 97.912 87.3457C99.7112 84.0095 103.72 82.3874 108.495 83.0036C110.705 83.2941 113.311 85.1286 114.735 87.8699C116.307 90.9086 116.456 97.0286 116.86 99.3449L97.8341 92.4953Z" fill="#37474F"/>
<path d="M97.7066 93.8058C97.7066 93.8058 96.5733 95.9662 96.7716 96.1645C97.0653 96.3361 97.3864 96.4559 97.7207 96.5187L97.7066 93.8058Z" fill="#FFA8A7"/>
<path d="M101.149 86.9774C99.9166 87.7778 97.7916 89.2511 97.6995 94.1032C97.6003 99.0616 98.3087 100.698 99.0453 101.272C99.5412 101.661 102.452 101.463 103.699 101.172C104.946 100.882 108.537 99.1041 109.833 96.4053C111.356 93.232 111.045 88.6136 108.785 87.197C107.635 86.5169 106.331 86.14 104.995 86.1016C103.66 86.0632 102.336 86.3645 101.149 86.9774Z" fill="#FFA8A7"/>
<path d="M114.232 124.179C116.413 127.579 118.482 130.554 118.935 134.393C119.87 142.461 116.81 151.684 116.151 157.655C117.39 159.353 118.104 161.378 118.206 163.477C118.206 165.949 114.232 189.218 114.232 189.218C114.232 189.218 111.342 190.097 109.876 188.829L107.148 146.024L108.565 140.811L114.232 124.179Z" fill="#F2C94C"/>
<path opacity="0.2" d="M114.232 124.179C116.413 127.579 118.482 130.554 118.935 134.393C119.87 142.461 116.81 151.684 116.151 157.655C117.39 159.353 118.104 161.378 118.206 163.477C118.206 165.949 114.232 189.218 114.232 189.218C114.232 189.218 111.342 190.097 109.876 188.829L107.148 146.024L108.565 140.811L114.232 124.179Z" fill="black"/>
<path d="M107.148 146.024L108.565 140.811C111.278 140.097 113.894 139.057 116.357 137.715C116.357 137.715 114.883 140.4 110.648 141.873L108.459 148.567L108.275 163.902L107.148 146.024Z" fill="#F2C94C"/>
<path opacity="0.3" d="M107.148 146.024L108.565 140.811C111.278 140.097 113.894 139.057 116.357 137.715C116.357 137.715 114.883 140.4 110.648 141.873L108.459 148.567L108.275 163.902L107.148 146.024Z" fill="black"/>
<path d="M114.232 124.179C115.401 126.092 118.192 129.35 117.597 132.488C116.888 136.284 114.834 138.955 108.587 140.811L102.722 162.061C102.722 162.061 105.774 164.894 106.709 167.635C107.644 170.377 111.016 191.258 111.016 191.258C111.016 191.258 109.968 192.965 106.674 192.554C106.674 192.554 95.1919 166.346 94.3844 164.639C93.4043 162.91 93.061 160.893 93.414 158.937C93.7753 156.189 97.664 126.106 97.664 126.106L114.232 124.179Z" fill="#F2C94C"/>
<path opacity="0.2" d="M114.232 124.179C115.401 126.092 118.192 129.35 117.597 132.488C116.888 136.284 114.834 138.955 108.587 140.811L102.722 162.061C102.722 162.061 105.774 164.894 106.709 167.635C107.644 170.377 111.016 191.258 111.016 191.258C111.016 191.258 109.968 192.965 106.674 192.554C106.674 192.554 95.1919 166.346 94.3844 164.639C93.4043 162.91 93.061 160.893 93.414 158.937C93.7753 156.189 97.664 126.106 97.664 126.106L114.232 124.179Z" fill="black"/>
<path d="M116.385 108.015L101.794 105.656C101.496 105.592 101.014 105.472 100.377 105.309C100.377 105.309 99.7537 114.461 96.0066 116.557C96.0987 116.997 96.1766 117.485 96.2474 118.045C96.467 119.802 97.6641 126.077 97.6641 126.077C97.6641 126.077 103.331 128.819 107.984 127.494C112.638 126.17 114.211 124.193 114.211 124.193L111.88 120.397C112.532 118.817 115.465 112.47 116.385 108.015Z" fill="#F2C94C"/>
<path opacity="0.7" d="M116.385 108.015L101.794 105.656C101.496 105.592 101.014 105.472 100.377 105.309C100.377 105.309 99.7537 114.461 96.0066 116.557C96.0987 116.997 96.1766 117.485 96.2474 118.045C96.467 119.802 97.6641 126.077 97.6641 126.077C97.6641 126.077 103.331 128.819 107.984 127.494C112.638 126.17 114.211 124.193 114.211 124.193L111.88 120.397C112.532 118.817 115.465 112.47 116.385 108.015Z" fill="white"/>
<path d="M112.539 118.888C110.601 120.051 108.571 121.054 106.469 121.884C108.377 121.846 110.245 121.33 111.901 120.382L112.539 118.888Z" fill="#F2C94C"/>
<path d="M100.788 87.2182C100.788 87.2182 100.079 91.8224 101.751 94.5282C101.751 94.5282 102.374 92.6936 103.926 93.0407C105.477 93.3878 105.562 95.4349 104.471 96.5824C104.194 96.9043 103.831 97.1415 103.425 97.2667C103.02 97.392 102.586 97.4003 102.176 97.2907C102.176 97.2907 101.928 100.62 101.794 103.411C101.659 106.202 100.922 112.286 104.06 114.744C107.198 117.202 115.075 118.066 118.765 112.909C120.819 110.041 118.092 104.969 116.824 99.2811C115.656 94.0536 114.997 86.3045 109.451 85.0578C103.904 83.8111 100.788 87.2182 100.788 87.2182Z" fill="#37474F"/>
</g>
</svg>
