<svg width="170" height="170" viewBox="0 0 170 170" fill="none" xmlns="http://www.w3.org/2000/svg">
<circle cx="85" cy="85" r="85" fill="#F2C94C"/>
<path d="M72.8659 9.12387C73.9608 9.3675 75.0158 9.76471 75.9995 10.3037C76.9414 10.8101 77.7856 11.4803 78.4924 12.2828C79.1686 13.0548 79.6706 13.9635 79.964 14.947C80.2634 15.9997 80.2852 17.112 80.0275 18.1757C79.8573 19.0191 79.5233 19.8208 79.0442 20.5354C78.6069 21.1465 78.0859 21.6932 77.4965 22.1593C76.9176 22.6087 76.2999 23.0057 75.6506 23.3455L73.8237 24.316C73.2734 24.6031 72.751 24.9407 72.2633 25.3246C71.822 25.6631 71.4838 26.1178 71.2864 26.6377C71.1898 26.8752 71.0296 27.0815 70.8234 27.2339C70.7258 27.3097 70.6123 27.3623 70.4913 27.3876C70.3704 27.4128 70.2453 27.4102 70.1256 27.3798L67.436 26.7836C67.3065 26.7564 67.1837 26.7037 67.0748 26.6286C66.9659 26.5534 66.8731 26.4573 66.8017 26.3459C66.7258 26.2423 66.6753 26.1223 66.6544 25.9955C66.6334 25.8688 66.6426 25.7389 66.6812 25.6164C66.8977 24.7835 67.2795 24.0026 67.8039 23.3201C68.2824 22.7165 68.8367 22.1771 69.4532 21.7153C70.0538 21.2756 70.6904 20.8873 71.3562 20.5545C71.9905 20.231 72.6248 19.9201 73.1767 19.6093C73.6901 19.3334 74.1728 19.0038 74.6166 18.6261C75.0061 18.3 75.2761 17.8538 75.3842 17.3574C75.4851 16.9265 75.4801 16.4775 75.3696 16.0489C75.2591 15.6202 75.0465 15.2248 74.7498 14.8963C74.0081 14.0864 73.0166 13.5482 71.9334 13.3675C69.929 12.9235 68.2374 13.598 66.8588 15.391C66.7257 15.5868 66.558 15.7566 66.364 15.8921C66.145 16.0007 65.8922 16.0189 65.6599 15.9429L62.7991 15.3086C62.595 15.2691 62.4149 15.1506 62.298 14.9787C62.2356 14.8869 62.1936 14.7827 62.175 14.6733C62.1564 14.5638 62.1616 14.4517 62.1901 14.3444C62.4333 13.463 62.8859 12.6534 63.5095 11.9847C64.2128 11.2092 65.0483 10.5648 65.9771 10.0817C66.9926 9.55039 68.0871 9.18626 69.2185 9.00334C70.4306 8.80619 71.6695 8.84712 72.8659 9.12387ZM69.8275 29.5366C70.0791 29.5956 70.2976 29.7508 70.4363 29.9689C70.575 30.1871 70.6229 30.4508 70.5696 30.7037L69.8845 33.8119C69.8614 33.9421 69.8109 34.0658 69.7366 34.1752C69.6623 34.2845 69.5657 34.3768 69.4532 34.4463C69.347 34.5195 69.2267 34.5697 69.1 34.5937C68.9733 34.6178 68.843 34.6151 68.7174 34.5858L65.6472 33.8817C65.5167 33.8597 65.3924 33.8098 65.2829 33.7353C65.1735 33.6609 65.0814 33.5637 65.0129 33.4504C64.9418 33.3432 64.8933 33.2227 64.8704 33.0962C64.8475 32.9697 64.8507 32.8398 64.8797 32.7145L65.5711 29.6063C65.6303 29.3544 65.7852 29.1353 66.003 28.9956C66.2209 28.8559 66.4846 28.8065 66.7383 28.8578L69.8275 29.5366Z" fill="white"/>
<path d="M76.2533 38.8801C77.0171 38.7576 77.7943 38.7426 78.5622 38.8357C79.2958 38.9229 80.0085 39.1376 80.6682 39.47C81.2964 39.7959 81.8496 40.2497 82.2921 40.8021C82.6899 41.3427 82.9699 41.9608 83.1142 42.6163C83.2584 43.2719 83.2636 43.9504 83.1294 44.6081C83.0085 45.1137 82.814 45.5989 82.5521 46.048C82.2997 46.4849 82.0066 46.8969 81.6768 47.2786C81.3533 47.6592 81.0424 48.0208 80.757 48.3696C80.4776 48.6947 80.2291 49.0451 80.0148 49.4163C79.8138 49.7417 79.7124 50.1187 79.723 50.501C79.7175 50.6797 79.6673 50.8541 79.5771 51.0085C79.5313 51.0796 79.4708 51.1401 79.3997 51.1861C79.3286 51.232 79.2485 51.2623 79.1648 51.2749L77.2618 51.5793C77.1729 51.5955 77.0816 51.5937 76.9934 51.5741C76.9052 51.5545 76.8218 51.5175 76.748 51.4652C76.6731 51.4181 76.6104 51.3538 76.5652 51.2777C76.52 51.2016 76.4935 51.1158 76.488 51.0275C76.4082 50.4372 76.4514 49.8368 76.6148 49.264C76.764 48.757 76.9771 48.271 77.2491 47.8178C77.5159 47.3829 77.8216 46.9731 78.1626 46.5935C78.4988 46.2129 78.7969 45.8577 79.0887 45.5152C79.3492 45.2093 79.5747 44.8752 79.7611 44.5193C79.9262 44.2129 79.9863 43.8609 79.9324 43.517C79.8846 43.2144 79.7646 42.9278 79.5824 42.6815C79.4001 42.4352 79.1612 42.2366 78.8857 42.1025C78.2038 41.7731 77.4319 41.6794 76.6909 41.8361C76.0201 41.9342 75.396 42.2374 74.9043 42.7041C74.4125 43.1709 74.0772 43.7783 73.9443 44.4432C73.9071 44.6031 73.8428 44.7554 73.754 44.8935C73.6408 45.0139 73.4873 45.0885 73.3227 45.1029L71.3182 45.4264C71.1773 45.4533 71.0314 45.4237 70.9122 45.3439C70.8511 45.3019 70.7997 45.2474 70.7614 45.1839C70.7231 45.1205 70.6989 45.0496 70.6902 44.976C70.6305 44.3465 70.7286 43.7121 70.9756 43.1301C71.2265 42.4528 71.5959 41.8256 72.0667 41.2779C72.5827 40.6781 73.1908 40.1642 73.8682 39.7555C74.5991 39.3122 75.4091 39.0149 76.2533 38.8801ZM79.5264 52.7402C79.6137 52.7263 79.703 52.7298 79.7889 52.7505C79.8749 52.7712 79.956 52.8086 80.0275 52.8607C80.1023 52.9098 80.1658 52.9742 80.2139 53.0497C80.262 53.1251 80.2936 53.2099 80.3066 53.2984L80.6618 55.4741C80.6894 55.6506 80.6462 55.8308 80.5417 55.9757C80.4372 56.1206 80.2798 56.2184 80.1036 56.248L77.9786 56.5969C77.8022 56.6242 77.6222 56.5809 77.4775 56.4764C77.4039 56.4266 77.3416 56.3619 77.2946 56.2865C77.2477 56.2111 77.217 56.1267 77.2048 56.0387L76.8495 53.8629C76.8334 53.7756 76.8358 53.6859 76.8566 53.5996C76.8774 53.5133 76.916 53.4323 76.9701 53.3618C77.0198 53.2882 77.0845 53.2259 77.1599 53.1789C77.2353 53.132 77.3197 53.1013 77.4077 53.089L79.5264 52.7402Z" fill="white"/>
<g opacity="0.2">
<path d="M76.2533 38.8801C77.0171 38.7576 77.7943 38.7426 78.5622 38.8357C79.2958 38.9229 80.0085 39.1376 80.6682 39.47C81.2964 39.7959 81.8496 40.2497 82.2921 40.8021C82.6899 41.3427 82.9699 41.9608 83.1142 42.6163C83.2584 43.2719 83.2636 43.9504 83.1294 44.6081C83.0085 45.1137 82.814 45.5989 82.5521 46.048C82.2997 46.4849 82.0066 46.8969 81.6768 47.2786C81.3533 47.6592 81.0424 48.0208 80.757 48.3696C80.4776 48.6947 80.2291 49.0451 80.0148 49.4163C79.8138 49.7417 79.7124 50.1187 79.723 50.501C79.7175 50.6797 79.6673 50.8541 79.5771 51.0085C79.5313 51.0796 79.4708 51.1401 79.3997 51.1861C79.3286 51.232 79.2485 51.2623 79.1648 51.2749L77.2618 51.5793C77.1729 51.5955 77.0816 51.5937 76.9934 51.5741C76.9052 51.5545 76.8218 51.5175 76.748 51.4652C76.6731 51.4181 76.6104 51.3538 76.5652 51.2777C76.52 51.2016 76.4935 51.1158 76.488 51.0275C76.4082 50.4372 76.4514 49.8368 76.6148 49.264C76.764 48.757 76.9771 48.271 77.2491 47.8178C77.5159 47.3829 77.8216 46.9731 78.1626 46.5935C78.4988 46.2129 78.7969 45.8577 79.0887 45.5152C79.3492 45.2093 79.5747 44.8752 79.7611 44.5193C79.9262 44.2129 79.9863 43.8609 79.9324 43.517C79.8846 43.2144 79.7646 42.9278 79.5824 42.6815C79.4001 42.4352 79.1612 42.2366 78.8857 42.1025C78.2038 41.7731 77.4319 41.6794 76.6909 41.8361C76.0201 41.9342 75.396 42.2374 74.9043 42.7041C74.4125 43.1709 74.0772 43.7783 73.9443 44.4432C73.9071 44.6031 73.8428 44.7554 73.754 44.8935C73.6408 45.0139 73.4873 45.0885 73.3227 45.1029L71.3182 45.4264C71.1773 45.4533 71.0314 45.4237 70.9122 45.3439C70.8511 45.3019 70.7997 45.2474 70.7614 45.1839C70.7231 45.1205 70.6989 45.0496 70.6902 44.976C70.6305 44.3465 70.7286 43.7121 70.9756 43.1301C71.2265 42.4528 71.5959 41.8256 72.0667 41.2779C72.5827 40.6781 73.1908 40.1642 73.8682 39.7555C74.5991 39.3122 75.4091 39.0149 76.2533 38.8801ZM79.5264 52.7402C79.6137 52.7263 79.703 52.7298 79.7889 52.7505C79.8749 52.7712 79.956 52.8086 80.0275 52.8607C80.1023 52.9098 80.1658 52.9742 80.2139 53.0497C80.262 53.1251 80.2936 53.2099 80.3066 53.2984L80.6618 55.4741C80.6894 55.6506 80.6462 55.8308 80.5417 55.9757C80.4372 56.1206 80.2798 56.2184 80.1036 56.248L77.9786 56.5969C77.8022 56.6242 77.6222 56.5809 77.4775 56.4764C77.4039 56.4266 77.3416 56.3619 77.2946 56.2865C77.2477 56.2111 77.217 56.1267 77.2048 56.0387L76.8495 53.8629C76.8334 53.7756 76.8358 53.6859 76.8566 53.5996C76.8774 53.5133 76.916 53.4323 76.9701 53.3618C77.0198 53.2882 77.0845 53.2259 77.1599 53.1789C77.2353 53.132 77.3197 53.1013 77.4077 53.089L79.5264 52.7402Z" fill="white"/>
</g>
<path d="M94.1922 42.299C94.2787 42.3591 94.352 42.4362 94.4076 42.5257C94.4632 42.6151 94.5 42.715 94.5157 42.8191C94.5359 42.9223 94.5345 43.0286 94.5116 43.1312C94.4886 43.2338 94.4447 43.3306 94.3825 43.4154L92.8728 45.5404C92.8127 45.6269 92.7356 45.7002 92.6461 45.7558C92.5567 45.8114 92.4568 45.8482 92.3527 45.8639C92.2495 45.8841 92.1432 45.8827 92.0406 45.8597C91.9379 45.8368 91.8412 45.7929 91.7564 45.7307L89.6758 44.2527C89.5891 44.1934 89.5161 44.1163 89.4614 44.0267C89.4067 43.937 89.3717 43.8368 89.3586 43.7325C89.3385 43.6293 89.3399 43.5231 89.3628 43.4205C89.3857 43.3178 89.4297 43.2211 89.4918 43.1363L91.0206 41.0113C91.1442 40.839 91.3307 40.7225 91.5397 40.6869C91.7487 40.6512 91.9633 40.6994 92.137 40.821L94.1922 42.299ZM102.971 27.9061C103.73 28.4377 104.405 29.079 104.976 29.809C105.532 30.4881 105.962 31.2616 106.244 32.0926C106.508 32.889 106.596 33.7328 106.505 34.5665C106.397 35.4556 106.06 36.3015 105.528 37.0214C105.132 37.6034 104.623 38.0996 104.031 38.4803C103.51 38.807 102.943 39.0549 102.35 39.2161C101.772 39.3672 101.182 39.4691 100.586 39.5206L98.8989 39.6729C98.393 39.7133 97.8919 39.8003 97.4019 39.9329C96.95 40.0355 96.5364 40.2643 96.2094 40.5926C96.0617 40.7427 95.8749 40.8482 95.6702 40.8971C95.5728 40.925 95.4702 40.9292 95.3709 40.9094C95.2716 40.8895 95.1784 40.8462 95.0993 40.7829L93.2598 39.4762C93.084 39.3506 92.9635 39.162 92.9236 38.9497C92.8999 38.8468 92.9007 38.7398 92.9261 38.6373C92.9514 38.5348 93.0005 38.4398 93.0695 38.3598C93.4992 37.8022 94.0362 37.3363 94.6489 36.9896C95.2006 36.6884 95.7891 36.4602 96.3997 36.3109C96.989 36.1679 97.5896 36.0767 98.1948 36.0381C98.7911 36.0001 99.3493 35.9557 99.8695 35.9049C100.345 35.8629 100.816 35.7693 101.271 35.6258C101.67 35.4931 102.013 35.2321 102.248 34.8837C102.46 34.5894 102.598 34.2484 102.65 33.8894C102.702 33.5305 102.666 33.1643 102.546 32.8221C102.246 31.9767 101.673 31.2556 100.916 30.7732C99.5459 29.7964 98.051 29.7646 96.4314 30.6781C96.2684 30.7818 96.0878 30.8549 95.8986 30.8937C95.8 30.9006 95.701 30.8879 95.6074 30.8563C95.5138 30.8247 95.4273 30.7749 95.353 30.7098L93.3993 29.3206C93.3286 29.2736 93.268 29.2129 93.2211 29.1421C93.1743 29.0713 93.1421 28.9918 93.1265 28.9083C93.1114 28.822 93.1142 28.7334 93.135 28.6483C93.1557 28.5631 93.1939 28.4832 93.2471 28.4135C93.7081 27.8229 94.3071 27.3546 94.9915 27.0497C95.769 26.6975 96.6018 26.4829 97.4527 26.4154C98.3889 26.3371 99.3316 26.4121 100.244 26.6374C101.228 26.8746 102.156 27.3059 102.971 27.9061Z" fill="white"/>
<g opacity="0.6">
<path d="M94.1922 42.299C94.2787 42.3591 94.352 42.4362 94.4076 42.5257C94.4632 42.6151 94.5 42.715 94.5157 42.8191C94.5359 42.9223 94.5345 43.0286 94.5116 43.1312C94.4886 43.2338 94.4447 43.3306 94.3825 43.4154L92.8728 45.5404C92.8127 45.6269 92.7356 45.7002 92.6461 45.7558C92.5567 45.8114 92.4568 45.8482 92.3527 45.8639C92.2495 45.8841 92.1432 45.8827 92.0406 45.8597C91.9379 45.8368 91.8412 45.7929 91.7564 45.7307L89.6758 44.2527C89.5891 44.1934 89.5161 44.1163 89.4614 44.0267C89.4067 43.937 89.3717 43.8368 89.3586 43.7325C89.3385 43.6293 89.3399 43.5231 89.3628 43.4205C89.3857 43.3178 89.4297 43.2211 89.4918 43.1363L91.0206 41.0113C91.1442 40.839 91.3307 40.7225 91.5397 40.6869C91.7487 40.6512 91.9633 40.6994 92.137 40.821L94.1922 42.299ZM102.971 27.9061C103.73 28.4377 104.405 29.079 104.976 29.809C105.532 30.4881 105.962 31.2616 106.244 32.0926C106.508 32.889 106.596 33.7328 106.505 34.5665C106.397 35.4556 106.06 36.3015 105.528 37.0214C105.132 37.6034 104.623 38.0996 104.031 38.4803C103.51 38.807 102.943 39.0549 102.35 39.2161C101.772 39.3672 101.182 39.4691 100.586 39.5206L98.8989 39.6729C98.393 39.7133 97.8919 39.8003 97.4019 39.9329C96.95 40.0355 96.5364 40.2643 96.2094 40.5926C96.0617 40.7427 95.8749 40.8482 95.6702 40.8971C95.5728 40.925 95.4702 40.9292 95.3709 40.9094C95.2716 40.8895 95.1784 40.8462 95.0993 40.7829L93.2598 39.4762C93.084 39.3506 92.9635 39.162 92.9236 38.9497C92.8999 38.8468 92.9007 38.7398 92.9261 38.6373C92.9514 38.5348 93.0005 38.4398 93.0695 38.3598C93.4992 37.8022 94.0362 37.3363 94.6489 36.9896C95.2006 36.6884 95.7891 36.4602 96.3997 36.3109C96.989 36.1679 97.5896 36.0767 98.1948 36.0381C98.7911 36.0001 99.3493 35.9557 99.8695 35.9049C100.345 35.8629 100.816 35.7693 101.271 35.6258C101.67 35.4931 102.013 35.2321 102.248 34.8837C102.46 34.5894 102.598 34.2484 102.65 33.8894C102.702 33.5305 102.666 33.1643 102.546 32.8221C102.246 31.9767 101.673 31.2556 100.916 30.7732C99.5459 29.7964 98.051 29.7646 96.4314 30.6781C96.2684 30.7818 96.0878 30.8549 95.8986 30.8937C95.8 30.9006 95.701 30.8879 95.6074 30.8563C95.5138 30.8247 95.4273 30.7749 95.353 30.7098L93.3993 29.3206C93.3286 29.2736 93.268 29.2129 93.2211 29.1421C93.1743 29.0713 93.1421 28.9918 93.1265 28.9083C93.1114 28.822 93.1142 28.7334 93.135 28.6483C93.1557 28.5631 93.1939 28.4832 93.2471 28.4135C93.7081 27.8229 94.3071 27.3546 94.9915 27.0497C95.769 26.6975 96.6018 26.4829 97.4527 26.4154C98.3889 26.3371 99.3316 26.4121 100.244 26.6374C101.228 26.8746 102.156 27.3059 102.971 27.9061Z" fill="white"/>
</g>
<mask id="mask0_53_994" style="mask-type:alpha" maskUnits="userSpaceOnUse" x="0" y="0" width="170" height="170">
<circle cx="85" cy="85" r="85" fill="#D9D9D9"/>
</mask>
<g mask="url(#mask0_53_994)">
<path d="M42.3463 102.51H19.8086V47.9069C19.8086 43.1644 21.6926 38.6161 25.046 35.2626C28.3995 31.9091 32.9478 30.0252 37.6903 30.0252H39.7709C44.5134 30.0252 49.0617 31.9091 52.4152 35.2626C55.7687 38.6161 57.6526 43.1644 57.6526 47.9069V87.2353C57.6442 91.2892 56.0279 95.1743 53.1583 98.038C50.2887 100.902 46.4003 102.51 42.3463 102.51Z" fill="#263238"/>
<path d="M21.3375 117.068C16.339 128.035 16.339 136.523 17.17 150.522C17.9058 163.367 19.13 174.69 19.13 174.69C18.9397 176.967 15.7744 181.414 15.3621 191.487C14.9815 200.901 15.9965 212.87 15.9965 212.87C15.9965 212.87 23.1073 216.81 28.3659 212.832C28.3659 212.832 33.4405 188.607 34.9248 176.821C36.1935 166.539 38.477 153.402 38.477 153.402L43.2789 176.752C42.2425 180.065 41.4913 183.46 41.0334 186.901C40.361 193.834 44.2431 207.447 44.2431 207.447C44.2431 207.447 51.5886 209.635 56.0733 205.658C56.0733 205.658 57.7479 183.526 58.3759 175.179C59.2132 163.995 57.4498 133.725 56.0733 117.696L21.3375 117.068Z" fill="#455A64"/>
<path d="M38.4896 153.383L40.4624 135.787C40.4624 135.787 49.3049 134.607 53.3139 130.839C52.1665 132.634 50.6379 134.155 48.8367 135.293C47.0355 136.431 45.0058 137.158 42.8919 137.424L40.0374 153.796L43.2788 176.752L38.4896 153.383Z" fill="#263238"/>
<path d="M74.2974 112.742C74.6627 109.531 74.8238 106.3 74.7795 103.068C74.5829 100.277 74.0818 99.8204 70.1806 94.879C64.9157 88.1995 60.4183 82.1924 55.6609 76.2234C52.2609 71.9607 48.6832 71.3074 45.2071 71.4977C42.7713 71.6309 47.5288 83.3469 49.9202 90.2801L63.5773 104.984C64.0004 105.564 64.1946 106.28 64.1228 106.995L63.2982 119.504L67.3896 124.984C67.3896 124.984 73.587 119.643 74.2974 112.742Z" fill="#FFA8A7"/>
<path d="M32.0384 71.8782C29.3933 72.0622 24.5851 72.5126 24.5851 72.5126C21.8131 74.0603 21.109 75.3353 20.5952 79.0144C20.3732 80.5876 21.6545 84.7678 22.7519 90.7114L24.8325 101.73L24.6041 107.198C23.5258 110.534 21.0836 114.676 18.9269 120.785C29.5202 126.697 38.4008 126.919 46.4567 125.86C52.597 125.067 55.8511 123.582 56.9358 122.111C56.7075 116.078 56.3015 112.348 56.1746 106.043C56.1302 103.398 56.2888 100.721 56.3967 97.6764C60.5134 94.2891 60.5642 88.6562 58.2996 84.9898C53.0791 76.5342 47.9981 71.2122 44.6362 71.485L32.0384 71.8782Z" fill="#F2C94C"/>
<path opacity="0.6" d="M32.0384 71.8782C29.3933 72.0622 24.5851 72.5126 24.5851 72.5126C21.8131 74.0603 21.109 75.3353 20.5952 79.0144C20.3732 80.5876 21.6545 84.7678 22.7519 90.7114L24.8325 101.73L24.6041 107.198C23.5258 110.534 21.0836 114.676 18.9269 120.785C29.5202 126.697 38.4008 126.919 46.4567 125.86C52.597 125.067 55.8511 123.582 56.9358 122.111C56.7075 116.078 56.3015 112.348 56.1746 106.043C56.1302 103.398 56.2888 100.721 56.3967 97.6764C60.5134 94.2891 60.5642 88.6562 58.2996 84.9898C53.0791 76.5342 47.9981 71.2122 44.6362 71.485L32.0384 71.8782Z" fill="white"/>
<path opacity="0.1" d="M48.1949 97.7589C48.1949 97.7589 43.3613 101.514 37.8363 99.5541C36.2848 99.0652 34.8858 98.1842 33.7745 96.9962C32.6633 95.8083 31.8774 94.3537 31.493 92.7731C31.493 92.7731 30.9094 99.0847 37.868 101.235C44.6109 103.309 48.1949 97.7589 48.1949 97.7589Z" fill="black"/>
<path d="M54.7539 54.5546C54.5446 63.7143 51.5823 65.9725 50.0853 66.6069C48.5883 67.2412 45.7211 66.8606 42.9301 66.3975V71.9289C42.9301 71.9289 46.1524 75.3035 45.9114 77.8218C45.6704 80.3401 40.8368 80.6255 37.2338 78.158C35.2457 76.7924 33.4476 75.1692 31.8864 73.3308C31.5866 72.9761 31.4225 72.5265 31.4233 72.0621V59.1218C31.4233 59.1218 29.8946 60.7393 27.1924 58.8871C26.6093 58.515 26.1101 58.0256 25.7263 57.4502C25.3426 56.8747 25.0829 56.2256 24.9635 55.5443C24.8442 54.863 24.868 54.1643 25.0333 53.4927C25.1986 52.8211 25.5018 52.1912 25.9237 51.6431C27.1036 50.2539 30.0976 50.1587 31.5312 52.2774C32.3431 53.8569 32.451 55.449 33.358 54.8147C35.7685 53.0767 34.4745 49.1058 37.386 47.2028C38.3415 46.7041 39.3339 46.2799 40.3547 45.9341C45.5498 44.139 50.0536 42.6293 51.1383 39.077C53.1808 40.2442 55.0077 43.752 54.7539 54.5546Z" fill="#FFA8A7"/>
<path d="M44.5096 62.7376C45.1752 62.7376 45.7148 62.198 45.7148 61.5324C45.7148 60.8667 45.1752 60.3271 44.5096 60.3271C43.8439 60.3271 43.3043 60.8667 43.3043 61.5324C43.3043 62.198 43.8439 62.7376 44.5096 62.7376Z" fill="#B16668"/>
<path d="M43.7102 53.1654C43.7099 53.4136 43.6368 53.6562 43.5 53.8632C43.3632 54.0703 43.1687 54.2326 42.9405 54.3303C42.7124 54.4279 42.4606 54.4564 42.2164 54.4124C41.9722 54.3684 41.7463 54.2537 41.5666 54.0825C41.3869 53.9114 41.2613 53.6913 41.2054 53.4496C41.1496 53.2078 41.1658 52.9549 41.2522 52.7223C41.3385 52.4897 41.4912 52.2875 41.6914 52.1407C41.8915 51.994 42.1302 51.9092 42.3781 51.8968C42.5499 51.8882 42.7218 51.9146 42.8831 51.9745C43.0444 52.0344 43.1918 52.1265 43.3164 52.2452C43.4411 52.3639 43.5402 52.5066 43.6079 52.6648C43.6756 52.823 43.7104 52.9934 43.7102 53.1654Z" fill="#263238"/>
<path d="M53.3202 53.2925C53.3332 53.4477 53.3152 53.6039 53.2672 53.7521C53.2191 53.9002 53.1421 54.0374 53.0405 54.1554C52.939 54.2735 52.815 54.3702 52.6757 54.4399C52.5364 54.5095 52.3846 54.5507 52.2292 54.5611C52.0724 54.5756 51.9143 54.5566 51.7655 54.5053C51.6166 54.454 51.4804 54.3716 51.3658 54.2636C51.2512 54.1556 51.1609 54.0245 51.1009 53.879C51.0408 53.7334 51.0125 53.5767 51.0176 53.4194C51.0013 53.263 51.017 53.105 51.0639 52.9549C51.1107 52.8049 51.1878 52.666 51.2902 52.5467C51.3926 52.4275 51.5184 52.3305 51.6596 52.2615C51.8009 52.1926 51.9548 52.1533 52.1118 52.1459C52.2688 52.1386 52.4257 52.1634 52.5728 52.2188C52.7199 52.2742 52.8542 52.3591 52.9673 52.4682C53.0805 52.5773 53.1701 52.7084 53.2308 52.8534C53.2915 52.9985 53.3219 53.1543 53.3202 53.3115V53.2925Z" fill="#263238"/>
<path d="M42.0799 56.426C40.9858 56.426 39.9364 55.9918 39.1622 55.2188C38.3879 54.4457 37.9521 53.397 37.9504 52.3029C37.9504 49.4992 40.843 49.4992 42.0799 49.4992C43.3169 49.4992 46.203 49.4992 46.203 52.3029C46.2014 53.3959 45.7664 54.4437 44.9936 55.2166C44.2207 55.9894 43.1729 56.4244 42.0799 56.426ZM42.0799 50.1462C39.5426 50.1462 38.6038 50.7805 38.6038 52.3029C38.6038 53.2282 38.9714 54.1156 39.6256 54.7699C40.2799 55.4241 41.1673 55.7917 42.0926 55.7917C43.0179 55.7917 43.9053 55.4241 44.5596 54.7699C45.2138 54.1156 45.5814 53.2282 45.5814 52.3029C45.556 50.7488 44.5792 50.1462 42.0799 50.1462Z" fill="#455A64"/>
<path d="M52.5527 56.426C51.4586 56.426 50.4092 55.9918 49.635 55.2188C48.8607 54.4457 48.4249 53.397 48.4232 52.3029C48.4232 49.4992 51.3158 49.4992 52.5527 49.4992C53.7896 49.4992 56.6758 49.4992 56.6758 52.3029C56.6741 53.3959 56.2392 54.4437 55.4663 55.2166C54.6935 55.9894 53.6457 56.4244 52.5527 56.426ZM52.5527 50.1462C50.0534 50.1462 49.0766 50.7805 49.0766 52.3029C49.0766 53.2282 49.4441 54.1156 50.0984 54.7699C50.7527 55.4241 51.6401 55.7917 52.5654 55.7917C53.4907 55.7917 54.3781 55.4241 55.0323 54.7699C55.6866 54.1156 56.0542 53.2282 56.0542 52.3029C56.0288 50.7488 55.0519 50.1462 52.5527 50.1462Z" fill="#455A64"/>
<path d="M46.8438 50.9707L47.0467 58.6778L51.1001 57.4218L46.8438 50.9707Z" fill="#F28F8F"/>
<path d="M42.9237 66.4165C39.9804 66.0296 33.9226 64.2915 32.9774 61.8937C33.3578 63.1055 34.0992 64.1723 35.1024 64.9512C36.9103 66.5053 42.9237 68.2497 42.9237 68.2497V66.4165Z" fill="#F28F8F"/>
<path d="M43.0694 47.2283L40.3798 48.8712C40.1679 48.502 40.1063 48.0653 40.2079 47.6519C40.3095 47.2384 40.5664 46.88 40.9254 46.6511C41.1028 46.5434 41.3002 46.4728 41.5057 46.4436C41.7112 46.4144 41.9204 46.4272 42.1208 46.4811C42.3212 46.5351 42.5086 46.6291 42.6717 46.7575C42.8347 46.886 42.97 47.0461 43.0694 47.2283Z" fill="#263238"/>
<path d="M54.0116 49.0552L51.0176 48.0085C51.0755 47.8101 51.1734 47.6256 51.3053 47.4664C51.4372 47.3072 51.6002 47.1767 51.7844 47.0828C51.9686 46.989 52.17 46.9338 52.3763 46.9206C52.5826 46.9074 52.7894 46.9366 52.984 47.0063C53.3856 47.1506 53.7162 47.4438 53.9075 47.8252C54.0988 48.2066 54.1361 48.647 54.0116 49.0552Z" fill="#263238"/>
<path d="M45.8796 52.6327C45.8366 52.6327 45.794 52.6241 45.7543 52.6074C45.7147 52.5908 45.6787 52.5664 45.6486 52.5357C45.6185 52.505 45.5948 52.4685 45.5789 52.4286C45.563 52.3886 45.5552 52.3458 45.5561 52.3028C45.5561 51.7763 46.5964 51.4338 47.5352 51.4338C48.474 51.4338 49.0766 51.7763 49.0766 52.3028C49.0569 52.3717 49.0153 52.4324 48.9581 52.4755C48.9009 52.5187 48.8311 52.5421 48.7595 52.5421C48.6878 52.5421 48.618 52.5187 48.5608 52.4755C48.5036 52.4324 48.462 52.3717 48.4423 52.3028C48.4423 52.2394 48.1188 52.0808 47.5542 52.0808C47.0997 52.0711 46.6475 52.1486 46.2221 52.3091C46.2222 52.3533 46.2133 52.397 46.1958 52.4375C46.1784 52.4781 46.1528 52.5146 46.1208 52.5449C46.0887 52.5752 46.0507 52.5986 46.0093 52.6137C45.9678 52.6288 45.9237 52.6353 45.8796 52.6327Z" fill="#455A64"/>
<path d="M38.2866 52.3535H38.2486L30.9982 51.7192C30.6594 51.3834 30.2558 51.1201 29.812 50.9453L38.3247 51.7319C38.41 51.743 38.4877 51.787 38.541 51.8545C38.5943 51.9221 38.6191 52.0078 38.6101 52.0934C38.5953 52.1678 38.5547 52.2346 38.4956 52.2822C38.4365 52.3297 38.3625 52.355 38.2866 52.3535Z" fill="#455A64"/>
<path d="M8.51776 59.9148C10.8901 56.7432 12.5077 54.3517 14.6707 51.6685C15.9013 50.1271 16.6879 49.0234 17.8424 47.4439C18.6543 46.3529 19.111 45.4331 20.0372 45.0969C21.0377 44.6869 21.9395 44.0684 22.6823 43.2827C23.1389 42.7775 23.5627 42.2436 23.951 41.6842C25.3106 39.8542 26.9255 38.2286 28.7465 36.857C30.6495 35.4234 32.7745 34.3196 34.7346 32.9558C35.9017 32.1376 37.1513 30.7801 35.7305 29.5114C35.2946 29.1444 34.7732 28.8935 34.2144 28.782C30.7573 28.0335 27.7506 29.2196 24.3696 30.0823C22.901 30.4489 21.4648 30.9347 20.0752 31.5349C19.3917 31.8052 18.7508 32.1727 18.1722 32.626C17.3633 33.4416 16.7003 34.3899 16.2122 35.4297C14.7342 38.0685 11.5625 40.4282 9.34239 42.5152C6.74799 44.9573 4.42635 47.1965 1.46403 49.8861C-1.20014 52.3155 -3.80724 54.5484 -6.2494 57.1999C-8.27291 59.3883 -7.51806 61.101 -7.25164 61.6973C-5.60239 65.0846 -3.75649 66.3025 -1.54269 68.4021C2.26328 72.0368 15.4256 82.4969 19.7834 85.954C20.7197 86.6894 21.4551 87.6494 21.9211 88.745L22.7584 90.6797C27.7316 91.5932 31.0491 84.1271 26.9323 75.1387C26.2506 73.6852 25.2091 72.4298 23.9066 71.4913C18.7051 67.7043 8.51776 59.9148 8.51776 59.9148Z" fill="#FFA8A7"/>
<path d="M8.51766 59.9148C6.93475 61.862 4.82533 63.3131 2.4408 64.095C2.4408 64.095 5.61244 64.9069 9.95759 61.0058L8.51766 59.9148Z" fill="#F28F8F"/>
<path d="M73.0035 106.125L72.1915 105.428C72.0702 105.348 71.9317 105.298 71.7874 105.281C71.643 105.264 71.4968 105.282 71.3606 105.333L62.5497 107.73C62.1059 107.878 61.6993 108.12 61.3577 108.44C61.0161 108.76 60.7476 109.15 60.5706 109.583L54.2273 127.87C54.1509 128.019 54.121 128.188 54.1413 128.354C54.1617 128.52 54.2314 128.677 54.3415 128.803L55.1788 129.526C55.3007 129.61 55.4412 129.663 55.5881 129.681C55.7351 129.698 55.8842 129.68 56.0225 129.627L64.846 127.23C65.2898 127.082 65.6964 126.84 66.038 126.52C66.3796 126.2 66.6481 125.81 66.8251 125.377C68.0938 121.781 71.8997 110.686 73.1684 107.09C73.3206 106.639 73.2445 106.297 73.0035 106.125Z" fill="#455A64"/>
<path d="M55.0583 128.574L61.4016 110.287C61.5779 109.854 61.8462 109.465 62.1879 109.146C62.5297 108.827 62.9367 108.587 63.3807 108.441L72.1851 106.043C73.0034 105.821 73.4538 106.29 73.162 107.09C71.8933 110.686 68.0874 121.781 66.8187 125.377C66.6417 125.81 66.3732 126.2 66.0316 126.52C65.6901 126.84 65.2834 127.082 64.8396 127.23L56.0351 129.653C55.2232 129.843 54.7855 129.374 55.0583 128.574Z" fill="#F2C94C"/>
<path d="M62.4229 108.948C61.9648 109.295 61.6097 109.76 61.3953 110.293L55.052 128.575C54.9793 128.72 54.9491 128.882 54.9648 129.044C54.9805 129.206 55.0415 129.359 55.1408 129.488L54.3542 128.816C54.2415 128.691 54.1696 128.535 54.148 128.368C54.1265 128.202 54.1564 128.032 54.2337 127.883L60.577 109.595C60.7776 109.098 61.1031 108.661 61.5221 108.327L62.4229 108.948Z" fill="#37474F"/>
<path d="M70.5867 114.461C69.9523 116.319 67.7512 117.563 64.1102 118.425C60.4691 119.288 58.4583 123.151 59.0356 124.325C59.6128 125.498 65.4994 126.595 67.8527 126.259C70.2061 125.923 72.5658 122.523 73.2826 121.47C73.9994 120.417 74.824 113.072 74.0691 112.063C73.3143 111.054 71.7221 111.213 71.7221 111.213L70.5867 114.461Z" fill="#F28F8F"/>
</g>
<path d="M91.6068 165.273L89.2027 163.883C88.8021 163.623 88.4686 163.272 88.2294 162.859C87.9902 162.446 87.8521 161.982 87.8262 161.505V61.5852C87.8524 61.1091 87.99 60.6459 88.228 60.2327C88.4659 59.8195 88.7976 59.468 89.1963 59.2065L156.023 20.6267C156.448 20.411 156.919 20.2986 157.396 20.2986C157.873 20.2986 158.344 20.411 158.769 20.6267L161.174 22.0158C161.574 22.2759 161.908 22.6269 162.147 23.0403C162.386 23.4537 162.524 23.9177 162.55 24.3946V124.314C162.524 124.79 162.386 125.253 162.148 125.667C161.91 126.08 161.579 126.431 161.18 126.693L94.3534 165.279C93.9277 165.495 93.4568 165.607 92.9793 165.606C92.5019 165.605 92.0315 165.491 91.6068 165.273Z" fill="#455A64"/>
<path d="M162.55 24.1725C162.455 23.4621 161.878 23.202 161.186 23.6017L94.3533 62.1878C93.9492 62.4414 93.6155 62.7926 93.3828 63.2091L88.2257 60.2341C88.4564 59.8145 88.7905 59.4608 89.1962 59.2065L156.023 20.6267C156.448 20.411 156.919 20.2986 157.396 20.2986C157.873 20.2986 158.344 20.411 158.769 20.6267L161.173 22.0158C161.545 22.2549 161.86 22.5714 162.098 22.9436C162.335 23.3159 162.49 23.7351 162.55 24.1725Z" fill="#455A64"/>
<path d="M94.1187 165.387C93.7126 165.551 93.276 165.627 92.8383 165.608C92.4006 165.589 91.972 165.477 91.5814 165.279L89.1709 163.883C88.7722 163.622 88.4405 163.27 88.2026 162.857C87.9646 162.444 87.827 161.981 87.8008 161.505V61.5852C87.8171 61.1082 87.9546 60.6432 88.2004 60.2341L93.3575 63.2091C93.1069 63.6188 92.967 64.0865 92.9515 64.5666V164.486C92.9769 165.273 93.4717 165.634 94.1187 165.387Z" fill="#263238"/>
<path d="M92.9768 64.5792V164.486C92.9768 165.361 93.6111 165.717 94.3533 165.279L161.18 126.693C161.578 126.431 161.91 126.08 162.148 125.666C162.386 125.253 162.524 124.79 162.55 124.314V24.3945C162.55 23.5192 161.916 23.1639 161.18 23.6016L94.3533 62.1878C93.951 62.4491 93.6165 62.8022 93.3772 63.2179C93.138 63.6336 93.0007 64.1002 92.9768 64.5792Z" fill="#37474F"/>
<path d="M77.3723 102.639C76.5096 102.125 72.507 99.8479 72.2977 99.7274C72.1346 99.6301 71.9954 99.4973 71.8904 99.339C71.7854 99.1807 71.7174 99.0009 71.6912 98.8128C71.665 98.6246 71.6814 98.433 71.7392 98.2521C71.7969 98.0711 71.8946 97.9055 72.0249 97.7673L87.8261 80.8181L92.9768 83.774L77.182 100.736C77.058 100.868 76.9636 101.025 76.9054 101.197C76.8472 101.368 76.8264 101.55 76.8444 101.731C76.8624 101.911 76.9189 102.085 77.0099 102.242C77.101 102.399 77.2246 102.534 77.3723 102.639Z" fill="#455A64"/>
<path d="M92.9768 83.793L77.182 100.736C77.0066 100.923 76.8921 101.159 76.8536 101.413C76.8151 101.667 76.8545 101.926 76.9665 102.157C77.0785 102.388 77.2578 102.579 77.4809 102.706C77.704 102.833 77.9603 102.889 78.216 102.867L92.9768 101.649V83.793Z" fill="#37474F"/>
<path d="M127.763 53.2882C135.553 48.7908 141.865 52.4382 141.865 61.433C141.865 70.4277 135.553 81.3572 127.763 85.8546C119.974 90.352 113.662 86.7046 113.662 77.7162C113.662 68.7277 119.974 57.7856 127.763 53.2882Z" fill="#F2C94C"/>
<path d="M127.662 60.3673C130.199 58.9084 132.236 60.0882 132.236 63.0061C132.149 64.5923 131.69 66.1357 130.895 67.5112C130.101 68.8866 128.993 70.0554 127.662 70.9225C125.125 72.3815 123.082 71.2016 123.082 68.2837C123.169 66.697 123.629 65.1532 124.425 63.7777C125.221 62.4022 126.33 61.2338 127.662 60.3673Z" fill="white"/>
<path d="M136.682 75.9209C136.682 71.1318 133.314 69.1844 129.165 71.5821L126.571 73.0791C122.422 75.4769 119.054 81.3254 119.054 86.1019V87.415C119.837 87.6653 120.655 87.7916 121.477 87.7892C123.703 87.7136 125.87 87.0576 127.764 85.8862C131.369 83.6652 134.42 80.6493 136.682 77.0691V75.9209Z" fill="white"/>
<path d="M118.832 130.378L136.695 120.064C137.456 119.626 138.071 119.981 138.071 120.857V126.61C138.045 127.087 137.907 127.551 137.668 127.964C137.429 128.378 137.095 128.729 136.695 128.989L118.832 139.303C118.071 139.741 117.456 139.386 117.456 138.51V132.757C117.481 132.28 117.62 131.816 117.859 131.403C118.098 130.989 118.431 130.638 118.832 130.378Z" fill="#F2C94C"/>
<path d="M110.085 117.527L145.423 97.1139C146.33 96.5874 147.072 97.0124 147.072 98.0654V100.203C147.041 100.775 146.876 101.332 146.589 101.828C146.303 102.324 145.903 102.745 145.423 103.058L110.066 123.47C109.159 123.997 108.423 123.572 108.423 122.519V120.4C108.452 119.824 108.617 119.262 108.906 118.763C109.195 118.263 109.599 117.839 110.085 117.527Z" fill="#FAFAFA"/>
<path d="M114.22 102.753C114.702 102.474 115.077 102.429 115.343 102.626C115.61 102.823 115.743 103.26 115.743 103.933C115.756 104.547 115.619 105.154 115.343 105.703C115.094 106.198 114.703 106.609 114.22 106.882L113.269 107.434V109.483C113.267 109.554 113.25 109.623 113.218 109.686C113.196 109.744 113.156 109.792 113.104 109.826L112.622 110.105C112.605 110.117 112.585 110.124 112.565 110.124C112.544 110.124 112.524 110.117 112.508 110.105C112.473 110.062 112.458 110.007 112.463 109.953V104.022C112.463 103.952 112.478 103.882 112.508 103.819C112.532 103.762 112.571 103.714 112.622 103.679L114.22 102.753ZM113.269 106.286L114.189 105.753C114.411 105.628 114.598 105.449 114.734 105.233C114.878 104.978 114.949 104.688 114.937 104.396C114.937 104.053 114.867 103.857 114.734 103.8C114.64 103.777 114.542 103.776 114.447 103.797C114.353 103.817 114.264 103.86 114.189 103.92L113.269 104.453V106.286Z" fill="#FAFAFA"/>
<path d="M118.401 100.336C118.464 100.298 118.515 100.298 118.547 100.336C118.587 100.393 118.615 100.458 118.629 100.527L120.094 105.487C120.094 105.487 120.094 105.525 120.094 105.544C120.093 105.615 120.076 105.684 120.044 105.747C120.021 105.805 119.981 105.853 119.929 105.887L119.498 106.134C119.422 106.179 119.365 106.185 119.333 106.134C119.302 106.102 119.281 106.063 119.27 106.02L119.01 105.151L117.107 106.242L116.853 107.409C116.835 107.472 116.812 107.534 116.783 107.593C116.752 107.67 116.693 107.734 116.618 107.771L116.187 108.018C116.171 108.031 116.151 108.039 116.13 108.039C116.109 108.039 116.089 108.031 116.073 108.018C116.04 107.977 116.024 107.925 116.028 107.872C116.025 107.849 116.025 107.826 116.028 107.802L117.487 101.155C117.505 101.057 117.533 100.961 117.57 100.869C117.601 100.802 117.652 100.747 117.716 100.711L118.401 100.336ZM118.731 104.18L118.096 101.941L117.462 104.935L118.731 104.18Z" fill="#FAFAFA"/>
<path d="M122.315 97.983C122.527 97.849 122.768 97.7685 123.019 97.7483C123.196 97.7324 123.373 97.7723 123.526 97.8625C123.665 97.9528 123.774 98.0833 123.837 98.2367C123.906 98.3929 123.945 98.5608 123.951 98.7315C123.955 98.802 123.94 98.8723 123.907 98.9345C123.884 98.9919 123.844 99.0407 123.793 99.074L123.374 99.3151C123.304 99.3531 123.253 99.3595 123.222 99.3151C123.182 99.2892 123.15 99.2545 123.126 99.2136C123.101 99.1565 123.064 99.1052 123.019 99.0627C122.973 99.0201 122.919 98.9873 122.86 98.9662C122.667 98.9386 122.471 98.9887 122.315 99.1057C122.212 99.1721 122.114 99.2463 122.023 99.3278C121.929 99.4144 121.845 99.5124 121.775 99.6196C121.708 99.7228 121.653 99.8335 121.61 99.9494C121.573 100.06 121.554 100.175 121.553 100.292C121.546 100.399 121.565 100.506 121.61 100.603C121.63 100.637 121.657 100.666 121.691 100.687C121.724 100.708 121.762 100.72 121.801 100.723C121.918 100.744 122.038 100.744 122.156 100.723L122.708 100.603C122.913 100.542 123.128 100.516 123.342 100.527C123.495 100.526 123.644 100.575 123.767 100.666C123.883 100.764 123.967 100.894 124.008 101.04C124.07 101.246 124.098 101.46 124.091 101.675C124.09 101.958 124.05 102.24 123.97 102.512C123.893 102.792 123.78 103.06 123.634 103.311C123.48 103.569 123.297 103.807 123.088 104.022C122.875 104.243 122.632 104.433 122.365 104.586C122.17 104.705 121.955 104.789 121.731 104.834C121.548 104.869 121.36 104.853 121.185 104.789C121.027 104.716 120.896 104.593 120.811 104.44C120.708 104.245 120.651 104.028 120.646 103.806C120.646 103.734 120.661 103.662 120.691 103.597C120.719 103.543 120.76 103.497 120.811 103.464L121.23 103.223C121.293 103.184 121.344 103.172 121.382 103.191C121.42 103.21 121.446 103.242 121.471 103.299C121.497 103.364 121.531 103.426 121.572 103.483C121.612 103.538 121.667 103.58 121.731 103.603C121.814 103.622 121.901 103.622 121.985 103.603C122.119 103.571 122.248 103.518 122.365 103.445C122.488 103.374 122.605 103.294 122.714 103.204C122.927 103.035 123.097 102.817 123.209 102.569C123.26 102.442 123.286 102.306 123.285 102.17C123.291 102.12 123.287 102.069 123.273 102.022C123.258 101.974 123.235 101.929 123.203 101.89C123.168 101.86 123.128 101.838 123.084 101.825C123.04 101.811 122.994 101.808 122.949 101.814C122.805 101.82 122.662 101.844 122.524 101.884C122.359 101.922 122.169 101.967 121.947 102.005C121.777 102.047 121.601 102.06 121.426 102.043C121.289 102.034 121.159 101.978 121.059 101.884C120.949 101.777 120.872 101.64 120.837 101.491C120.786 101.27 120.762 101.045 120.767 100.818C120.766 100.539 120.807 100.261 120.887 99.9938C120.963 99.7185 121.074 99.4542 121.217 99.2072C121.354 98.962 121.52 98.7342 121.712 98.5285C121.886 98.319 122.089 98.1354 122.315 97.983Z" fill="#FAFAFA"/>
<path d="M126.482 95.5852C126.693 95.4471 126.935 95.3642 127.186 95.3442C127.363 95.3291 127.54 95.369 127.694 95.4583C127.829 95.5511 127.935 95.6811 127.998 95.8326C128.067 95.9887 128.106 96.1567 128.112 96.3274C128.12 96.3981 128.104 96.4693 128.068 96.5304C128.046 96.5878 128.006 96.6366 127.954 96.6699L127.535 96.911C127.472 96.949 127.421 96.9617 127.383 96.911C127.342 96.8855 127.311 96.8477 127.294 96.8031C127.236 96.6918 127.139 96.6059 127.021 96.5621C126.927 96.5482 126.83 96.5534 126.738 96.5773C126.645 96.6013 126.558 96.6436 126.482 96.7016C126.376 96.7663 126.276 96.8407 126.184 96.9237C126.092 97.0105 126.011 97.1085 125.943 97.2154C125.873 97.3173 125.818 97.4283 125.778 97.5453C125.739 97.6553 125.717 97.771 125.715 97.8878C125.707 97.9946 125.727 98.1015 125.772 98.1987C125.791 98.2327 125.819 98.2615 125.852 98.2825C125.885 98.3035 125.923 98.3161 125.962 98.3192C126.08 98.3397 126.2 98.3397 126.317 98.3192L126.869 98.1987C127.075 98.1412 127.289 98.1155 127.503 98.1225C127.657 98.1212 127.806 98.1702 127.928 98.2621C128.044 98.3611 128.13 98.4908 128.176 98.6363C128.232 98.843 128.257 99.0567 128.252 99.2707C128.251 99.5541 128.211 99.836 128.131 100.108C128.054 100.388 127.941 100.656 127.795 100.907C127.642 101.167 127.459 101.408 127.25 101.624C127.035 101.84 126.795 102.027 126.533 102.182C126.337 102.301 126.123 102.384 125.899 102.43C125.718 102.464 125.532 102.449 125.359 102.385C125.198 102.314 125.064 102.191 124.979 102.036C124.875 101.841 124.82 101.623 124.82 101.402C124.813 101.331 124.828 101.26 124.865 101.199C124.887 101.142 124.927 101.093 124.979 101.059L125.397 100.818C125.461 100.78 125.518 100.768 125.55 100.787C125.572 100.797 125.591 100.812 125.607 100.83C125.622 100.849 125.633 100.871 125.638 100.895C125.667 100.959 125.701 101.02 125.74 101.078C125.782 101.134 125.839 101.176 125.905 101.199C125.988 101.218 126.075 101.218 126.159 101.199C126.293 101.167 126.422 101.114 126.539 101.04C126.659 100.969 126.774 100.888 126.882 100.799C126.993 100.712 127.091 100.61 127.174 100.495C127.256 100.385 127.324 100.266 127.377 100.14C127.427 100.013 127.453 99.8769 127.453 99.7401C127.459 99.6904 127.454 99.64 127.44 99.592C127.426 99.544 127.402 99.4994 127.37 99.461C127.336 99.4307 127.295 99.4083 127.252 99.3952C127.208 99.382 127.162 99.3785 127.116 99.3848C126.975 99.3935 126.835 99.4169 126.698 99.4546C126.533 99.4927 126.336 99.5371 126.121 99.5751C125.949 99.6176 125.77 99.6305 125.594 99.6132C125.456 99.606 125.326 99.5497 125.226 99.4546C125.118 99.3466 125.044 99.2102 125.01 99.0613C124.954 98.844 124.929 98.6198 124.934 98.3953C124.937 98.1141 124.977 97.8346 125.055 97.5643C125.133 97.29 125.244 97.026 125.385 96.7778C125.522 96.531 125.69 96.3028 125.886 96.099C126.057 95.8978 126.258 95.7244 126.482 95.5852Z" fill="#FAFAFA"/>
<path d="M131.106 96.3782L130.592 99.4166C130.577 99.508 130.552 99.5974 130.516 99.683C130.492 99.7514 130.445 99.8095 130.383 99.848L129.901 100.127C129.838 100.165 129.793 100.165 129.762 100.127C129.719 100.075 129.694 100.01 129.692 99.9431L128.931 94.583C128.931 94.583 128.931 94.5323 128.931 94.5132C128.932 94.4427 128.95 94.3734 128.981 94.3103C129.005 94.2539 129.045 94.2055 129.095 94.1707L129.533 93.917C129.57 93.9022 129.611 93.9022 129.647 93.917C129.685 93.917 129.711 93.9677 129.723 94.0692L130.225 97.6785L130.662 94.97C130.674 94.9024 130.693 94.8365 130.719 94.7733C130.745 94.6931 130.799 94.6252 130.872 94.583L131.36 94.2976C131.43 94.2595 131.481 94.2659 131.512 94.2976C131.54 94.3379 131.559 94.3831 131.569 94.4308L132.013 96.6319L132.514 92.4453C132.521 92.363 132.544 92.2829 132.584 92.2106C132.614 92.1632 132.653 92.1223 132.698 92.0901L133.136 91.8364C133.153 91.824 133.173 91.8174 133.193 91.8174C133.214 91.8174 133.234 91.824 133.25 91.8364C133.268 91.8572 133.282 91.8813 133.291 91.9074C133.3 91.9336 133.303 91.9612 133.301 91.9886C133.304 92.0139 133.304 92.0394 133.301 92.0647L132.54 98.3002C132.527 98.3914 132.504 98.4808 132.47 98.5666C132.441 98.6343 132.393 98.6918 132.331 98.7315L131.842 99.0106C131.785 99.0423 131.741 99.0423 131.709 99.0106C131.677 98.9523 131.651 98.8906 131.633 98.8267L131.106 96.3782Z" fill="#FAFAFA"/>
<path d="M134.075 93.6887C134.089 93.337 134.131 92.987 134.202 92.6421C134.274 92.305 134.385 91.9772 134.532 91.6652C134.671 91.3618 134.851 91.0782 135.065 90.8215C135.281 90.5669 135.541 90.3523 135.832 90.1872C136.056 90.0356 136.317 89.9499 136.587 89.9398C136.788 89.942 136.981 90.0215 137.126 90.1618C137.28 90.3345 137.391 90.541 137.45 90.7644C137.531 91.0558 137.576 91.3563 137.583 91.6589C137.583 91.773 137.583 91.8999 137.583 92.0394C137.583 92.179 137.583 92.3249 137.583 92.4771C137.583 92.6294 137.583 92.7753 137.583 92.9148C137.583 93.0544 137.583 93.1876 137.583 93.3081C137.569 93.6578 137.527 94.0057 137.456 94.3484C137.383 94.6845 137.274 95.0119 137.132 95.3253C136.988 95.6277 136.807 95.9111 136.593 96.1689C136.376 96.4211 136.119 96.6355 135.832 96.8033C135.603 96.9538 135.338 97.0393 135.065 97.0506C134.966 97.0527 134.868 97.0346 134.776 96.9975C134.684 96.9604 134.601 96.9051 134.532 96.835C134.366 96.6574 134.252 96.4381 134.202 96.2006C134.126 95.9082 134.084 95.6082 134.075 95.3062C134.075 95.1921 134.075 95.0652 134.075 94.9256C134.075 94.7861 134.075 94.6402 134.075 94.488C134.075 94.3357 134.075 94.1962 134.075 94.0503C134.075 93.9044 134.069 93.8029 134.075 93.6887ZM136.777 92.1727C136.791 92.0175 136.774 91.861 136.726 91.7128C136.678 91.5645 136.6 91.4275 136.498 91.31C136.333 91.1641 136.105 91.1704 135.832 91.31C135.536 91.484 135.301 91.7455 135.16 92.0585C134.98 92.4283 134.884 92.8335 134.881 93.2447C134.881 93.4794 134.881 93.7394 134.881 94.0249C134.881 94.3103 134.881 94.5641 134.881 94.7924C134.866 94.9476 134.884 95.1041 134.932 95.2523C134.98 95.4006 135.057 95.5376 135.16 95.6551C135.325 95.7947 135.553 95.782 135.832 95.6234C136.123 95.4482 136.355 95.1896 136.498 94.8812C136.678 94.5137 136.773 94.1106 136.777 93.7014C136.777 93.4603 136.777 93.2003 136.777 92.9148C136.777 92.6294 136.784 92.401 136.777 92.1727Z" fill="#FAFAFA"/>
<path d="M140.348 87.6561C140.849 87.3707 141.224 87.3263 141.484 87.5356C141.638 87.7054 141.753 87.9072 141.819 88.1266C141.886 88.3459 141.904 88.5774 141.871 88.8043C141.876 89.2351 141.809 89.6639 141.674 90.0729C141.545 90.454 141.345 90.807 141.084 91.1132L141.909 92.9084C141.911 92.9379 141.911 92.9676 141.909 92.9972C141.909 93.0544 141.896 93.1108 141.871 93.1621C141.853 93.2082 141.822 93.2479 141.782 93.2763L141.274 93.5681C141.192 93.6125 141.135 93.6188 141.097 93.5681C141.063 93.5348 141.035 93.4962 141.014 93.4539L140.234 91.7602L139.441 92.217V94.361C139.442 94.4311 139.427 94.5005 139.397 94.564C139.371 94.6191 139.332 94.667 139.283 94.7035L138.801 94.9826C138.785 94.996 138.764 95.0034 138.744 95.0034C138.723 95.0034 138.702 94.996 138.686 94.9826C138.668 94.9632 138.654 94.9402 138.646 94.9151C138.637 94.8899 138.633 94.8632 138.636 94.8367V88.9058C138.638 88.8352 138.655 88.7659 138.686 88.7028C138.709 88.6454 138.749 88.5965 138.801 88.5632L140.348 87.6561ZM139.454 91.0688L140.348 90.5867C140.567 90.4647 140.754 90.2931 140.894 90.0856C141.041 89.8412 141.111 89.5585 141.097 89.2737C141.097 88.9311 141.027 88.7408 140.894 88.7028C140.701 88.6765 140.505 88.7266 140.348 88.8423L139.486 89.3371L139.454 91.0688Z" fill="#FAFAFA"/>
<path d="M144.598 85.2138C144.829 85.0636 145.092 84.9721 145.366 84.9474C145.564 84.9401 145.758 85.0107 145.905 85.1441C146.073 85.3207 146.189 85.5402 146.241 85.7784C146.327 86.093 146.373 86.4167 146.381 86.7426C146.381 87.1866 146.381 87.6433 146.381 88.1064C146.368 88.484 146.321 88.8598 146.241 89.2291C146.169 89.5724 146.058 89.9064 145.911 90.225C145.77 90.5177 145.591 90.7906 145.379 91.037C145.167 91.2891 144.914 91.5036 144.63 91.6713L143.127 92.4896C143.111 92.503 143.091 92.5104 143.07 92.5104C143.049 92.5104 143.029 92.503 143.013 92.4896C142.994 92.4704 142.98 92.4474 142.971 92.4222C142.962 92.397 142.959 92.3702 142.962 92.3437V86.4127C142.964 86.3422 142.981 86.2729 143.013 86.2097C143.035 86.1523 143.075 86.1035 143.127 86.0702L144.598 85.2138ZM145.575 87.1866C145.572 87.0148 145.547 86.8442 145.499 86.6791C145.47 86.5542 145.406 86.44 145.315 86.3493C145.275 86.3095 145.228 86.2782 145.175 86.2575C145.123 86.2368 145.067 86.227 145.011 86.2288C144.852 86.2394 144.699 86.2919 144.567 86.381L143.767 86.8377V90.9735L144.598 90.4978C144.759 90.4042 144.903 90.2841 145.023 90.1426C145.142 90.0034 145.242 89.85 145.322 89.6858C145.401 89.5111 145.46 89.3281 145.499 89.1403C145.543 88.9444 145.569 88.7448 145.575 88.5441C145.594 88.081 145.594 87.6306 145.575 87.1866Z" fill="#FAFAFA"/>
</svg>
