<svg xmlns="http://www.w3.org/2000/svg" xmlns:xlink="http://www.w3.org/1999/xlink" width="500" zoomAndPan="magnify" viewBox="0 0 375 374.999991" height="500" preserveAspectRatio="xMidYMid meet" version="1.0"><defs><g/></defs><g fill="rgb(94.119263%, 94.119263%, 96.859741%)" fill-opacity="1"><g transform="translate(-4.268727, 259.531199)"><g><path d="M 111.253906 -237.675781 L 31.234375 -237.675781 C 18.742188 -237.675781 9.816406 -227.265625 9.816406 -216.257812 L 9.816406 -22.609375 C 9.816406 -11.898438 18.742188 -0.890625 31.234375 -0.890625 L 111.253906 -0.890625 C 157.957031 -0.890625 193.652344 -38.671875 193.652344 -83.589844 L 193.652344 -155.277344 C 193.652344 -200.195312 157.957031 -237.675781 111.253906 -237.675781 Z M 121.070312 -112.144531 C 121.070312 -99.652344 111.847656 -91.023438 99.652344 -91.023438 L 85.375 -91.023438 C 83.292969 -91.023438 81.207031 -92.511719 81.207031 -96.082031 L 81.207031 -142.488281 C 81.207031 -146.355469 83.292969 -148.140625 85.375 -148.140625 L 99.652344 -148.140625 C 111.847656 -148.140625 121.070312 -139.214844 121.070312 -126.425781 Z M 121.070312 -112.144531 "/></g></g></g><path stroke-linecap="butt" transform="matrix(0.792446, 0, 0, 0.792446, -49.214788, 14.366418)" fill="none" stroke-linejoin="miter" d="M 210.025151 0.0453347 L 109.032433 0.0453347 C 93.268342 0.0453347 81.994896 13.24123 81.994896 27.077942 L 81.994896 271.500235 C 81.994896 284.972174 93.268342 298.902544 109.032433 298.902544 L 210.025151 298.902544 C 268.955645 298.902544 313.950838 251.245496 313.950838 194.518427 L 313.950838 104.05975 C 313.950838 47.332681 268.955645 0.0453347 210.025151 0.0453347 Z M 222.397844 158.499597 C 222.397844 174.263689 210.759626 185.167432 195.360307 185.167432 L 177.397721 185.167432 C 174.740796 185.167432 172.083871 183.244982 172.083871 178.754335 L 172.083871 120.193544 C 172.083871 115.333195 174.740796 113.041043 177.397721 113.041043 L 195.360307 113.041043 C 210.759626 113.041043 222.397844 124.314488 222.397844 140.443353 Z M 222.397844 158.499597 " stroke="rgb(75.289917%, 71.369934%, 100%)" stroke-width="6.099957" stroke-opacity="1" stroke-miterlimit="4"/><g fill="rgb(100%, 65.489197%, 89.408875%)" fill-opacity="1"><g transform="translate(140.864169, 341.065874)"><g><path d="M 217.667969 -23.964844 L 169.171875 -208.539062 C 168.316406 -211.964844 167.460938 -217.097656 163.464844 -221.664062 C 159.1875 -225.941406 153.765625 -227.082031 149.773438 -227.082031 L 75.027344 -227.082031 C 70.75 -227.082031 66.753906 -225.65625 63.902344 -223.375 C 61.050781 -221.378906 57.910156 -217.953125 56.769531 -212.820312 L 5.421875 -24.25 C 3.136719 -15.121094 7.417969 -5.421875 15.976562 -1.710938 C 18.257812 -0.570312 20.539062 -0.285156 23.394531 -0.285156 L 62.191406 -0.285156 C 72.746094 -0.285156 77.027344 -6.847656 81.304688 -17.6875 L 89.578125 -39.9375 L 133.226562 -39.9375 L 141.785156 -17.6875 C 146.0625 -6.847656 150.34375 0 160.898438 0 L 199.695312 0 C 202.835938 0 205.972656 -0.855469 208.253906 -2.28125 C 215.957031 -6.277344 219.664062 -15.40625 217.667969 -23.964844 Z M 124.953125 -105.839844 L 98.421875 -105.839844 C 95.570312 -105.839844 93.285156 -108.40625 94.714844 -111.257812 L 102.128906 -130.660156 L 107.835938 -145.492188 C 108.976562 -149.203125 114.113281 -149.203125 115.253906 -145.492188 L 121.246094 -130.660156 L 128.660156 -111.257812 C 129.515625 -108.40625 127.519531 -105.839844 124.953125 -105.839844 Z M 124.953125 -105.839844 "/></g></g></g><path stroke-linecap="butt" transform="matrix(0.792446, 0, 0, 0.792446, 119.482885, 105.714924)" fill="none" stroke-linejoin="miter" d="M 314.01687 257.765967 L 252.843518 24.853729 C 251.788635 20.550398 250.649953 14.043644 245.636794 8.241788 C 240.278581 2.883574 233.421842 1.478706 228.324884 1.478706 L 134.016377 1.478706 C 128.658163 1.478706 123.556276 3.233558 120.041643 6.136951 C 116.438281 8.68543 112.396206 12.988761 110.991339 19.406787 L 46.214625 257.415982 C 43.316162 268.926037 48.674376 281.145919 59.484461 285.804164 C 62.387854 287.29776 65.286317 287.647744 68.889679 287.647744 L 117.848078 287.647744 C 131.117914 287.647744 136.564856 279.386138 141.927999 265.677589 L 152.3881 237.639392 L 207.49341 237.639392 L 218.303496 265.677589 C 223.666639 279.386138 229.113581 287.997729 242.388347 287.997729 L 291.341816 287.997729 C 295.295162 287.997729 299.253438 286.942846 302.151901 285.099266 C 311.907104 280.091036 316.565349 268.576052 314.01687 257.765967 Z M 197.033309 154.407156 L 163.54817 154.407156 C 159.944808 154.407156 157.046345 151.242508 158.889925 147.639146 L 168.206415 123.115582 L 175.413139 104.398804 C 176.906735 99.740559 183.324761 99.740559 184.818357 104.398804 L 192.375065 123.115582 L 201.691554 147.639146 C 202.835166 151.242508 200.286687 154.407156 197.033309 154.407156 Z M 197.033309 154.407156 " stroke="rgb(100%, 39.99939%, 76.858521%)" stroke-width="5.850016" stroke-opacity="1" stroke-miterlimit="4"/></svg>